RobotoCondensed-Italic.ufo
<glyph name="numbersign" format="2">
  <advance width="1088"/>
  <unicode hex="0023"/>
  <outline>
    <contour>
      <point x="144.60850544330447" y="0.0" type="line"/>
      <point x="279.840578136007" y="0.0" type="line"/>
      <point x="767.3789803958393" y="1455.823186905988" type="line"/>
      <point x="631.4677524204084" y="1455.8509278563927" type="line"/>
    </contour>
    <contour>
      <point x="474.4022936068484" y="0.0" type="line"/>
      <point x="610.5800680573087" y="0.0" type="line"/>
      <point x="1097.1851774720542" y="1455.8264162923106" type="line"/>
      <point x="962.2281611907813" y="1455.8508888232973" type="line"/>
    </contour>
    <contour>
      <point x="1089.6757974045386" y="901.0827983720461" type="line"/>
      <point x="1114.458763287404" y="1039.9066660887727" type="line"/>
      <point x="265.34543864389815" y="1039.914777855625" type="line"/>
      <point x="240.56247276101624" y="901.0909101388187" type="line"/>
    </contour>
    <contour>
      <point x="943.5017726307847" y="410.08244060128317" type="line"/>
      <point x="968.1064429065468" y="547.9082492038439" type="line"/>
      <point x="118.02319581287004" y="547.9163631215818" type="line"/>
      <point x="93.41852553710315" y="410.0905545189843" type="line"/>
    </contour>
  </outline>
</glyph>
<glyph name="dollar" format="2">
  <advance width="981"/>
  <unicode hex="0024"/>
  <guideline x="0.0" y="1658.0" angle="0.0" identifier="JX2yg9TICX"/>
  <guideline x="0.0" y="555.0" angle="0.0" identifier="EDxYh0gHR1"/>
  <outline>
    <contour>
      <point x="749.902751146656" y="1691.928745152698" type="line"/>
      <point x="612.7738653645962" y="1691.9325829840477" type="line"/>
      <point x="564.3440502969678" y="1387.068082516575" type="line"/>
      <point x="701.4729947144707" y="1387.0641302972313" type="line"/>
    </contour>
    <contour>
      <point x="476.55313892045774" y="58.92513329787958" type="line"/>
      <point x="339.4181979470461" y="58.92748702405287" type="line"/>
      <point x="296.80086293817806" y="-207.92486010842558" type="line"/>
      <point x="433.93577358822677" y="-207.9274184878118" type="line"/>
    </contour>
    <contour>
      <point x="668.8272145174464" y="382.5225378425809" type="curve" smooth="yes"/>
      <point x="653.7969049491043" y="245.6208886483366"/>
      <point x="560.7299871482583" y="137.42482979766922"/>
      <point x="416.42298637701816" y="140.91568435379068" type="curve" smooth="yes"/>
      <point x="262.17226737504734" y="144.6470821538644"/>
      <point x="244.891407345616" y="308.0347937492778"/>
      <point x="253.69859157265415" y="428.95588967138616" type="curve"/>
      <point x="80.45388626392469" y="429.33281747635255" type="line"/>
      <point x="65.98430344200611" y="204.5279522968595"/>
      <point x="150.56092619076793" y="-16.075098934824624"/>
      <point x="405.4362997828162" y="-21.325418463205185" type="curve" smooth="yes"/>
      <point x="652.3143118800061" y="-26.410995895712727"/>
      <point x="821.243136519999" y="141.5611361131124"/>
      <point x="839.2382850801191" y="384.1674693411203" type="curve" smooth="yes"/>
      <point x="855.1509353635463" y="598.6980537541506"/>
      <point x="753.8217792473702" y="717.7106775276454"/>
      <point x="570.7323510423962" y="808.9418069380199" type="curve" smooth="yes"/>
      <point x="456.8204940413801" y="865.7026339793348"/>
      <point x="387.5129663172142" y="943.4912891996182"/>
      <point x="401.11148744604463" y="1075.663832762105" type="curve" smooth="yes"/>
      <point x="413.4770550104664" y="1195.8525284371303"/>
      <point x="478.80879040486127" y="1319.2604001969833"/>
      <point x="615.7310395238937" y="1315.2367680498362" type="curve" smooth="yes"/>
      <point x="763.7394623861234" y="1310.8873547725295"/>
      <point x="764.6882492198189" y="1113.1509747077876"/>
      <point x="756.924684725224" y="1007.9847981233406" type="curve"/>
      <point x="928.9303272128559" y="1007.8207930792877" type="line"/>
      <point x="944.5824171956161" y="1224.8518463569123"/>
      <point x="887.92404307419" y="1470.89944727587"/>
      <point x="627.9482211236426" y="1477.15743815791" type="curve" smooth="yes"/>
      <point x="391.5193280474779" y="1482.8486206918108"/>
      <point x="246.48737250335853" y="1294.2037711097896"/>
      <point x="229.69310393135873" y="1072.2760923029882" type="curve" smooth="yes"/>
      <point x="213.50577589096707" y="858.3688225289524"/>
      <point x="319.9595896381609" y="733.7279138116139"/>
      <point x="503.35520426350445" y="644.9702203039136" type="curve" smooth="yes"/>
      <point x="612.8027117234365" y="592.001078472711"/>
      <point x="682.6714418513674" y="508.6209089517058"/>
    </contour>
  </outline>
</glyph>
<glyph name="ampersand" format="2">
  <advance width="1081"/>
  <unicode hex="0026"/>
  <outline>
    <contour>
      <point x="382.86443976946913" y="808.3739825190459" type="line" smooth="yes"/>
      <point x="235.60261199942403" y="697.8321685101423"/>
      <point x="83.66068252149316" y="582.6338457901603"/>
      <point x="67.63846629761133" y="384.4592907560261" type="curve" smooth="yes"/>
      <point x="49.819732832497664" y="164.06408909489167"/>
      <point x="179.35772469929879" y="-14.791525660672924"/>
      <point x="408.35406522049294" y="-20.009502402769716" type="curve" smooth="yes"/>
      <point x="536.5424329904597" y="-22.93043956756746"/>
      <point x="674.672563014936" y="38.24321346250437"/>
      <point x="754.2389570655595" y="140.06257943789342" type="curve" smooth="yes"/>
      <point x="764.6941051193603" y="153.44180264787724"/>
      <point x="772.4259051184881" y="168.98865783889326"/>
      <point x="783.0734644159971" y="182.23346063021762" type="curve" smooth="yes"/>
      <point x="904.0947390957915" y="332.77527701282986"/>
      <point x="974.4004357331072" y="477.47181349383845"/>
      <point x="995.6867422548706" y="672.3648255928783" type="curve"/>
      <point x="843.845983720394" y="671.5455912294456" type="line"/>
      <point x="814.4860662645735" y="462.714078982823"/>
      <point x="680.2623071208274" y="121.3686453040533"/>
      <point x="416.84252195422346" y="130.94776000084477" type="curve" smooth="yes"/>
      <point x="276.1397924822473" y="136.0643368855736"/>
      <point x="228.54036359685566" y="259.1651063312436"/>
      <point x="244.63567808429997" y="383.9151818382876" type="curve" smooth="yes"/>
      <point x="257.6121539696343" y="484.4920514467444"/>
      <point x="326.39601855268893" y="572.3140686717915"/>
      <point x="401.389126351119" y="635.9935005680645" type="curve" smooth="yes"/>
      <point x="678.817894855517" y="851.54863941566" type="line" smooth="yes"/>
      <point x="786.7432167168907" y="935.3710026623231"/>
      <point x="870.3171435847173" y="1034.7795545198385"/>
      <point x="878.918639223866" y="1176.7010347274108" type="curve" smooth="yes"/>
      <point x="888.669950322271" y="1337.5940425377532"/>
      <point x="782.7960033308975" y="1472.7155648592484"/>
      <point x="617.2793169589726" y="1476.740910857704" type="curve" smooth="yes"/>
      <point x="406.0486760609734" y="1481.8780147577866"/>
      <point x="288.4014510073188" y="1309.8441430685589"/>
      <point x="273.71449490977517" y="1114.9074618057316" type="curve" smooth="yes"/>
      <point x="261.4923875933045" y="952.6861667676549"/>
      <point x="354.7859088572947" y="813.3710016490189"/>
      <point x="426.9689010310261" y="676.1557691755522" type="curve" smooth="yes"/>
      <point x="770.3557502677955" y="0.0" type="line"/>
      <point x="964.3227659715118" y="0.0" type="line"/>
      <point x="537.5140461459847" y="826.1684871824672" type="line" smooth="yes"/>
      <point x="489.53582312506455" y="916.3123486919777"/>
      <point x="430.65322837066407" y="1015.5806902170535"/>
      <point x="442.5792218446792" y="1122.0928688180668" type="curve" smooth="yes"/>
      <point x="452.33653544503835" y="1209.23636182198"/>
      <point x="500.98574428745974" y="1327.3331854292344"/>
      <point x="605.2526911159962" y="1326.831449650556" type="curve" smooth="yes"/>
      <point x="686.958305890053" y="1326.4382797007493"/>
      <point x="722.4831504766153" y="1250.1624603305777"/>
      <point x="715.9151284153429" y="1177.6957699772147" type="curve" smooth="yes"/>
      <point x="707.2083823137992" y="1081.6319827609318"/>
      <point x="654.3768268840055" y="1019.8134484870501"/>
      <point x="581.1393296482819" y="962.8544868643746" type="curve" smooth="yes"/>
    </contour>
  </outline>
</glyph>
<glyph name="parenleft" format="2">
  <advance width="624"/>
  <unicode hex="0028"/>
  <guideline x="0.0" y="901.0" angle="0.0" identifier="xkWA30c2l0"/>
  <guideline x="0.0" y="555.0" angle="0.0" identifier="rsrqU0FA2t"/>
  <outline>
    <contour>
      <point x="123.38861156458648" y="577.1636283352879" type="line" smooth="yes"/>
      <point x="77.08884273560835" y="244.79835954505404"/>
      <point x="103.06091510975864" y="-226.9421577148897"/>
      <point x="376.9345105897774" y="-469.2477708497204" type="curve"/>
      <point x="422.76122214007887" y="-359.2435055469559" type="line"/>
      <point x="222.94194999894705" y="-126.16794310636979"/>
      <point x="256.65878121193407" y="301.94265254811"/>
      <point x="297.19109250467824" y="578.5132726767481" type="curve" smooth="yes"/>
      <point x="299.3499020914436" y="592.8405679352513" type="line" smooth="yes"/>
      <point x="350.85090762125947" y="929.0160456812341"/>
      <point x="457.3947174954257" y="1284.02528224333"/>
      <point x="716.2966250954418" y="1520.1668203500224" type="curve"/>
      <point x="691.057944351737" y="1643.9947308899114" type="line"/>
      <point x="346.4858738929793" y="1428.9240423822393"/>
      <point x="181.57791825232238" y="968.4033272246056"/>
      <point x="125.01442239608915" y="588.5090178660079" type="curve" smooth="yes"/>
    </contour>
  </outline>
</glyph>
<glyph name="parenright" format="2">
  <advance width="633"/>
  <unicode hex="0029"/>
  <guideline x="0.0" y="901.0" angle="0.0" identifier="n1OTMifBMn"/>
  <guideline x="0.0" y="555.0" angle="0.0" identifier="8KlafzJZS2"/>
  <outline>
    <contour>
      <point x="496.74913668091676" y="597.2014969892056" type="line" smooth="yes"/>
      <point x="542.4392100414907" y="928.9438233016749"/>
      <point x="515.9302446334964" y="1400.1749645592565"/>
      <point x="242.9765818201722" y="1642.235754070004" type="curve"/>
      <point x="196.92266941950368" y="1531.2461190685365" type="line"/>
      <point x="391.39317070649065" y="1298.1371686612297"/>
      <point x="364.28100740643737" y="870.0161250059849"/>
      <point x="323.9928697515187" y="595.4136175551705" type="curve" smooth="yes"/>
      <point x="321.8216004345198" y="581.076795562205" type="line" smooth="yes"/>
      <point x="269.66170767866737" y="241.65454148382048"/>
      <point x="161.4225081125801" y="-116.94175686389156"/>
      <point x="-97.68809216575833" y="-357.26545696058054" type="curve"/>
      <point x="-72.77699266545044" y="-470.8675651538792" type="line"/>
      <point x="274.8094336902155" y="-262.17855889583757"/>
      <point x="439.6197758587793" y="208.898185065743"/>
      <point x="495.1459841138569" y="585.8428993253472" type="curve" smooth="yes"/>
    </contour>
  </outline>
</glyph>
<glyph name="asterisk" format="2">
  <advance width="856"/>
  <unicode hex="002A"/>
  <guideline x="0.0" y="901.0" angle="0.0" identifier="j09WrW0DD0"/>
  <guideline x="0.0" y="555.0" angle="0.0" identifier="ou6eTRaAJI"/>
  <outline>
    <contour>
      <point x="143.31988271218069" y="716.0092523383513" type="line"/>
      <point x="257.11134715363295" y="618.5781596783887" type="line"/>
      <point x="480.2652461795092" y="896.9100923671747" type="line"/>
      <point x="609.9475607381958" y="608.2798364774605" type="line"/>
      <point x="738.0818975316588" y="694.9138656701232" type="line"/>
      <point x="591.632330876304" y="969.7330937194512" type="line"/>
      <point x="907.095810094827" y="1060.932772919673" type="line"/>
      <point x="888.2666371706846" y="1220.574597581322" type="line"/>
      <point x="584.4334911896545" y="1112.019507415071" type="line"/>
      <point x="654.458233886158" y="1456.9296967990308" type="line"/>
      <point x="505.33151014855" y="1456.9279752351913" type="line"/>
      <point x="454.0554462590478" y="1109.1334342768776" type="line"/>
      <point x="176.18442462298407" y="1221.4272803495842" type="line"/>
      <point x="107.10308335700525" y="1078.2123199595899" type="line"/>
      <point x="383.8228699166572" y="988.3766498231662" type="line"/>
    </contour>
  </outline>
</glyph>
<glyph name="four" format="2">
  <advance width="981"/>
  <unicode hex="0034"/>
  <guideline x="0.0" y="901.0" angle="0.0" identifier="pxzQjXPzjp"/>
  <guideline x="0.0" y="651.0" angle="0.0" identifier="oud11NkoVZ"/>
  <outline>
    <contour>
      <point x="903.7117248363608" y="489.91750228578024" type="line"/>
      <point x="236.1035944871636" y="490.2911436554069" type="line"/>
      <point x="683.1591394634697" y="1158.8072400312617" type="line"/>
      <point x="875.3802480405175" y="1455.6566245611368" type="line"/>
      <point x="725.9636429334241" y="1455.6754389525593" type="line"/>
      <point x="33.03929723839856" y="457.2565709929858" type="line"/>
      <point x="12.268479217235068" y="338.1810015855165" type="line"/>
      <point x="876.7343130743994" y="338.07771475362426" type="line"/>
    </contour>
    <contour>
      <point x="913.8817889349823" y="1455.936761588818" type="line"/>
      <point x="740.8598881125223" y="1455.9448109222137" type="line"/>
      <point x="488.06487355025035" y="0.0" type="line"/>
      <point x="661.0867743727113" y="0.0" type="line"/>
    </contour>
  </outline>
</glyph>
<glyph name="five" format="2">
  <advance width="981"/>
  <unicode hex="0035"/>
  <guideline x="0.0" y="1658.0" angle="0.0" identifier="u6xCQOZVXL"/>
  <guideline x="0.0" y="1743.0" angle="0.0" identifier="SZIBNKslJD"/>
  <outline>
    <contour>
      <point x="344.67584688436716" y="694.7373713277435" type="line"/>
      <point x="400.6552629889329" y="748.2426652474949"/>
      <point x="452.6004209850547" y="787.5308104498656"/>
      <point x="533.9105914575558" y="785.3707807990255" type="curve" smooth="yes"/>
      <point x="693.2856567664579" y="781.1369332413178"/>
      <point x="715.7564215420415" y="593.1285325283195"/>
      <point x="704.134506415667" y="469.8085294050758" type="curve" smooth="yes"/>
      <point x="690.500261167581" y="325.13571530394904"/>
      <point x="621.2216994680155" y="127.38225409838968"/>
      <point x="444.311151861613" y="132.21157750489343" type="curve" smooth="yes"/>
      <point x="306.2562943022804" y="135.98021405038733"/>
      <point x="272.20105135757" y="268.3973901263445"/>
      <point x="268.2778418614294" y="383.71631553913727" type="curve"/>
      <point x="106.29956194267223" y="383.9725291247911" type="line"/>
      <point x="109.8509450438357" y="178.8707248752299"/>
      <point x="205.67730036362906" y="-15.630841502138036"/>
      <point x="433.64136718371924" y="-21.355324139767568" type="curve" smooth="yes"/>
      <point x="711.835156886123" y="-28.341142305156716"/>
      <point x="856.2330180657858" y="222.169112267677"/>
      <point x="877.9666721864056" y="470.74901644615653" type="curve" smooth="yes"/>
      <point x="895.8353339087151" y="675.1228504124946"/>
      <point x="839.6949344056998" y="949.2514019038929"/>
      <point x="585.2179073718022" y="951.0025621361526" type="curve" smooth="yes"/>
      <point x="515.4276585899996" y="951.4828173076731"/>
      <point x="452.3631519983602" y="926.9859214274662"/>
      <point x="395.27298713829083" y="888.4358465343898" type="curve"/>
      <point x="498.13754007212447" y="1284.878211302165" type="line"/>
      <point x="966.9216989187468" y="1285.0679130347596" type="line"/>
      <point x="994.2718619647834" y="1455.9299650087992" type="line"/>
      <point x="376.9417046892539" y="1455.9038726540375" type="line"/>
      <point x="203.30568747047386" y="734.1163126391365" type="line"/>
    </contour>
  </outline>
</glyph>
<glyph name="six" format="2">
  <advance width="981"/>
  <unicode hex="0036"/>
  <outline>
    <contour>
      <point x="823.4928843155707" y="1459.1907245956172" type="line" smooth="yes"/>
      <point x="343.5339289315559" y="1458.4047356085994"/>
      <point x="189.25038666287557" y="1033.7933360078675"/>
      <point x="131.61441571099672" y="625.7558526259448" type="curve" smooth="yes"/>
      <point x="119.83206898085186" y="538.7811374577824" type="line" smooth="yes"/>
      <point x="93.09388538092526" y="316.9655858957299"/>
      <point x="148.09824796581364" y="-12.716681889220979"/>
      <point x="429.71761947776326" y="-20.47125032622649" type="curve" smooth="yes"/>
      <point x="705.6592812713918" y="-28.069479416475435"/>
      <point x="841.6035318858289" y="241.59663637921895"/>
      <point x="864.1802788865708" y="481.45948994940943" type="curve" smooth="yes"/>
      <point x="883.1863272679241" y="683.3860562388179"/>
      <point x="827.7905369701487" y="946.9475993336787"/>
      <point x="580.7168569049679" y="955.2752357069439" type="curve" smooth="yes"/>
      <point x="343.34615638136484" y="963.275832448395"/>
      <point x="235.97283098057267" y="734.7229654352466"/>
      <point x="190.14617263147818" y="536.8506616250221" type="curve"/>
      <point x="278.35848606387884" y="536.2523610750607" type="line"/>
      <point x="309.5422435188252" y="656.4792584585182"/>
      <point x="400.65624206824936" y="808.2868749029896"/>
      <point x="544.0206922916793" y="803.4536857657484" type="curve" smooth="yes"/>
      <point x="698.2013664046088" y="798.255853540718"/>
      <point x="702.7689760868768" y="583.3659275847133"/>
      <point x="692.1367266716597" y="473.1288259888799" type="curve" smooth="yes"/>
      <point x="678.937060252463" y="336.2722765176514"/>
      <point x="613.4532190861703" y="124.64513362126648"/>
      <point x="439.92933981955923" y="132.36037286021775" type="curve" smooth="yes"/>
      <point x="271.8280837572661" y="139.83451078503967"/>
      <point x="282.19601007657485" y="424.61339746520156"/>
      <point x="294.18948291799035" y="532.0249543719619" type="curve" smooth="yes"/>
      <point x="323.92701981507986" y="747.0500810567396" type="line" smooth="yes"/>
      <point x="364.8499124389766" y="1024.712498188557"/>
      <point x="493.11562407534615" y="1306.0550108588357"/>
      <point x="815.5970542530855" y="1302.252801767808" type="curve" smooth="yes"/>
      <point x="825.6731573100625" y="1301.8576783002309" type="line"/>
      <point x="841.0667014550046" y="1459.0175559319182" type="line"/>
    </contour>
  </outline>
</glyph>
<glyph name="nine" format="2">
  <advance width="981"/>
  <unicode hex="0039"/>
  <guideline x="0.0" y="555.0" angle="0.0" identifier="dD5r3fe812"/>
  <guideline x="0.0" y="901.0" angle="0.0" identifier="ea0T0TdRHm"/>
  <outline>
    <contour>
      <point x="194.56287855505025" y="154.14732988401835" type="line"/>
      <point x="181.8380310316686" y="-3.819153067066244" type="line"/>
      <point x="199.20331576116712" y="-3.8784981115411226" type="line" smooth="yes"/>
      <point x="682.4306213422888" y="-0.5162864804143368"/>
      <point x="829.6921838695074" y="407.52625413636633"/>
      <point x="886.8583556489481" y="820.222686064323" type="curve" smooth="yes"/>
      <point x="895.7794693307957" y="887.2178045608144" type="line" smooth="yes"/>
      <point x="923.8645874332127" y="1115.8421532120294"/>
      <point x="892.2022353504747" y="1468.666654890323"/>
      <point x="592.0402243199641" y="1476.2868115528063" type="curve" smooth="yes"/>
      <point x="314.4519773318392" y="1483.3338923024705"/>
      <point x="182.34915295626232" y="1205.5854247395982"/>
      <point x="159.49272840052026" y="966.4624076439405" type="curve" smooth="yes"/>
      <point x="140.55328106121715" y="768.3186525323941"/>
      <point x="191.49215572434824" y="491.8288734717183"/>
      <point x="439.5726618789338" y="486.0997136407767" type="curve" smooth="yes"/>
      <point x="671.719021947999" y="480.73853624871583"/>
      <point x="810.4533334408962" y="743.2932901281113"/>
      <point x="834.1301353757327" y="942.0434340437811" type="curve"/>
      <point x="754.9442990220193" y="941.0423768987592" type="line"/>
      <point x="724.9663344422338" y="817.515614778778"/>
      <point x="629.3426273044688" y="634.2587441094249"/>
      <point x="477.7078163246896" y="639.70201433407" type="curve" smooth="yes"/>
      <point x="322.94965385485796" y="645.2574042366244"/>
      <point x="319.35778948237794" y="865.9231874256146"/>
      <point x="329.94911411829696" y="975.7924385335053" type="curve" smooth="yes"/>
      <point x="343.00961126342366" y="1111.275684469088"/>
      <point x="408.0618854229557" y="1331.6743282908208"/>
      <point x="581.8994772036988" y="1323.9528427466194" type="curve" smooth="yes"/>
      <point x="751.3067158976249" y="1316.4281437948066"/>
      <point x="737.8828835217104" y="1019.0835103354408"/>
      <point x="725.9919753002819" y="912.8181022989289" type="curve" smooth="yes"/>
      <point x="695.1614985751434" y="688.9176358057757" type="line" smooth="yes"/>
      <point x="653.9926305269918" y="403.807426322152"/>
      <point x="533.4083971231099" y="149.00326034366438"/>
      <point x="205.87073127866404" y="153.68606690592642" type="curve" smooth="yes"/>
    </contour>
  </outline>
</glyph>
<glyph name="less" format="2">
  <advance width="886"/>
  <unicode hex="003C"/>
  <guideline x="0.0" y="901.0" angle="0.0" identifier="80TjJaAd5L"/>
  <guideline x="0.0" y="555.0" angle="0.0" identifier="XnoO3Dw9B0"/>
  <outline>
    <contour>
      <point x="197.32848474820474" y="671.6178780982422" type="line"/>
      <point x="91.8488780847663" y="688.178211623878" type="line"/>
      <point x="72.45132639859882" y="580.7348703491701" type="line"/>
      <point x="671.7193222394466" y="201.3199071860295" type="line"/>
      <point x="704.5378829297777" y="386.7135347304509" type="line"/>
    </contour>
    <contour>
      <point x="792.21943756361" y="896.7948694453605" type="line"/>
      <point x="828.9316264161345" y="1103.525975649815" type="line"/>
      <point x="98.08766902884624" y="725.7485167362755" type="line"/>
      <point x="76.36426021649827" y="602.8319424693443" type="line"/>
      <point x="208.37074274830962" y="618.0665390382394" type="line"/>
    </contour>
  </outline>
</glyph>
<glyph name="equal" format="2">
  <advance width="952"/>
  <unicode hex="003D"/>
  <outline>
    <contour>
      <point x="889.7947930264527" y="974.9077224750948" type="line"/>
      <point x="209.4477587563003" y="974.9164377205097" type="line"/>
      <point x="180.87198739463378" y="814.0922483277004" type="line"/>
      <point x="861.2190216647857" y="814.0835330822835" type="line"/>
    </contour>
    <contour>
      <point x="817.89544938056" y="559.9077292480802" type="line"/>
      <point x="137.54841511039092" y="559.9164444934922" type="line"/>
      <point x="108.97264374871718" y="399.09225510067154" type="line"/>
      <point x="789.319678018882" y="399.08353985523047" type="line"/>
    </contour>
  </outline>
</glyph>
<glyph name="question" format="2">
  <advance width="839"/>
  <unicode hex="003F"/>
  <guideline x="0.0" y="1658.0" angle="0.0" identifier="FeNtWhFhbY"/>
  <guideline x="0.0" y="555.0" angle="0.0" identifier="4zcH9AFyPu"/>
  <outline>
    <contour>
      <point x="448.212846640331" y="410.013822676683" type="line"/>
      <point x="463.151701025753" y="505.92637564545583"/>
      <point x="492.6586989824669" y="593.0065722086829"/>
      <point x="563.0174323604708" y="662.8000576813338" type="curve" smooth="yes"/>
      <point x="688.9490964724904" y="787.7200121456751"/>
      <point x="822.7998360527972" y="917.1448363545915"/>
      <point x="839.8422691125013" y="1104.4461286108756" type="curve" smooth="yes"/>
      <point x="857.6831718314958" y="1300.5228344767431"/>
      <point x="765.9037388511039" y="1471.742616443663"/>
      <point x="553.7227455250659" y="1476.8278110542312" type="curve" smooth="yes"/>
      <point x="336.51945723269944" y="1482.0333715227168"/>
      <point x="194.12647019071466" y="1320.651174609567"/>
      <point x="170.2007764547442" y="1115.1711252816967" type="curve"/>
      <point x="341.8262251127009" y="1116.2537800011644" type="line"/>
      <point x="361.5449742105257" y="1218.7913460205914"/>
      <point x="423.6563414132338" y="1320.0806069579826"/>
      <point x="541.3987274187754" y="1316.8086654323577" type="curve" smooth="yes"/>
      <point x="657.2735702996695" y="1313.5886210366255"/>
      <point x="674.4757858719418" y="1193.2739398961073"/>
      <point x="663.0561606567785" y="1100.3680950644828" type="curve" smooth="yes"/>
      <point x="647.2389385672649" y="971.6850294272273"/>
      <point x="559.0147539939741" y="885.3433781218453"/>
      <point x="473.7279069371609" y="795.9808288948059" type="curve" smooth="yes"/>
      <point x="359.60855097524893" y="676.4079179849786"/>
      <point x="298.0134019962551" y="575.652324488475"/>
      <point x="279.39099931296795" y="409.12138624731006" type="curve"/>
    </contour>
    <contour>
      <point x="212.5439936949195" y="91.27914983472297" type="curve" smooth="yes"/>
      <point x="210.51871452796968" y="33.42460312751941"/>
      <point x="247.70838392834114" y="-14.934927524170138"/>
      <point x="308.29864583840026" y="-13.32284565074263" type="curve" smooth="yes"/>
      <point x="368.3211722333778" y="-11.725869111141252"/>
      <point x="406.12891008094687" y="36.93163469889115"/>
      <point x="408.34212253616045" y="94.33005773345718" type="curve" smooth="yes"/>
      <point x="410.6116450729298" y="153.18885113356728"/>
      <point x="373.91704447913935" y="202.7772884174076"/>
      <point x="311.8581008262496" y="201.00097465537513" type="curve" smooth="yes"/>
      <point x="251.3455257938047" y="199.26892261776123"/>
      <point x="214.55304385183146" y="148.6700952594122"/>
    </contour>
  </outline>
</glyph>
<glyph name="at" format="2">
  <advance width="1528"/>
  <unicode hex="0040"/>
  <outline>
    <contour>
      <point x="1417.6243268812889" y="507.9107058836421" type="curve" smooth="yes"/>
      <point x="1480.9369182589758" y="890.0017393357477"/>
      <point x="1426.076264038333" y="1422.2996646815864"/>
      <point x="933.3867056226588" y="1431.2060817359006" type="curve" smooth="yes"/>
      <point x="436.3232451231197" y="1440.1915664210348"/>
      <point x="161.3144283013678" y="893.6468179363246"/>
      <point x="88.80854271962654" y="472.63655907858004" type="curve" smooth="yes"/>
      <point x="22.62769491903927" y="88.35305381005355"/>
      <point x="79.84610596744523" y="-446.0320534976932"/>
      <point x="576.1149571011572" y="-452.69412204397355" type="curve" smooth="yes"/>
      <point x="683.5227199736887" y="-454.13599750527794"/>
      <point x="799.6796554152503" y="-429.36233632648845"/>
      <point x="888.2141264501736" y="-366.41495385300084" type="curve"/>
      <point x="864.3453239871383" y="-250.3923261266479" type="line"/>
      <point x="776.7422718684047" y="-298.69898667755115"/>
      <point x="678.6675462854982" y="-328.3914887003944"/>
      <point x="577.9426476837824" y="-327.15903535766233" type="curve" smooth="yes"/>
      <point x="160.64465134868675" y="-322.0530455017457"/>
      <point x="170.2549205016826" y="174.33084376412904"/>
      <point x="223.38497945773486" y="472.41077770891235" type="curve" smooth="yes"/>
      <point x="286.81104317160083" y="828.2552328759083"/>
      <point x="500.3698011960232" y="1309.6515593676602"/>
      <point x="929.7581822119992" y="1300.4113860497755" type="curve" smooth="yes"/>
      <point x="1360.776052827699" y="1291.1361471199953"/>
      <point x="1351.8788985193494" y="828.0369239973961"/>
      <point x="1299.5327432391123" y="507.95872128221527" type="curve" smooth="yes"/>
      <point x="1278.187213172739" y="377.4383638066572"/>
      <point x="1213.2025304042902" y="86.56608828812969"/>
      <point x="1030.709459235153" y="95.80648029399751" type="curve" smooth="yes"/>
      <point x="928.9750119130103" y="100.95772339454044"/>
      <point x="964.769691913691" y="269.8746387906904"/>
      <point x="974.8369460223084" y="328.4731660725851" type="curve"/>
      <point x="1107.7465099680792" y="883.8883066781721" type="line"/>
      <point x="969.6411699001433" y="883.8971155319854" type="line"/>
      <point x="836.4331022974094" y="329.4500440410673" type="line"/>
      <point x="811.1711482726171" y="188.72038791551225"/>
      <point x="819.0445831596323" y="-16.695225685042328"/>
      <point x="1005.7828599022266" y="-22.095592677528725" type="curve" smooth="yes"/>
      <point x="1272.1444294650735" y="-29.798620966243583"/>
      <point x="1382.349447212649" y="295.0270608739796"/>
    </contour>
    <contour>
      <point x="584.8684120233562" y="409.889259255904" type="curve" smooth="yes"/>
      <point x="609.1001975658239" y="555.410881041164"/>
      <point x="676.5523321372564" y="870.7843883313615"/>
      <point x="880.3677514868494" y="862.5685985446453" type="curve" smooth="yes"/>
      <point x="940.9277209896975" y="860.1274290761473"/>
      <point x="985.1334547806388" y="830.0390164193184"/>
      <point x="1021.8640480332458" y="784.2029384569851" type="curve"/>
      <point x="1105.0646646760692" y="879.9273769227142" type="line"/>
      <point x="1034.4813995839231" y="945.7232888668357"/>
      <point x="965.4411057779909" y="988.4810767443864"/>
      <point x="865.8692868753128" y="990.8167672864771" type="curve" smooth="yes"/>
      <point x="598.8706478172946" y="997.0798465680601"/>
      <point x="468.6464880201289" y="616.546296822367"/>
      <point x="433.62468214029855" y="410.72463173167665" type="curve" smooth="yes"/>
      <point x="409.364999945893" y="268.1515102611137"/>
      <point x="390.955429167796" y="-16.398526835677316"/>
      <point x="601.2677712912073" y="-22.736155976947888" type="curve" smooth="yes"/>
      <point x="769.5795912331167" y="-27.808126000743222"/>
      <point x="862.0441193577601" y="180.91498235828314"/>
      <point x="908.8341887549333" y="310.2570956364207" type="curve"/>
      <point x="857.6614406250134" y="382.0978182741384" type="line"/>
      <point x="829.1343874851398" y="302.30354444445163"/>
      <point x="770.4211705210436" y="114.57658013551821"/>
      <point x="655.774679392121" y="119.67718014450864" type="curve" smooth="yes"/>
      <point x="534.4198502399354" y="125.07623280254951"/>
      <point x="573.1744716437438" y="339.6624422465272"/>
    </contour>
  </outline>
</glyph>
<glyph name="A" format="2">
  <advance width="1146"/>
  <unicode hex="0041"/>
  <guideline x="0.0" y="901.0" angle="0.0" identifier="WFC7UyxV4m"/>
  <guideline x="0.0" y="555.0" angle="0.0" identifier="sxkZanso0T"/>
  <anchor x="749.1348455798801" y="1601" name="top"/>
  <anchor x="482.21076189018174" y="0" name="bottom"/>
  <anchor x="1298.952063516364" y="1600" name="top_dd"/>
  <anchor x="952.1784620390217" y="-407" name="bottom_dd"/>
  <anchor x="1299.1248455798802" y="1601" name="top0315"/>
  <anchor x="749.1348455798801" y="1601" name="parent_top"/>
  <outline>
    <contour>
      <point x="735.4097708832802" y="1316.9095717327752" type="line"/>
      <point x="760.8195121590301" y="1455.899956697137" type="line"/>
      <point x="641.5300720475636" y="1455.748566668729" type="line"/>
      <point x="-66.47115865826095" y="0.0" type="line"/>
      <point x="124.12617368813214" y="0.0" type="line"/>
    </contour>
    <contour>
      <point x="821.3374332733541" y="0.0" type="line"/>
      <point x="998.2066571235841" y="0.0" type="line"/>
      <point x="795.771117923031" y="1456.0110680856926" type="line"/>
      <point x="682.9097611817152" y="1455.9347636254254" type="line"/>
      <point x="663.7054615918937" y="1338.3891075683473" type="line"/>
    </contour>
    <contour>
      <point x="913.184198758883" y="538.9099471360499" type="line"/>
      <point x="230.91169465914925" y="538.9187061451383" type="line"/>
      <point x="202.86978981620638" y="381.09140890557484" type="line"/>
      <point x="885.1422939159324" y="381.08264989645755" type="line"/>
    </contour>
  </outline>
</glyph>
<glyph name="C" format="2">
  <advance width="1126"/>
  <unicode hex="0043"/>
  <guideline x="0.0" y="901.0" angle="0.0" identifier="6dtFjHYh3N"/>
  <guideline x="0.0" y="555.0" angle="0.0" identifier="rf2sUs9Hxo"/>
  <anchor x="751.7538716124038" y="1633" name="top"/>
  <anchor x="467.8729412550181" y="-10" name="bottom"/>
  <anchor x="1279.552063516364" y="1600" name="top_dd"/>
  <anchor x="932.7784620390216" y="-407" name="bottom_dd"/>
  <anchor x="1285.2538716124038" y="1633" name="top0315"/>
  <anchor x="751.7538716124038" y="1633" name="parent_top"/>
  <outline>
    <contour>
      <point x="832.4470841713595" y="461.9645035598476" type="line"/>
      <point x="791.7455259438485" y="275.4779615723837"/>
      <point x="716.74304525676" y="127.17367925304453"/>
      <point x="502.396564541845" y="136.3912141960625" type="curve" smooth="yes"/>
      <point x="271.49464311449924" y="146.3206822333628"/>
      <point x="279.0582411915558" y="424.6232403657982"/>
      <point x="302.1185621765539" y="593.1711544965051" type="curve" smooth="yes"/>
      <point x="344.31844750791663" y="865.3257304947949" type="line" smooth="yes"/>
      <point x="375.98371023668943" y="1072.9594143840377"/>
      <point x="473.26483378735486" y="1327.0695069365247"/>
      <point x="724.3381588097686" y="1318.8598120847703" type="curve" smooth="yes"/>
      <point x="915.3388302036799" y="1312.614396613078"/>
      <point x="933.4027361085671" y="1147.1018540713767"/>
      <point x="927.6629105975792" y="988.7498470921754" type="curve"/>
      <point x="1107.61757922709" y="988.492538895822" type="line"/>
      <point x="1118.3057301942101" y="1246.3205842132654"/>
      <point x="1021.1772546816997" y="1469.6502388069907"/>
      <point x="734.8528328599618" y="1476.1913093091719" type="curve" smooth="yes"/>
      <point x="385.28591723634446" y="1484.1771521715305"/>
      <point x="210.97138559107597" y="1168.314435760428"/>
      <point x="164.44291650828956" y="862.6203555116903" type="curve" smooth="yes"/>
      <point x="122.42210689889329" y="593.6846157497675" type="line" smooth="yes"/>
      <point x="86.49250475854761" y="322.71288057292827"/>
      <point x="163.5713321367125" y="-12.066541008498534"/>
      <point x="492.04801796851234" y="-20.442173831330035" type="curve" smooth="yes"/>
      <point x="793.5103964987595" y="-28.128984802625926"/>
      <point x="966.8099759335504" y="182.02999665212832"/>
      <point x="1007.4095007437484" y="463.6414094053903" type="curve"/>
    </contour>
  </outline>
</glyph>
<glyph name="E" format="2">
  <advance width="987"/>
  <unicode hex="0045"/>
  <anchor x="698.65544827856" y="1612" name="top"/>
  <anchor x="421.85858252534535" y="10" name="bottom"/>
  <anchor x="1140.8420635163639" y="1600" name="top_dd"/>
  <anchor x="794.0684620390216" y="-407" name="bottom_dd"/>
  <anchor x="1142.91544827856" y="1612" name="top0315"/>
  <anchor x="698.65544827856" y="1612" name="parent_top"/>
  <outline>
    <contour>
      <point x="836.3373526072047" y="156.91296970089476" type="line"/>
      <point x="221.94624596021794" y="156.92164536466439" type="line"/>
      <point x="194.08307072036558" y="0.0" type="line"/>
      <point x="808.4741773673503" y="0.0" type="line"/>
    </contour>
    <contour>
      <point x="480.29655168105285" y="1455.9444263879625" type="line"/>
      <point x="300.47850682754756" y="1455.9536287430305" type="line"/>
      <point x="47.6787663488286" y="0.0" type="line"/>
      <point x="227.49681120233606" y="0.0" type="line"/>
    </contour>
    <contour>
      <point x="870.4814344655285" y="829.9102325066949" type="line"/>
      <point x="338.54939398756886" y="829.9188613242615" type="line"/>
      <point x="310.6858525894091" y="673.0884933703146" type="line"/>
      <point x="842.6178930673741" y="673.0798645527461" type="line"/>
    </contour>
    <contour>
      <point x="1051.6915112421339" y="1455.9066573017194" type="line"/>
      <point x="447.00347825598703" y="1455.9153278614026" type="line"/>
      <point x="418.963523625967" y="1298.091008077747" type="line"/>
      <point x="1023.6515566121177" y="1298.0823375180667" type="line"/>
    </contour>
  </outline>
</glyph>
<glyph name="F" format="2">
  <advance width="955"/>
  <unicode hex="0046"/>
  <anchor x="698.65544827856" y="1612" name="top"/>
  <anchor x="350.0785825253454" y="10" name="bottom"/>
  <anchor x="1108.8320635163636" y="1600" name="top_dd"/>
  <anchor x="762.0584620390216" y="-407" name="bottom_dd"/>
  <anchor x="1110.90544827856" y="1612" name="top0315"/>
  <anchor x="698.65544827856" y="1612" name="parent_top"/>
  <outline>
    <contour>
      <point x="480.29663143169023" y="1455.9440974052743" type="line"/>
      <point x="300.47875182219747" y="1455.9532967308614" type="line"/>
      <point x="47.67877896234002" y="0.0" type="line"/>
      <point x="227.49665857183044" y="0.0" type="line"/>
    </contour>
    <contour>
      <point x="843.1498069129291" y="800.91093417527" type="line"/>
      <point x="331.5869945350811" y="800.9195543656832" type="line"/>
      <point x="303.5458196314054" y="643.0879874914862" type="line"/>
      <point x="815.1086320092603" y="643.0793673010786" type="line"/>
    </contour>
    <contour>
      <point x="1037.1426618224227" y="1455.9085829379883" type="line"/>
      <point x="445.0627249353978" y="1455.91725062667" type="line"/>
      <point x="417.0225976107032" y="1298.0893604624914" type="line"/>
      <point x="1009.1025344977431" y="1298.0806927738226" type="line"/>
    </contour>
  </outline>
</glyph>
<glyph name="G" format="2">
  <advance width="1174"/>
  <unicode hex="0047"/>
  <guideline x="0.0" y="901.0" angle="0.0" identifier="F3boHGfDMq"/>
  <guideline x="0.0" y="555.0" angle="0.0" identifier="RRRvHXlong"/>
  <anchor x="740.1138716124037" y="1633" name="top"/>
  <anchor x="508.78572331853445" y="-9" name="bottom"/>
  <anchor x="1327.0820635163636" y="1600" name="top_dd"/>
  <anchor x="980.3084620390216" y="-407" name="bottom_dd"/>
  <anchor x="1332.7838716124038" y="1633" name="top0315"/>
  <anchor x="740.1138716124037" y="1633" name="parent_top"/>
  <outline>
    <contour>
      <point x="1058.2657883837073" y="724.8460881098315" type="line"/>
      <point x="622.0216358773182" y="724.9276256197246" type="line"/>
      <point x="594.3949910501236" y="569.097290540825" type="line"/>
      <point x="853.9622916053077" y="568.9174729486816" type="line"/>
      <point x="792.5034805747815" y="232.79215896826568" type="line"/>
      <point x="711.1814222873151" y="170.67966795699428"/>
      <point x="634.8523146875394" y="135.86081663478092"/>
      <point x="529.0613037264443" y="137.54670138810678" type="curve" smooth="yes"/>
      <point x="288.01468890497296" y="141.3880184251259"/>
      <point x="277.24036574313516" y="409.265159208117"/>
      <point x="301.1731771544822" y="591.1188300873218" type="curve" smooth="yes"/>
      <point x="343.3108465913142" y="867.3529599210947" type="line" smooth="yes"/>
      <point x="375.1783229607772" y="1085.4447120830378"/>
      <point x="458.86433723182273" y="1328.2306312594812"/>
      <point x="721.2388949291337" y="1318.2920839986184" type="curve" smooth="yes"/>
      <point x="891.4755933346848" y="1311.8436482680904"/>
      <point x="936.407886494946" y="1180.1607278452154"/>
      <point x="934.7417489245752" y="1029.547454544673" type="curve"/>
      <point x="1113.7453495647908" y="1029.2966418567294" type="line"/>
      <point x="1118.848172796981" y="1281.3160563850292"/>
      <point x="998.4558626055095" y="1469.4357116915783"/>
      <point x="731.2704383267773" y="1475.9261528650254" type="curve" smooth="yes"/>
      <point x="364.8912222149206" y="1484.8261995489602"/>
      <point x="211.29973023198104" y="1186.7363915835795"/>
      <point x="163.55142992230037" y="864.8414527868747" type="curve" smooth="yes"/>
      <point x="121.52822704073172" y="591.6654470105574" type="line" smooth="yes"/>
      <point x="83.82806306131468" y="298.2071573072431"/>
      <point x="179.53998896456454" y="-15.176653003178945"/>
      <point x="521.9979143911787" y="-20.148667575484257" type="curve" smooth="yes"/>
      <point x="696.953845375773" y="-22.68878527690114"/>
      <point x="867.3748351739248" y="40.15954629220363"/>
      <point x="974.2723518940034" y="182.74722312378705" type="curve"/>
    </contour>
  </outline>
</glyph>
<glyph name="H" format="2">
  <advance width="1232"/>
  <unicode hex="0048"/>
  <anchor x="774.3154482785601" y="1612" name="top"/>
  <anchor x="499.4585825253454" y="10" name="bottom"/>
  <anchor x="1385.282063516364" y="1600" name="top_dd"/>
  <anchor x="1038.5084620390217" y="-407" name="bottom_dd"/>
  <anchor x="1387.35544827856" y="1612" name="top0315"/>
  <anchor x="774.3154482785601" y="1612" name="parent_top"/>
  <outline>
    <contour>
      <point x="959.7247444443801" y="829.909803305802" type="line"/>
      <point x="346.30641366016914" y="829.9184629519667" type="line"/>
      <point x="318.4438323459473" y="673.0883364588418" type="line"/>
      <point x="931.8621631301507" y="673.0796768126693" type="line"/>
    </contour>
    <contour>
      <point x="480.2954766241669" y="1455.940828610633" type="line"/>
      <point x="300.4802467770722" y="1455.949991467628" type="line"/>
      <point x="47.68068368768296" y="0.0" type="line"/>
      <point x="227.495913534774" y="0.0" type="line"/>
    </contour>
    <contour>
      <point x="1226.2250467730541" y="1455.9408286105843" type="line"/>
      <point x="1046.4098169259362" y="1455.949991467568" type="line"/>
      <point x="793.6102538366116" y="0.0" type="line"/>
      <point x="973.4254836837231" y="0.0" type="line"/>
    </contour>
  </outline>
</glyph>
<glyph name="K" format="2">
  <advance width="1083"/>
  <unicode hex="004B"/>
  <anchor x="474.48114760665453" y="90" name="bottom"/>
  <anchor x="684.0781531987819" y="1595" name="top"/>
  <anchor x="1236.8720635163636" y="1600" name="top_dd"/>
  <anchor x="890.0984620390216" y="-407" name="bottom_dd"/>
  <anchor x="1236.0081531987819" y="1595" name="top0315"/>
  <anchor x="684.0781531987819" y="1595" name="parent_top"/>
  <outline>
    <contour>
      <point x="480.2914715911012" y="1455.9348619485745" type="line"/>
      <point x="300.47969434664395" y="1455.9430321537832" type="line"/>
      <point x="47.68442590466894" y="0.0" type="line"/>
      <point x="227.4962031491226" y="0.0" type="line"/>
    </contour>
    <contour>
      <point x="1197.0600234251585" y="1455.6146156431053" type="line"/>
      <point x="968.9998190921319" y="1455.6651306937856" type="line"/>
      <point x="499.87529828573497" y="918.4072303597947" type="line"/>
      <point x="245.3967012583542" y="639.8149487009331" type="line"/>
      <point x="240.74303106739774" y="417.4296905772371" type="line"/>
      <point x="588.9883334630185" y="772.2294946491685" type="line"/>
    </contour>
    <contour>
      <point x="765.0790343236715" y="0.0" type="line"/>
      <point x="966.5701805367207" y="0.0" type="line"/>
      <point x="593.0554624137258" y="864.0461847730946" type="line"/>
      <point x="467.3604018755416" y="719.9655063138723" type="line"/>
    </contour>
  </outline>
</glyph>
<glyph name="L" format="2">
  <advance width="945"/>
  <unicode hex="004C"/>
  <anchor x="410.71093526229834" y="1596" name="top"/>
  <anchor x="421.85858252534535" y="10" name="bottom"/>
  <anchor x="1098.1620635163638" y="1600" name="top_dd"/>
  <anchor x="751.3884620390216" y="-407" name="bottom_dd"/>
  <anchor x="1097.4709352622983" y="1596" name="top0315"/>
  <anchor x="410.71093526229834" y="1596" name="parent_top"/>
  <outline>
    <contour>
      <point x="809.1666108837477" y="156.9106993283816" type="line"/>
      <point x="221.95462634008982" y="156.91938075633422" type="line"/>
      <point x="194.09470049069859" y="0.0" type="line"/>
      <point x="781.3066850343517" y="0.0" type="line"/>
    </contour>
    <contour>
      <point x="480.29346247937326" y="1455.9413274247497" type="line"/>
      <point x="300.480624647745" y="1455.9500713404375" type="line"/>
      <point x="47.68276044853302" y="0.0" type="line"/>
      <point x="227.49559828016373" y="0.0" type="line"/>
    </contour>
  </outline>
</glyph>
<glyph name="N" format="2">
  <advance width="1231"/>
  <unicode hex="004E"/>
  <anchor x="784.0548455798802" y="1601" name="top"/>
  <anchor x="503.3385825253454" y="10" name="bottom"/>
  <anchor x="1384.3120635163637" y="1600" name="top_dd"/>
  <anchor x="1037.5384620390216" y="-407" name="bottom_dd"/>
  <anchor x="1384.4848455798801" y="1601" name="top0315"/>
  <anchor x="784.0548455798802" y="1601" name="parent_top"/>
  <outline>
    <contour>
      <point x="1225.2530270995735" y="1455.935236258581" type="line"/>
      <point x="1047.3695267267017" y="1455.94259317964" type="line"/>
      <point x="850.1943956263422" y="321.90860484996216" type="line"/>
      <point x="474.6675443110663" y="1456.0424539996327" type="line"/>
      <point x="300.40298580304733" y="1455.9373228915317" type="line"/>
      <point x="47.680517560622846" y="0.0" type="line"/>
      <point x="227.50008942290538" y="0.0" type="line"/>
      <point x="424.1685800685591" y="1131.0894688756212" type="line"/>
      <point x="797.2906239398869" y="0.0" type="line"/>
      <point x="972.5309687811575" y="0.0" type="line"/>
    </contour>
  </outline>
</glyph>
<glyph name="O" format="2">
  <advance width="1194"/>
  <unicode hex="004F"/>
  <guideline x="0.0" y="901.0" angle="0.0" identifier="TXbYC3nNtt"/>
  <guideline x="0.0" y="555.0" angle="0.0" identifier="dtgCfRHsIj"/>
  <guideline x="748.0" y="0.0" angle="90.0" identifier="llpDDZQbZC"/>
  <anchor x="772.7604097069129" y="1603" name="top"/>
  <anchor x="495.7907618901818" y="0" name="bottom"/>
  <anchor x="1347.452063516364" y="1600" name="top_dd"/>
  <anchor x="1000.6784620390217" y="-407" name="bottom_dd"/>
  <anchor x="1347.970409706913" y="1603" name="top0315"/>
  <anchor x="772.7604097069129" y="1603" name="parent_top"/>
  <outline>
    <contour>
      <point x="1112.974393122468" y="854.3231719972172" type="line" smooth="yes"/>
      <point x="1150.20504932493" y="1142.2779144803692"/>
      <point x="1077.1831972768523" y="1468.148088928033"/>
      <point x="732.6210823257333" y="1476.328189575075" type="curve" smooth="yes"/>
      <point x="376.1049948979761" y="1484.792084329907"/>
      <point x="210.20799619280046" y="1163.2305646128723"/>
      <point x="163.90387494201372" y="853.6068543667246" type="curve" smooth="yes"/>
      <point x="124.88296693509285" y="600.6736650614708" type="line" smooth="yes"/>
      <point x="88.15708552841804" y="315.7614326323377"/>
      <point x="165.30667811282353" y="-11.928520714259783"/>
      <point x="506.11509517345485" y="-20.330365389411728" type="curve" smooth="yes"/>
      <point x="866.8992977340638" y="-29.22466693661653"/>
      <point x="1026.0002749460914" y="289.0324493371741"/>
      <point x="1073.7236919438592" y="601.717473632936" type="curve" smooth="yes"/>
    </contour>
    <contour>
      <point x="896.8478446049478" y="600.6247891791284" type="line" smooth="yes"/>
      <point x="865.3415037080881" y="385.1365082406794"/>
      <point x="776.540239037262" y="132.3247500622776"/>
      <point x="516.0472993297121" y="142.22782770193" type="curve" smooth="yes"/>
      <point x="277.364494883412" y="151.30175633253074"/>
      <point x="280.1159470786169" y="421.68382560263717"/>
      <point x="303.0880979068433" y="600.1415054575259" type="curve" smooth="yes"/>
      <point x="341.1956272892869" y="856.4081440392766" type="line" smooth="yes"/>
      <point x="372.0477311298024" y="1067.6874241148073"/>
      <point x="466.83816410001555" y="1322.3476469266486"/>
      <point x="722.0030390322826" y="1313.0420499925506" type="curve" smooth="yes"/>
      <point x="963.9220123310215" y="1304.219517279823"/>
      <point x="959.4361801831493" y="1040.791206765962"/>
      <point x="935.6606969303164" y="858.1501014037166" type="curve" smooth="yes"/>
    </contour>
  </outline>
</glyph>
<glyph name="P" format="2">
  <advance width="1101"/>
  <unicode hex="0050"/>
  <anchor x="694.7754482785601" y="1612" name="top"/>
  <anchor x="349.1085825253454" y="10" name="bottom"/>
  <anchor x="1254.3320635163636" y="1600" name="top_dd"/>
  <anchor x="907.5584620390216" y="-407" name="bottom_dd"/>
  <anchor x="1256.40544827856" y="1612" name="top0315"/>
  <anchor x="694.7754482785601" y="1612" name="parent_top"/>
  <outline>
    <contour>
      <point x="609.3400038249033" y="569.6962375944859" type="line" smooth="yes"/>
      <point x="887.809882626211" y="569.0981372659128"/>
      <point x="1072.211985230795" y="743.0029823074983"/>
      <point x="1096.2053375839703" y="1019.9384239073036" type="curve" smooth="yes"/>
      <point x="1117.0389058840874" y="1260.4030889681299"/>
      <point x="989.7943799521661" y="1447.3092600630664"/>
      <point x="738.8686301118223" y="1454.8069551853937" type="curve" smooth="yes"/>
      <point x="300.3918360583669" y="1455.9725151047346" type="line"/>
      <point x="47.68355136698737" y="0.0" type="line"/>
      <point x="227.49301488134353" y="0.0" type="line"/>
      <point x="452.8171553841082" y="1298.0685356591443" type="line"/>
      <point x="734.5739251373419" y="1296.7664538908273" type="line" smooth="yes"/>
      <point x="889.8557201064486" y="1289.7324728067904"/>
      <point x="933.117377753747" y="1154.7030313562427"/>
      <point x="916.8973656456793" y="1018.2594656047704" type="curve" smooth="yes"/>
      <point x="896.6407223855792" y="847.8595535610025"/>
      <point x="792.557291204901" y="727.3497177397758"/>
      <point x="614.7544471040894" y="726.2934873280941" type="curve" smooth="yes"/>
      <point x="316.07012865428175" y="728.0841451414245" type="line"/>
      <point x="288.17172952413364" y="571.1309995807816" type="line"/>
    </contour>
  </outline>
</glyph>
<glyph name="R" format="2">
  <advance width="1054"/>
  <unicode hex="0052"/>
  <anchor x="689.9648455798801" y="1601" name="top"/>
  <anchor x="416.0385825253454" y="10" name="bottom"/>
  <anchor x="1207.7720635163637" y="1600" name="top_dd"/>
  <anchor x="860.9984620390217" y="-407" name="bottom_dd"/>
  <anchor x="1207.9448455798802" y="1601" name="top0315"/>
  <anchor x="689.9648455798801" y="1601" name="parent_top"/>
  <outline>
    <contour>
      <point x="301.4088171766296" y="1456.1627294137345" type="line"/>
      <point x="48.65424071538136" y="0.0" type="line"/>
      <point x="228.46319711824395" y="0.0" type="line"/>
      <point x="453.76634411991427" y="1298.1238172480387" type="line"/>
      <point x="680.3005881153846" y="1296.9069991707374" type="line" smooth="yes"/>
      <point x="839.2563855250909" y="1290.704295612333"/>
      <point x="879.6963558573241" y="1170.3354464260437"/>
      <point x="862.3804652167213" y="1027.7999681408778" type="curve" smooth="yes"/>
      <point x="842.6476257601175" y="865.3694141342426"/>
      <point x="729.1934964390219" y="746.7548309010449"/>
      <point x="561.9618546590382" y="745.1962449701996" type="curve" smooth="yes"/>
      <point x="318.3180729913773" y="747.0437132507284" type="line"/>
      <point x="292.6678308615642" y="590.0708570888096" type="line"/>
      <point x="657.1394699223433" y="589.6669654117851" type="line"/>
      <point x="709.1644047148936" y="609.7913899691355" type="line" smooth="yes"/>
      <point x="901.4726811466628" y="677.2682178317218"/>
      <point x="1023.2203253605642" y="820.3287054582644"/>
      <point x="1042.0236264273433" y="1027.2661317748261" type="curve" smooth="yes"/>
      <point x="1064.8202338973545" y="1278.1514024961273"/>
      <point x="941.7314252326962" y="1447.2506631271528"/>
      <point x="683.8019264572079" y="1454.5350519682693" type="curve" smooth="yes"/>
    </contour>
    <contour>
      <point x="730.5484181740702" y="0.0" type="line"/>
      <point x="923.4277621703704" y="0.0" type="line"/>
      <point x="924.0354123253012" y="13.120873505761578" type="line"/>
      <point x="741.9579748052626" y="660.9976420885984" type="line"/>
      <point x="564.6940539129273" y="660.1252859532779" type="line"/>
    </contour>
  </outline>
</glyph>
<glyph name="U" format="2">
  <advance width="1116"/>
  <unicode hex="0055"/>
  <guideline x="0.0" y="901.0" angle="0.0" identifier="lHK9ntD5wM"/>
  <guideline x="0.0" y="555.0" angle="0.0" identifier="FyGz4fU2IH"/>
  <guideline x="664.0" y="0.0" angle="90.0" identifier="p3hCrX9HLI"/>
  <anchor x="731.6748455798802" y="1601" name="top"/>
  <anchor x="456.0207618901817" y="0" name="bottom"/>
  <anchor x="1268.8820635163638" y="1600" name="top_dd"/>
  <anchor x="922.1084620390216" y="-407" name="bottom_dd"/>
  <anchor x="1269.05484557988" y="1601" name="top0315"/>
  <anchor x="731.6748455798802" y="1601" name="parent_top"/>
  <outline>
    <contour>
      <point x="964.9192926935063" y="1455.9459013877038" type="line"/>
      <point x="791.0598939180642" y="430.39412514786017" type="line" smooth="yes"/>
      <point x="765.4891167729227" y="251.86288910861123"/>
      <point x="670.9559703689008" y="130.17055127247096"/>
      <point x="480.6342204731229" y="136.56877832698078" type="curve" smooth="yes"/>
      <point x="301.2303969099621" y="142.59996708093507"/>
      <point x="261.01723897802276" y="268.1006151079083"/>
      <point x="279.5001054993894" y="430.04295255262724" type="curve"/>
      <point x="453.1327767559277" y="1455.9360674877444" type="line"/>
      <point x="274.3030033810449" y="1455.945346068512" type="line"/>
      <point x="100.3368928879177" y="430.72957977029637" type="line"/>
      <point x="71.1666193365587" y="169.30819615587905"/>
      <point x="198.48859462309366" y="-16.253611188901623"/>
      <point x="469.53382712485916" y="-21.76333786137095" type="curve" smooth="yes"/>
      <point x="752.7894031368903" y="-27.521272756126884"/>
      <point x="932.8844139999405" y="160.13493835000907"/>
      <point x="970.3365315369151" y="432.20447618819264" type="curve" smooth="yes"/>
      <point x="1144.9328573076484" y="1455.9559883262057" type="line"/>
    </contour>
  </outline>
</glyph>
<glyph name="V" format="2">
  <advance width="1114"/>
  <unicode hex="0056"/>
  <guideline x="0.0" y="901.0" angle="0.0" identifier="uERPMqKZDX"/>
  <guideline x="0.0" y="555.0" angle="0.0" identifier="eIG2QcghJ6"/>
  <anchor x="717.3599331722784" y="1612" name="top"/>
  <anchor x="467.76780575924477" y="10" name="bottom"/>
  <anchor x="1249.9603292216188" y="1600" name="top_dd"/>
  <anchor x="937.2690684738299" y="-407" name="bottom_dd"/>
  <anchor x="1251.8299331722783" y="1612" name="top0315"/>
  <anchor x="717.3599331722784" y="1612" name="parent_top"/>
  <outline>
    <contour>
      <point x="481.8956494750083" y="230.04563768354407" type="line"/>
      <point x="402.0630826973452" y="0.0" type="line"/>
      <point x="545.1841509622556" y="0.0" type="line"/>
      <point x="1211.6744862183878" y="1455.7853542064777" type="line"/>
      <point x="1010.4990714120416" y="1455.8338027505997" type="line"/>
    </contour>
    <contour>
      <point x="367.5358992700259" y="1456.015424288373" type="line"/>
      <point x="178.04840385586323" y="1456.022841853073" type="line"/>
      <point x="389.0390892894293" y="0.0" type="line"/>
      <point x="521.8070269131823" y="0.0" type="line"/>
      <point x="512.4076693396225" y="210.97185548798956" type="line"/>
    </contour>
  </outline>
</glyph>
<glyph name="W" format="2">
  <advance width="1513"/>
  <unicode hex="0057"/>
  <guideline x="0.0" y="901.0" angle="0.0" identifier="UTwyLMDl1q"/>
  <guideline x="0.0" y="555.0" angle="0.0" identifier="0IvaFywxHO"/>
  <anchor x="928.0761295508406" y="1601" name="top"/>
  <anchor x="678.2578057592448" y="10" name="bottom"/>
  <anchor x="1649.6003292216187" y="1600" name="top_dd"/>
  <anchor x="1336.9090684738298" y="-407" name="bottom_dd"/>
  <anchor x="1649.7561295508403" y="1601" name="top0315"/>
  <anchor x="928.0761295508406" y="1601" name="parent_top"/>
  <outline>
    <contour>
      <point x="444.7981589677754" y="447.98224678375664" type="line"/>
      <point x="286.5340731421844" y="0.0" type="line"/>
      <point x="419.3784535904473" y="0.0" type="line"/>
      <point x="827.3002608861204" y="1051.865850787488" type="line"/>
      <point x="959.2689888074038" y="1455.8606615837207" type="line"/>
      <point x="826.7950677836154" y="1455.8324676872805" type="line"/>
    </contour>
    <contour>
      <point x="379.1954933311778" y="1456.0062587394107" type="line"/>
      <point x="204.25466245923957" y="1456.0111186924355" type="line"/>
      <point x="257.86630037229304" y="0.0" type="line"/>
      <point x="381.03685707392225" y="0.0" type="line"/>
      <point x="400.34478674982915" y="450.20969913059116" type="line"/>
    </contour>
    <contour>
      <point x="1089.8153751021532" y="470.4966909678479" type="line"/>
      <point x="959.546287746436" y="0.0" type="line"/>
      <point x="1089.301164318972" y="0.0" type="line"/>
      <point x="1597.6727920117205" y="1455.844168982005" type="line"/>
      <point x="1415.0190129693" y="1455.8783924337201" type="line"/>
    </contour>
    <contour>
      <point x="975.3766201709794" y="1456.0142018387232" type="line"/>
      <point x="852.99179948021" y="1456.003295298489" type="line"/>
      <point x="857.9316460498657" y="1069.015338234957" type="line"/>
      <point x="927.5288830947317" y="0.0" type="line"/>
      <point x="1051.6222988016243" y="0.0" type="line"/>
      <point x="1036.1016031364693" y="436.0317453842914" type="line"/>
    </contour>
  </outline>
</glyph>
<glyph name="bracketleft" format="2">
  <advance width="498"/>
  <unicode hex="005B"/>
  <outline>
    <contour>
      <point x="622.2054457668442" y="1663.9419908973675" type="line"/>
      <point x="299.7149518443917" y="1663.950875716693" type="line"/>
      <point x="-9.180013157316097" y="-311.94554085044683" type="line"/>
      <point x="313.1337285764893" y="-311.95117608438966" type="line"/>
      <point x="337.34124862961073" y="-160.07367215452962" type="line"/>
      <point x="187.68931615730037" y="-159.95775931487236" type="line"/>
      <point x="448.88925095843706" y="1511.9466755004053" type="line"/>
      <point x="597.9996192643507" y="1512.066017621228" type="line"/>
    </contour>
  </outline>
</glyph>
<glyph name="backslash" format="2">
  <advance width="734"/>
  <unicode hex="005C"/>
  <guideline x="0.0" y="901.0" angle="0.0" identifier="dCnM0clTlr"/>
  <guideline x="0.0" y="555.0" angle="0.0" identifier="ANzzkCNVz4"/>
  <outline>
    <contour>
      <point x="422.61287332409927" y="-125.02533076699203" type="line"/>
      <point x="578.7825557268661" y="-125.02244977766041" type="line"/>
      <point x="357.2414061457012" y="1456.030060513718" type="line"/>
      <point x="202.0389458414818" y="1456.0208790960405" type="line"/>
    </contour>
  </outline>
</glyph>
<glyph name="bracketright" format="2">
  <advance width="498"/>
  <unicode hex="005D"/>
  <outline>
    <contour>
      <point x="171.80484206688578" y="1512.0715842388058" type="line"/>
      <point x="323.3967636217838" y="1511.95458157006" type="line"/>
      <point x="62.196854976280235" y="-159.94869877843377" type="line"/>
      <point x="-88.85355118194495" y="-160.0691506104576" type="line"/>
      <point x="-113.05935400908943" y="-311.9446020350715" type="line"/>
      <point x="211.371137149221" y="-311.95336507122147" type="line"/>
      <point x="520.2660959907113" y="1663.9427801168079" type="line"/>
      <point x="196.01235325109354" y="1663.9485416026962" type="line"/>
    </contour>
  </outline>
</glyph>
<glyph name="underscore" format="2">
  <advance width="804"/>
  <unicode hex="005F"/>
  <outline>
    <contour>
      <point x="678.1679063370796" y="0.0" type="line"/>
      <point x="-79.7652632736306" y="0.0" type="line"/>
      <point x="-106.7409873046512" y="-151.91102330072286" type="line"/>
      <point x="651.1921823060536" y="-151.9197951824484" type="line"/>
    </contour>
  </outline>
</glyph>
<glyph name="a" format="2">
  <advance width="952"/>
  <unicode hex="0061"/>
  <guideline x="0.0" y="1658.0" angle="0.0" identifier="tId5BQdJT7"/>
  <guideline x="0.0" y="555.0" angle="0.0" identifier="GRf10yub5L"/>
  <anchor x="612.9496238262909" y="1290" name="top"/>
  <anchor x="323.13076189018176" y="0" name="bottom"/>
  <anchor x="1104.9520635163638" y="1600" name="top_dd"/>
  <anchor x="758.1784620390216" y="-407" name="bottom_dd"/>
  <anchor x="744.5902314298836" y="654" name="rhotichook"/>
  <anchor x="1051.389623826291" y="1290" name="top0315"/>
  <anchor x="612.9496238262909" y="1290" name="parent_top"/>
  <outline>
    <contour>
      <point x="572.975229191045" y="184.88923894765165" type="line" smooth="yes"/>
      <point x="564.727432779217" y="123.66766371935239"/>
      <point x="561.1467846189275" y="59.967368276738924"/>
      <point x="574.7929984870585" y="-0.6495287327879502" type="curve"/>
      <point x="748.1426364127663" y="0.0" type="line"/>
      <point x="749.7728784496394" y="16.652882624127756" type="line"/>
      <point x="745.7114386244219" y="91.92737011486133"/>
      <point x="739.918988571385" y="159.73771487237332"/>
      <point x="752.346804628921" y="235.67157852175302" type="curve" smooth="yes"/>
      <point x="840.3374533545575" y="770.1432920922831" type="line"/>
      <point x="859.8001046408856" y="970.262951827064"/>
      <point x="754.7204513662506" y="1099.957016644625"/>
      <point x="551.3933201804753" y="1103.2483048083782" type="curve" smooth="yes"/>
      <point x="362.2973117879967" y="1106.3092315553677"/>
      <point x="183.02535467826254" y="976.0356177278733"/>
      <point x="163.8020730067675" y="781.7848117328846" type="curve"/>
      <point x="335.2951880472562" y="783.0692238232508" type="line"/>
      <point x="355.2733701503266" y="882.1568055101939"/>
      <point x="427.55571993005594" y="952.2502969174977"/>
      <point x="532.4714798228657" y="951.4569603241678" type="curve" smooth="yes"/>
      <point x="645.8960750765127" y="950.5992828685568"/>
      <point x="677.995775681443" y="877.4851140545661"/>
      <point x="667.6118379510586" y="774.0531262670322" type="curve"/>
    </contour>
    <contour>
      <point x="681.0178362854068" y="656.1273926434272" type="line"/>
      <point x="523.0766899121144" y="657.15825810571" type="line" smooth="yes"/>
      <point x="291.186259851347" y="657.0119399242346"/>
      <point x="74.1894756134352" y="538.6415633878167"/>
      <point x="58.663264039600236" y="286.7562067001154" type="curve" smooth="yes"/>
      <point x="47.87063601376437" y="111.66488149451166"/>
      <point x="145.76389898142605" y="-21.33658003396658"/>
      <point x="328.4550801484229" y="-22.0437827077317" type="curve" smooth="yes"/>
      <point x="478.0565095437521" y="-22.622894026579385"/>
      <point x="605.0074248640094" y="105.01788935858627"/>
      <point x="637.465384879287" y="245.36608469681732" type="curve"/>
      <point x="609.6501972917463" y="329.06996000154135" type="line"/>
      <point x="586.3822944461762" y="219.51260994681348"/>
      <point x="473.74751958529737" y="137.86814543343178"/>
      <point x="363.26688014047215" y="138.12209853539824" type="curve" smooth="yes"/>
      <point x="255.67082859280418" y="138.36942106346453"/>
      <point x="225.4412673661777" y="210.49722180424817"/>
      <point x="236.893636668491" y="308.91505071102137" type="curve" smooth="yes"/>
      <point x="255.42134933019491" y="468.13601247350164"/>
      <point x="407.9479123920512" y="526.4883801976513"/>
      <point x="550.1757478840511" y="527.4162230597098" type="curve" smooth="yes"/>
      <point x="659.8940368700381" y="526.4288214196871" type="line"/>
    </contour>
  </outline>
</glyph>
<glyph name="b" format="2">
  <advance width="980"/>
  <unicode hex="0062"/>
  <anchor x="718.8526662150438" y="1611" name="top"/>
  <anchor x="403.8529412550181" y="-10" name="bottom"/>
  <anchor x="1133.0820635163636" y="1600" name="top_dd"/>
  <anchor x="786.3084620390216" y="-407" name="bottom_dd"/>
  <anchor x="1134.9826662150438" y="1611" name="top0315"/>
  <anchor x="718.8526662150438" y="1611" name="parent_top"/>
  <outline>
    <contour>
      <point x="291.0595836607328" y="1535.9471784542257" type="line"/>
      <point x="24.360772239705156" y="0.0" type="line"/>
      <point x="183.61536780089585" y="0.0" type="line"/>
      <point x="232.33697961914277" y="198.89795264123785" type="line"/>
      <point x="464.09812179951825" y="1535.9401303786399" type="line"/>
    </contour>
    <contour>
      <point x="885.2794789978982" y="590.3293943806578" type="line" smooth="yes"/>
      <point x="910.1790578156061" y="809.5596147713468"/>
      <point x="889.8177751388264" y="1095.3241835358153"/>
      <point x="610.9514266917483" y="1102.7054072050455" type="curve" smooth="yes"/>
      <point x="347.6328078461149" y="1109.6751030209653"/>
      <point x="245.11793382971345" y="822.8373302908768"/>
      <point x="208.76261227783408" y="606.7230103640734" type="curve" smooth="yes"/>
      <point x="190.85984040494378" y="471.810067498272" type="line"/>
      <point x="174.9345398471268" y="275.5767487306125"/>
      <point x="206.86374993937733" y="-12.066129900232932"/>
      <point x="456.5113492552665" y="-20.37373293250695" type="curve" smooth="yes"/>
      <point x="742.8985866868469" y="-29.903932656481423"/>
      <point x="841.04920369302" y="253.8872652252245"/>
      <point x="872.3735472515773" y="490.3748796811322" type="curve" smooth="yes"/>
    </contour>
    <contour>
      <point x="700.7923539412417" y="488.6371814423456" type="line" smooth="yes"/>
      <point x="680.4726466610308" y="325.55877975062924"/>
      <point x="623.1178576253882" y="126.8050216642508"/>
      <point x="422.0941499546582" y="136.35284071199226" type="curve" smooth="yes"/>
      <point x="292.12432637010124" y="142.52588553158552"/>
      <point x="228.39433884817186" y="277.69179937860173"/>
      <point x="233.24719376050302" y="396.0114324574858" type="curve"/>
      <point x="279.02232284840665" y="681.7497278912438" type="line"/>
      <point x="310.5039267913546" y="809.8918924865775"/>
      <point x="412.16397615725873" y="951.8398974618017"/>
      <point x="556.6168839019293" y="948.045307390757" type="curve" smooth="yes"/>
      <point x="748.1181004959432" y="943.0148194177142"/>
      <point x="728.0281327925942" y="730.2894282547406"/>
      <point x="712.7143657477083" y="591.4348619042894" type="curve" smooth="yes"/>
    </contour>
  </outline>
</glyph>
<glyph name="f" format="2">
  <advance width="629"/>
  <unicode hex="0066"/>
  <guideline x="0.0" y="894.0" angle="0.0" identifier="Xuuaig7h5E"/>
  <guideline x="0.0" y="187.0" angle="0.0" identifier="hEsCG5wxTZ"/>
  <anchor x="625.2205012978839" y="1754" name="top"/>
  <anchor x="186.14858252534538" y="10" name="bottom"/>
  <anchor x="781.9420635163638" y="1600" name="top_dd"/>
  <anchor x="435.1684620390216" y="-407" name="bottom_dd"/>
  <anchor x="808.5505012978838" y="1754" name="top0315"/>
  <anchor x="625.2205012978839" y="1754" name="parent_top"/>
  <outline>
    <contour>
      <point x="273.0687417170607" y="0.0" type="line"/>
      <point x="477.56019514205866" y="1196.3059133382494" type="line" smooth="yes"/>
      <point x="493.95207210798054" y="1299.8765802351577"/>
      <point x="546.5439240662005" y="1403.6717435318396"/>
      <point x="665.3320402688096" y="1402.724632879088" type="curve" smooth="yes"/>
      <point x="692.3513371711927" y="1402.5092050674164"/>
      <point x="718.9565772397691" y="1397.6266734807796"/>
      <point x="745.0256919359266" y="1391.054441030975" type="curve"/>
      <point x="768.8285879995185" y="1541.290839367796" type="line"/>
      <point x="731.9335778427075" y="1550.6152282949206"/>
      <point x="695.1494186938676" y="1558.1697613255456"/>
      <point x="656.9263200828286" y="1558.791751803131" type="curve" smooth="yes"/>
      <point x="438.26002586861716" y="1562.3500282828634"/>
      <point x="329.50310413630257" y="1394.7359293562395"/>
      <point x="303.4042881269262" y="1196.0610342602333" type="curve" smooth="yes"/>
      <point x="100.0540466304934" y="0.0" type="line"/>
    </contour>
    <contour>
      <point x="639.6532407755021" y="1081.905371118903" type="line"/>
      <point x="151.3811222504945" y="1081.9133252097638" type="line"/>
      <point x="126.062114695765" y="940.0938397308453" type="line"/>
      <point x="614.334233220773" y="940.0858856399839" type="line"/>
    </contour>
  </outline>
</glyph>
<glyph name="g" format="2">
  <advance width="980"/>
  <unicode hex="0067"/>
  <anchor x="589.669623826291" y="1290" name="top"/>
  <anchor x="289.54717949836714" y="-447" name="bottom"/>
  <anchor x="1133.0820635163636" y="1600" name="top_dd"/>
  <anchor x="786.3084620390216" y="-407" name="bottom_dd"/>
  <anchor x="1079.519623826291" y="1290" name="top0315"/>
  <anchor x="589.669623826291" y="1290" name="parent_top"/>
  <outline>
    <contour>
      <point x="779.7914424124817" y="1081.886497576312" type="line"/>
      <point x="724.1677574676585" y="853.1543805392824" type="line"/>
      <point x="577.2257016114122" y="-18.541542918224962" type="line" smooth="yes"/>
      <point x="554.4214907409344" y="-170.38114825319875"/>
      <point x="468.9107292307972" y="-281.2848368656127"/>
      <point x="305.6378703618609" y="-276.30375857801783" type="curve" smooth="yes"/>
      <point x="217.23349545213424" y="-273.6067450300116"/>
      <point x="142.36598828874784" y="-231.6320952228572"/>
      <point x="85.38988495703687" y="-165.9214481027948" type="curve"/>
      <point x="3.509650141436893" y="-289.7213093634578" type="line"/>
      <point x="79.34263831279343" y="-373.09471903624427"/>
      <point x="199.57325709640128" y="-424.93775401453655"/>
      <point x="312.5497717051064" y="-428.4470388156691" type="curve" smooth="yes"/>
      <point x="572.829553927023" y="-436.5318685429537"/>
      <point x="718.4698448229602" y="-250.38284967884357"/>
      <point x="750.9191202135793" y="-8.50821347888997" type="curve" smooth="yes"/>
      <point x="936.4739680634684" y="1081.9440486927701" type="line"/>
    </contour>
    <contour>
      <point x="77.77409187448966" y="488.6923508221897" type="line" smooth="yes"/>
      <point x="53.91509425580864" y="276.45722685118585"/>
      <point x="85.8255090819805" y="-13.117815201691426"/>
      <point x="355.6971823970713" y="-20.9275419970666" type="curve" smooth="yes"/>
      <point x="617.4754478697395" y="-28.50305634874055"/>
      <point x="722.7114891105872" y="257.48118351578887"/>
      <point x="759.2150267619173" y="472.4291001128721" type="curve" smooth="yes"/>
      <point x="777.0560264115192" y="607.1905825358242" type="line" smooth="yes"/>
      <point x="793.1917911159588" y="803.0469480793014"/>
      <point x="763.5714819796243" y="1093.623310460303"/>
      <point x="513.2556320357644" y="1102.1635360023859" type="curve" smooth="yes"/>
      <point x="224.10531973825618" y="1112.0287078767929"/>
      <point x="122.15030791824897" y="828.5958357531022"/>
      <point x="90.59928374501978" y="588.4976424559961" type="curve" smooth="yes"/>
    </contour>
    <contour>
      <point x="262.4674768296033" y="590.3687453235127" type="line" smooth="yes"/>
      <point x="283.2628816291475" y="755.7956893474825"/>
      <point x="345.03033844739616" y="956.7293479409907"/>
      <point x="548.208033349522" y="946.7793413160979" type="curve" smooth="yes"/>
      <point x="679.2577478340827" y="940.3615820835216"/>
      <point x="739.4504476747752" y="799.7904045450754"/>
      <point x="734.2422851065799" y="682.3376922130599" type="curve"/>
      <point x="688.6451149752942" y="396.1830477278774" type="line"/>
      <point x="653.8888751910595" y="269.24544877529735"/>
      <point x="554.0708203016081" y="131.12140821681174"/>
      <point x="410.55649867312" y="135.07965233572293" type="curve" smooth="yes"/>
      <point x="222.70136439680428" y="140.26085287389205"/>
      <point x="235.49718062514836" y="349.89778014836554"/>
      <point x="250.51882725764358" y="487.60608693993925" type="curve" smooth="yes"/>
    </contour>
  </outline>
</glyph>
<glyph name="j" format="2">
  <advance width="445"/>
  <unicode hex="006A"/>
  <guideline x="0.0" y="659.0" angle="0.0" identifier="jU43547jL0"/>
  <guideline x="0.0" y="1005.0" angle="0.0" identifier="cGxckiWPwr"/>
  <anchor x="373.57206351636376" y="1600" name="top"/>
  <anchor x="-8.376205263829249" y="-459" name="bottom"/>
  <anchor x="598.6120635163638" y="1600" name="top_dd"/>
  <anchor x="251.8384620390217" y="-407" name="bottom_dd"/>
  <anchor x="598.6120635163638" y="1600" name="top0315"/>
  <anchor x="373.57206351636376" y="1600" name="parent_top"/>
  <outline>
    <contour>
      <point x="216.29827201121526" y="1081.9456670283" type="line"/>
      <point x="9.55407178666978" y="-128.9132862759318" type="line" smooth="yes"/>
      <point x="-1.3645346909296485" y="-198.3350970591118"/>
      <point x="-24.94922427148464" y="-284.05389489191856"/>
      <point x="-110.22138310917047" y="-283.3243401516747" type="curve" smooth="yes"/>
      <point x="-133.4752681540344" y="-283.1253891424026"/>
      <point x="-156.18725799630857" y="-277.3013054063013"/>
      <point x="-178.6781621935968" y="-272.1758933772369" type="curve"/>
      <point x="-195.25276249427316" y="-420.7408972859198" type="line"/>
      <point x="-160.75590584311928" y="-431.2109559656494"/>
      <point x="-125.49607187880461" y="-439.42026465499976"/>
      <point x="-89.22199295228639" y="-440.020025547583" type="curve" smooth="yes"/>
      <point x="96.0599415283463" y="-443.08350397879997"/>
      <point x="163.50600217356572" y="-288.53853494503744"/>
      <point x="183.30451718270996" y="-128.04668724597528" type="curve" smooth="yes"/>
      <point x="388.3234438302599" y="1081.935358248262" type="line"/>
    </contour>
    <contour>
      <point x="250.46644355569975" y="1367.450668287874" type="curve" smooth="yes"/>
      <point x="248.4493264013715" y="1309.4436504547432"/>
      <point x="285.971503869063" y="1262.1663999365228"/>
      <point x="346.37079503745406" y="1263.7548334345279" type="curve" smooth="yes"/>
      <point x="406.26549343017444" y="1265.3299967094522"/>
      <point x="444.1819434926392" y="1312.9746024070844"/>
      <point x="446.40959397085396" y="1370.488587784198" type="curve" smooth="yes"/>
      <point x="448.6914332210493" y="1429.4016311687387"/>
      <point x="411.9894273850358" y="1479.0227563679239"/>
      <point x="349.8737913937975" y="1477.2546446338092" type="curve" smooth="yes"/>
      <point x="289.30829719405006" y="1475.5306574401156"/>
      <point x="252.4643120847715" y="1424.9041459629027"/>
    </contour>
  </outline>
</glyph>
<glyph name="k" format="2">
  <advance width="895"/>
  <unicode hex="006B"/>
  <anchor x="360.61828839984355" y="71" name="bottom"/>
  <anchor x="642.2226662150438" y="1611" name="top"/>
  <anchor x="642.2226662150438" y="1611" name="marktop"/>
  <anchor x="1048.6920635163638" y="1600" name="top_dd"/>
  <anchor x="701.9184620390216" y="-407" name="bottom_dd"/>
  <anchor x="944.8626662150436" y="1611" name="top0315"/>
  <anchor x="642.2226662150438" y="1611" name="parent_top"/>
  <outline>
    <contour>
      <point x="465.0516223744547" y="1535.9363945374823" type="line"/>
      <point x="292.03112452221586" y="1535.9445451642107" type="line"/>
      <point x="25.37350948087108" y="0.0" type="line"/>
      <point x="198.39400733310868" y="0.0" type="line"/>
    </contour>
    <contour>
      <point x="925.7852628166243" y="1081.6173424790609" type="line"/>
      <point x="704.3593845076641" y="1081.6698575870637" type="line"/>
      <point x="392.16554881336083" y="725.9793083506524" type="line"/>
      <point x="202.39213573860917" y="509.71373286795114" type="line"/>
      <point x="176.88896839611158" y="294.6433020613874" type="line"/>
      <point x="460.4635851037423" y="572.3735838738493" type="line"/>
    </contour>
    <contour>
      <point x="578.8035132397963" y="0.0" type="line"/>
      <point x="767.7914597093909" y="0.0" type="line"/>
      <point x="479.51962736480164" y="681.3387272619655" type="line"/>
      <point x="368.5259539377695" y="526.4221702339764" type="line"/>
    </contour>
  </outline>
</glyph>
<glyph name="l" format="2">
  <advance width="456"/>
  <unicode hex="006C"/>
  <anchor x="417.49192367745104" y="1697" name="top"/>
  <anchor x="126.00858252534535" y="10" name="bottom"/>
  <anchor x="654.205139705382" y="1540" name="marktop"/>
  <anchor x="609.2820635163638" y="1600" name="top_dd"/>
  <anchor x="262.5084620390217" y="-407" name="bottom_dd"/>
  <anchor x="626.041923677451" y="1697" name="top0315"/>
  <anchor x="417.49192367745104" y="1697" name="parent_top"/>
  <outline>
    <contour>
      <point x="476.6927443772911" y="1535.9407463111365" type="line"/>
      <point x="304.6407969054321" y="1535.9494536339816" type="line"/>
      <point x="37.98359356891548" y="0.0" type="line"/>
      <point x="210.0355410407725" y="0.0" type="line"/>
    </contour>
  </outline>
</glyph>
<glyph name="m" format="2">
  <advance width="1496"/>
  <unicode hex="006D"/>
  <anchor x="879.699623826291" y="1290" name="top"/>
  <anchor x="644.9585825253454" y="10" name="bottom"/>
  <anchor x="879.699623826291" y="1290" name="marktop"/>
  <anchor x="1649.1220635163636" y="1600" name="top_dd"/>
  <anchor x="1302.3484620390216" y="-407" name="bottom_dd"/>
  <anchor x="1595.559623826291" y="1290" name="top0315"/>
  <anchor x="879.699623826291" y="1290" name="parent_top"/>
  <outline>
    <contour>
      <point x="345.93244924468365" y="856.3838746122467" type="line"/>
      <point x="375.2179815674274" y="1081.9599712485285" type="line"/>
      <point x="213.39704070005968" y="1081.9392585524843" type="line"/>
      <point x="25.37331584521182" y="0.0" type="line"/>
      <point x="197.40504405900356" y="0.0" type="line"/>
    </contour>
    <contour>
      <point x="266.55098449782787" y="581.168413479825" type="line"/>
      <point x="287.9370828504836" y="735.4230953539645"/>
      <point x="343.2534615647931" y="954.9585923100663"/>
      <point x="540.1572495283194" y="947.950533309117" type="curve" smooth="yes"/>
      <point x="673.0965394813016" y="943.2190530406552"/>
      <point x="687.7705994227242" y="822.3909930010295"/>
      <point x="675.9636624818371" y="713.15453478029" type="curve"/>
      <point x="556.9418322529705" y="0.0" type="line"/>
      <point x="729.9414633097014" y="0.0" type="line"/>
      <point x="850.2870250778487" y="721.2091880367665" type="line"/>
      <point x="868.0120586610896" y="895.1189746845719"/>
      <point x="822.6859850984695" y="1096.1405880826853"/>
      <point x="614.6576569343638" y="1102.3174393914906" type="curve" smooth="yes"/>
      <point x="326.9678419979091" y="1110.8596279751453"/>
      <point x="219.99076074767692" y="821.0853098063963"/>
      <point x="192.81244798011136" y="582.8408143532448" type="curve"/>
    </contour>
    <contour>
      <point x="847.2123224864577" y="684.4231821648925" type="line"/>
      <point x="866.9842737823244" y="802.7735927990077"/>
      <point x="927.9184337144025" y="949.5187161896229"/>
      <point x="1070.2719552756232" y="947.7826524576486" type="curve" smooth="yes"/>
      <point x="1207.5299127141998" y="946.108731368654"/>
      <point x="1219.9035751707365" y="826.5650754586236"/>
      <point x="1208.0708530209715" y="714.3049135418987" type="curve"/>
      <point x="1089.634954928538" y="0.0" type="line"/>
      <point x="1262.4607936392756" y="0.0" type="line"/>
      <point x="1381.227269366324" y="711.2712045102611" type="line"/>
      <point x="1400.966064121499" y="899.9464127220764"/>
      <point x="1357.5354783532596" y="1098.0085774808197"/>
      <point x="1134.2456539407572" y="1103.1545924394236" type="curve" smooth="yes"/>
      <point x="883.3640319939751" y="1108.9364975610465"/>
      <point x="752.2242500573824" y="865.6287198415579"/>
      <point x="726.8329174993568" y="646.6882177462468" type="curve"/>
    </contour>
  </outline>
</glyph>
<glyph name="n" format="2">
  <advance width="962"/>
  <unicode hex="006E"/>
  <anchor x="604.219623826291" y="1290" name="top"/>
  <anchor x="373.3585825253454" y="10" name="bottom"/>
  <anchor x="604.219623826291" y="1290" name="marktop"/>
  <anchor x="1115.6220635163636" y="1600" name="top_dd"/>
  <anchor x="768.8484620390216" y="-407" name="bottom_dd"/>
  <anchor x="1062.059623826291" y="1290" name="top0315"/>
  <anchor x="604.219623826291" y="1290" name="parent_top"/>
  <outline>
    <contour>
      <point x="343.1182300469994" y="840.0152464242573" type="line"/>
      <point x="375.2548609576632" y="1081.9605837208928" type="line"/>
      <point x="212.42547069570486" y="1081.9388472330265" type="line"/>
      <point x="24.405791112478042" y="0.0" type="line"/>
      <point x="197.4115290721217" y="0.0" type="line"/>
    </contour>
    <contour>
      <point x="262.55735740277896" y="578.2717414609368" type="line"/>
      <point x="284.37814770745126" y="725.7309915857714"/>
      <point x="368.8252760633953" y="953.8146923569592"/>
      <point x="554.0396375515455" y="947.9776973148082" type="curve" smooth="yes"/>
      <point x="685.6666954282792" y="943.8294958575008"/>
      <point x="686.9594060530065" y="814.9271148034845"/>
      <point x="675.6310247747263" y="712.1188208351319" type="curve"/>
      <point x="556.9473696390817" y="0.0" type="line"/>
      <point x="729.9395946990574" y="0.0" type="line"/>
      <point x="848.2574359206752" y="709.2613479863677" type="line"/>
      <point x="866.7810023691476" y="887.2191338539565"/>
      <point x="835.0208831741564" y="1096.3863769026498"/>
      <point x="617.7986383748859" y="1102.6187538123543" type="curve" smooth="yes"/>
      <point x="337.7634791573015" y="1110.6533115153456"/>
      <point x="229.12827919644087" y="808.7237331685369"/>
      <point x="200.08264326231648" y="580.7064911343999" type="curve"/>
    </contour>
  </outline>
</glyph>
<glyph name="q" format="2">
  <advance width="994"/>
  <unicode hex="0071"/>
  <anchor x="576.089623826291" y="1290" name="top"/>
  <anchor x="590.3684620390217" y="-407" name="bottom"/>
  <anchor x="576.089623826291" y="1290" name="marktop"/>
  <anchor x="1147.6320635163638" y="1600" name="top_dd"/>
  <anchor x="800.8584620390217" y="-407" name="bottom_dd"/>
  <anchor x="1094.069623826291" y="1290" name="top0315"/>
  <anchor x="576.089623826291" y="1290" name="parent_top"/>
  <outline>
    <contour>
      <point x="501.3316508115423" y="-415.9380878207895" type="line"/>
      <point x="674.3712956231444" y="-415.9447011536143" type="line"/>
      <point x="934.4891124183639" y="1081.941004971357" type="line"/>
      <point x="775.2238791222012" y="1081.8995954341244" type="line"/>
      <point x="726.8728649311045" y="885.159395765553" type="line"/>
    </contour>
    <contour>
      <point x="75.32532773186018" y="488.72985700833846" type="line" smooth="yes"/>
      <point x="50.68809953087984" y="271.26353574585545"/>
      <point x="83.65624349446693" y="-13.51205026891271"/>
      <point x="357.91367590972277" y="-21.04584685702992" type="curve" smooth="yes"/>
      <point x="621.0438330854245" y="-28.273979429056347"/>
      <point x="729.3762198363288" y="254.7968659164192"/>
      <point x="766.043724867212" y="472.25677464278846" type="curve" smooth="yes"/>
      <point x="783.8295547523859" y="607.1878579694405" type="line" smooth="yes"/>
      <point x="800.2050066099358" y="804.6813537961957"/>
      <point x="766.9417306215679" y="1093.6756964732936"/>
      <point x="516.0315524029984" y="1102.162843857044" type="curve" smooth="yes"/>
      <point x="223.63148242618905" y="1112.0534051189725"/>
      <point x="120.03470724527725" y="834.0958894386652"/>
      <point x="88.09629473398245" y="589.2885265050966" type="curve" smooth="yes"/>
    </contour>
    <contour>
      <point x="260.8863448868903" y="590.3153616153759" type="line" smooth="yes"/>
      <point x="282.2984712008728" y="756.1179596039674"/>
      <point x="349.0429937364672" y="960.6306289141386"/>
      <point x="552.5741022642285" y="950.2296012357291" type="curve" smooth="yes"/>
      <point x="683.3330447265512" y="943.5474414932312"/>
      <point x="747.0022408377043" y="799.9300733115412"/>
      <point x="742.1621479421726" y="682.3412722184859" type="curve"/>
      <point x="696.4002173192258" y="396.17228810668524" type="line"/>
      <point x="661.2881690411384" y="267.7754464972037"/>
      <point x="556.8984526637585" y="124.89524507570583"/>
      <point x="411.7113420331947" y="128.7839102116647" type="curve" smooth="yes"/>
      <point x="223.0210979369477" y="133.8377553534674"/>
      <point x="233.27290739741426" y="349.0870083944236"/>
      <point x="248.52207217275338" y="486.9340278409013" type="curve" smooth="yes"/>
    </contour>
  </outline>
</glyph>
<glyph name="v" format="2">
  <advance width="850"/>
  <unicode hex="0076"/>
  <guideline x="0.0" y="901.0" angle="0.0" identifier="HAN2DKDFoT"/>
  <guideline x="0.0" y="555.0" angle="0.0" identifier="qkKVZI6c0u"/>
  <anchor x="538.5642238707009" y="1280" name="top"/>
  <anchor x="340.69780575924483" y="10" name="bottom"/>
  <anchor x="986.1203292216188" y="1600" name="top_dd"/>
  <anchor x="673.4290684738296" y="-407" name="bottom_dd"/>
  <anchor x="936.2642238707009" y="1280" name="top0315"/>
  <anchor x="538.5642238707009" y="1280" name="parent_top"/>
  <outline>
    <contour>
      <point x="333.2448664669485" y="174.17120802850565" type="line"/>
      <point x="279.386346416646" y="0.0" type="line"/>
      <point x="398.5175323467301" y="0.0" type="line"/>
      <point x="879.6351840771981" y="1081.785143521349" type="line"/>
      <point x="698.1150045014732" y="1081.836996894391" type="line"/>
    </contour>
    <contour>
      <point x="292.91795969411606" y="1082.0109116909634" type="line"/>
      <point x="122.51277759594879" y="1082.01622418035" type="line"/>
      <point x="268.5354033128185" y="0.0" type="line"/>
      <point x="378.1097872366249" y="0.0" type="line"/>
      <point x="384.9211927774902" y="150.95057161006886" type="line"/>
    </contour>
  </outline>
</glyph>
<glyph name="x" format="2">
  <advance width="872"/>
  <unicode hex="0078"/>
  <guideline x="0.0" y="901.0" angle="0.0" identifier="URxQa45fM8"/>
  <guideline x="0.0" y="555.0" angle="0.0" identifier="hUSz92aSoy"/>
  <guideline x="544.0" y="0.0" angle="90.0" identifier="vLxcm8bNog"/>
  <anchor x="343.6078057592448" y="10" name="bottom"/>
  <anchor x="539.5342238707009" y="1280" name="top"/>
  <anchor x="1008.430329221619" y="1600" name="top_dd"/>
  <anchor x="695.7390684738297" y="-407" name="bottom_dd"/>
  <anchor x="958.5742238707008" y="1280" name="top0315"/>
  <anchor x="539.5342238707009" y="1280" name="parent_top"/>
  <outline>
    <contour>
      <point x="326.7648558939671" y="1082.0004479808952" type="line"/>
      <point x="139.01319734875383" y="1081.9975514265689" type="line"/>
      <point x="336.77365054969454" y="557.3445967523459" type="line"/>
      <point x="-47.929575743089316" y="0.0" type="line"/>
      <point x="160.67573016097123" y="0.0" type="line"/>
      <point x="410.11815447641857" y="404.6660209455005" type="line"/>
      <point x="531.1517456544317" y="0.0" type="line"/>
      <point x="719.8351848454811" y="0.0" type="line"/>
      <point x="516.5127972169042" y="538.7155122475788" type="line"/>
      <point x="891.3055111386728" y="1081.6741809324635" type="line"/>
      <point x="681.8642479900255" y="1081.735017360004" type="line"/>
      <point x="440.9999667397599" y="689.5726192372005" type="line"/>
    </contour>
  </outline>
</glyph>
<glyph name="z" format="2">
  <advance width="872"/>
  <unicode hex="007A"/>
  <anchor x="558.629623826291" y="1290" name="top"/>
  <anchor x="343.28858252534536" y="10" name="bottom"/>
  <anchor x="1025.4120635163638" y="1600" name="top_dd"/>
  <anchor x="678.6384620390216" y="-407" name="bottom_dd"/>
  <anchor x="971.849623826291" y="1290" name="top0315"/>
  <anchor x="558.629623826291" y="1290" name="parent_top"/>
  <outline>
    <contour>
      <point x="717.1113040782209" y="151.9115177922427" type="line"/>
      <point x="80.43245594474656" y="151.92031717575912" type="line"/>
      <point x="53.45549706822656" y="0.0" type="line"/>
      <point x="690.1343452016953" y="0.0" type="line"/>
    </contour>
    <contour>
      <point x="834.0572664595089" y="941.092216940979" type="line"/>
      <point x="858.9243998604222" y="1081.9051957471727" type="line"/>
      <point x="742.9981850158996" y="1081.6422378978205" type="line"/>
      <point x="13.05943919081433" y="145.7649975459873" type="line"/>
      <point x="-12.582664954478204" y="0.0" type="line"/>
      <point x="99.45524240011993" y="0.0" type="line"/>
    </contour>
    <contour>
      <point x="784.1444925391144" y="1081.9084522374746" type="line"/>
      <point x="178.51040401998569" y="1081.9172383190541" type="line"/>
      <point x="151.3574993357173" y="929.0931124603497" type="line"/>
      <point x="756.9915878548478" y="929.0843263787763" type="line"/>
    </contour>
  </outline>
</glyph>
<glyph name="braceleft" format="2">
  <advance width="609"/>
  <unicode hex="007B"/>
  <outline>
    <contour>
      <point x="681.6922989381344" y="1599.2596895222612" type="line"/>
      <point x="458.2353407733802" y="1523.7587621432435"/>
      <point x="349.09736974515715" y="1360.504403046083"/>
      <point x="318.4452796840317" y="1131.8106083800496" type="curve" smooth="yes"/>
      <point x="290.4706086206462" y="924.9392593184633" type="line" smooth="yes"/>
      <point x="272.686561043286" y="799.9450492950194"/>
      <point x="218.1577347257724" y="692.8535961051858"/>
      <point x="80.13300806746395" y="685.7959237539155" type="curve"/>
      <point x="68.45418383476672" y="564.185888751171" type="line"/>
      <point x="297.7491959523676" y="570.7548717251369"/>
      <point x="434.9891285175688" y="698.3140657937007"/>
      <point x="463.1767041949938" y="925.2235858024071" type="curve" smooth="yes"/>
      <point x="490.81954910008926" y="1132.0774544549213" type="line" smooth="yes"/>
      <point x="511.79967427074445" y="1277.6624377893713"/>
      <point x="561.3641657855628" y="1421.8760045766383"/>
      <point x="706.4265109268551" y="1483.261929896844" type="curve"/>
    </contour>
    <contour>
      <point x="436.3702001117125" y="-251.26102498703418" type="line"/>
      <point x="306.8597461851105" y="-185.99299085165143"/>
      <point x="316.9770579073003" y="-26.959440188140206"/>
      <point x="332.8188300960618" y="98.00417042595011" type="curve" smooth="yes"/>
      <point x="360.00904657834747" y="305.14676830319013" type="line" smooth="yes"/>
      <point x="379.46029649631987" y="505.6678028456687"/>
      <point x="281.3798839832118" y="655.6493367878718"/>
      <point x="72.25421992921943" y="663.8256542446454" type="curve"/>
      <point x="62.429457420077114" y="541.3994561881331" type="line"/>
      <point x="191.88038321332186" y="529.3701570887655"/>
      <point x="201.22382508621632" y="417.12743142012573"/>
      <point x="188.71580692570444" y="306.2054379019552" type="curve" smooth="yes"/>
      <point x="160.98488513364777" y="98.82426647922158" type="line" smooth="yes"/>
      <point x="138.22433195262303" y="-101.12906539271246"/>
      <point x="196.17491018579312" y="-285.12019883300513"/>
      <point x="393.6783933963828" y="-364.8317854523841" type="curve"/>
    </contour>
  </outline>
</glyph>
<glyph name="asciitilde" format="2">
  <advance width="1171"/>
  <unicode hex="007E"/>
  <outline>
    <contour>
      <point x="935.6055842218528" y="777.3156839712797" type="line"/>
      <point x="922.3209587385264" y="690.325110770749"/>
      <point x="883.3849763785496" y="561.6632396609185"/>
      <point x="772.902571659053" y="563.8199720657963" type="curve" smooth="yes"/>
      <point x="710.496128705552" y="565.0382112789333"/>
      <point x="675.018399180758" y="620.2662939534044"/>
      <point x="640.1824688834591" y="663.8274578953749" type="curve" smooth="yes"/>
      <point x="582.1128956745683" y="736.4415140438593"/>
      <point x="505.9263408310978" y="801.7612255883325"/>
      <point x="408.5745822516373" y="804.0717209780778" type="curve" smooth="yes"/>
      <point x="211.4087965127174" y="808.7511499438468"/>
      <point x="116.48893015518023" y="603.3630802785959"/>
      <point x="99.52702482333578" y="436.1997749757302" type="curve"/>
      <point x="246.60362136338176" y="438.621135793149" type="line"/>
      <point x="260.25955569299657" y="523.2788113377521"/>
      <point x="292.70154651661295" y="643.6594140377886"/>
      <point x="400.6449108046114" y="641.239819431157" type="curve" smooth="yes"/>
      <point x="462.056951022015" y="639.8632434621533"/>
      <point x="499.36846030079175" y="583.9633222412089"/>
      <point x="533.8335772018467" y="541.1803921997182" type="curve" smooth="yes"/>
      <point x="592.6123884013805" y="468.2158995885044"/>
      <point x="667.3638793889338" y="403.725856867072"/>
      <point x="765.5663511994129" y="401.90853843647494" type="curve" smooth="yes"/>
      <point x="964.2840842100446" y="398.23110148373064"/>
      <point x="1054.6575462088163" y="613.9163500478859"/>
      <point x="1069.8905561510282" y="780.0635257008109" type="curve"/>
    </contour>
  </outline>
</glyph>
<glyph name="exclamdown" format="2">
  <advance width="461"/>
  <unicode hex="00A1"/>
  <outline>
    <contour>
      <point x="-22.774037677096715" y="-360.9245211462077" type="line"/>
      <point x="159.1117986501132" y="-360.94817006619866" type="line"/>
      <point x="326.92713878678046" y="683.9344130632782" type="line"/>
      <point x="171.48484832386754" y="683.9309934235224" type="line"/>
    </contour>
    <contour>
      <point x="397.1390511669515" y="997.5028243007526" type="curve" smooth="yes"/>
      <point x="399.275978287131" y="1055.7431049037712"/>
      <point x="362.34701156338843" y="1103.7499869392022"/>
      <point x="301.3910816345263" y="1102.135699778767" type="curve" smooth="yes"/>
      <point x="241.17236150804237" y="1100.5409360399237"/>
      <point x="203.4924119076159" y="1052.1733782389742"/>
      <point x="201.35101342776858" y="994.4922813346883" type="curve" smooth="yes"/>
      <point x="199.17632323787592" y="935.9144329050288"/>
      <point x="236.4740396449173" y="887.1183562938631"/>
      <point x="297.9087832433141" y="888.867873470038" type="curve" smooth="yes"/>
      <point x="358.0003106074053" y="890.5791390033219"/>
      <point x="395.04196664702516" y="940.3484226670204"/>
    </contour>
  </outline>
</glyph>
<glyph name="cent" format="2">
  <advance width="954"/>
  <unicode hex="00A2"/>
  <outline>
    <contour>
      <point x="700.9343558283934" y="1317.9185741548192" type="line"/>
      <point x="527.915373688513" y="1317.9238715487995" type="line"/>
      <point x="477.2484577536163" y="1030.0825428404248" type="line"/>
      <point x="650.2739572012049" y="1030.0731026633662" type="line"/>
    </contour>
    <contour>
      <point x="479.8678497095974" y="41.91874493294463" type="line"/>
      <point x="306.84624935262366" y="41.92581245322211" type="line"/>
      <point x="256.3524277624273" y="-244.91851525804145" type="line"/>
      <point x="429.37473592139963" y="-244.92560227826937" type="line"/>
    </contour>
    <contour>
      <point x="420.9485199905189" y="130.22826571357703" type="curve" smooth="yes"/>
      <point x="229.30309606850366" y="135.06267276779906"/>
      <point x="245.00831159713525" y="385.3976512912886"/>
      <point x="260.17613898108664" y="518.44918246005" type="curve" smooth="yes"/>
      <point x="265.29310999571476" y="560.185495970067" type="line" smooth="yes"/>
      <point x="285.934248824372" y="719.9600071130994"/>
      <point x="354.5280985660064" y="958.9232563935049"/>
      <point x="557.4349295162809" y="950.7190802278856" type="curve" smooth="yes"/>
      <point x="685.0463887965733" y="945.5593382527924"/>
      <point x="715.0850626788755" y="814.7122506593922"/>
      <point x="712.8951224317681" y="709.5378343798056" type="curve"/>
      <point x="875.372892198299" y="709.1996906990535" type="line"/>
      <point x="881.0540882291325" y="906.2002128829924"/>
      <point x="785.7750635440246" y="1095.7347581932333"/>
      <point x="567.7696031452126" y="1102.1342976421067" type="curve" smooth="yes"/>
      <point x="270.57883469448046" y="1110.8583178710599"/>
      <point x="125.34290665254488" y="816.0147590330478"/>
      <point x="94.13013473045542" y="560.3254389765934" type="curve" smooth="yes"/>
      <point x="89.17119506531971" y="517.1602575643298" type="line" smooth="yes"/>
      <point x="64.16449986345981" y="283.33977743420746"/>
      <point x="121.96968842260094" y="-14.572656543782724"/>
      <point x="410.88170694023995" y="-21.00083153175501" type="curve" smooth="yes"/>
      <point x="616.2200044640531" y="-25.569525194925692"/>
      <point x="778.2993155337717" y="148.0178230994177"/>
      <point x="806.5957643174077" y="341.95175664029415" type="curve"/>
      <point x="644.6709095830627" y="340.7159398238213" type="line"/>
      <point x="618.0650153363662" y="234.33878439819716"/>
      <point x="542.8460992433872" y="127.15330308221017"/>
    </contour>
  </outline>
</glyph>
<glyph name="brokenbar" format="2">
  <advance width="477"/>
  <unicode hex="00A6"/>
  <guideline x="0.0" y="901.0" angle="0.0" identifier="9Wo8bl43zy"/>
  <guideline x="0.0" y="555.0" angle="0.0" identifier="pYZpqLOqHp"/>
  <outline>
    <contour>
      <point x="172.954123625023" y="-269.94951814468357" type="line"/>
      <point x="310.71799213819946" y="521.9404464132366" type="line"/>
      <point x="129.93689658937944" y="521.9491844277654" type="line"/>
      <point x="-7.826971923796933" y="-269.940780130155" type="line"/>
    </contour>
    <contour>
      <point x="472.53302866974946" y="1455.9396494773532" type="line"/>
      <point x="291.74972355488256" y="1455.94838798769" type="line"/>
      <point x="159.88359292360997" y="698.0574980375693" type="line"/>
      <point x="340.66689803847737" y="698.0487595272322" type="line"/>
    </contour>
  </outline>
</glyph>
<glyph name="dieresis" format="2">
  <advance width="831"/>
  <unicode hex="00A8"/>
  <anchor x="562.5269216495218" y="1577" name="mkmktop_acc"/>
  <outline>
    <contour>
      <point x="218.19959648503504" y="1368.5882913535063" type="curve" smooth="yes"/>
      <point x="217.7111726108363" y="1307.1376696730053"/>
      <point x="263.5789244915468" y="1264.868272950564"/>
      <point x="324.3362693169008" y="1266.245303899896" type="curve" smooth="yes"/>
      <point x="385.7702816995366" y="1267.6376711377288"/>
      <point x="430.8249277620919" y="1311.5941019014247"/>
      <point x="431.54234224732" y="1373.3596868558532" type="curve" smooth="yes"/>
      <point x="432.26813357808066" y="1435.8464738142102"/>
      <point x="387.1606054762642" y="1480.2795742868332"/>
      <point x="324.6535765032464" y="1478.7610226489912" type="curve" smooth="yes"/>
      <point x="262.36419265437024" y="1477.247758502255"/>
      <point x="218.6907944334075" y="1430.3879307449881"/>
    </contour>
    <contour>
      <point x="635.9583443755901" y="1366.5857935711124" type="curve" smooth="yes"/>
      <point x="635.4682641105095" y="1304.8534059408416"/>
      <point x="680.9788618776655" y="1262.7885969465701"/>
      <point x="742.0956726365084" y="1264.2500424508626" type="curve" smooth="yes"/>
      <point x="803.1531388234796" y="1265.7100688880164"/>
      <point x="848.58141065583" y="1309.8918463367354"/>
      <point x="849.3008369346522" y="1371.356617614035" type="curve" smooth="yes"/>
      <point x="850.0289300867872" y="1433.561850286119"/>
      <point x="804.5551085584765" y="1478.1956721731522"/>
      <point x="742.4130274831184" y="1476.7652766236554" type="curve" smooth="yes"/>
      <point x="679.7366227039361" y="1475.3225819326635"/>
      <point x="636.4513710942186" y="1428.6893277778195"/>
    </contour>
  </outline>
</glyph>
<glyph name="logicalnot" format="2">
  <advance width="968"/>
  <unicode hex="00AC"/>
  <outline>
    <contour>
      <point x="843.1539122516818" y="800.9070776653504" type="line"/>
      <point x="158.94071318829674" y="800.9158251917771" type="line"/>
      <point x="130.1901831268707" y="639.0928488198323" type="line"/>
      <point x="814.4033821902581" y="639.0841012934077" type="line"/>
    </contour>
    <contour>
      <point x="830.1394633293936" y="725.9278568607436" type="line"/>
      <point x="657.116985136506" y="725.9357091279211" type="line"/>
      <point x="595.8354668268944" y="376.0720868800065" type="line"/>
      <point x="768.8579450197853" y="376.0642346128408" type="line"/>
    </contour>
  </outline>
</glyph>
<glyph name="registered" format="2">
  <advance width="1562"/>
  <unicode hex="00AE"/>
  <outline>
    <contour>
      <point x="821.1278901551478" y="654.9081803237194" type="line" smooth="yes"/>
      <point x="844.3504875806707" y="655.9896049524053"/>
      <point x="858.1144691112925" y="660.8518789472489"/>
      <point x="876.8045770483175" y="675.0655652940144" type="curve" smooth="yes"/>
      <point x="881.8521736279728" y="678.9042244836759"/>
      <point x="886.1895792956785" y="685.0050486385778"/>
      <point x="891.7379353059143" y="688.0498349997055" type="curve" smooth="yes"/>
      <point x="999.0092053555209" y="746.9173805186522"/>
      <point x="1118.1965979832457" y="767.3747798010105"/>
      <point x="1125.3666727410987" y="916.8143808044119" type="curve" smooth="yes"/>
      <point x="1133.654011935225" y="1089.5401478814847"/>
      <point x="996.6472220673995" y="1159.5394124347024"/>
      <point x="842.7096000702909" y="1163.7967978633064" type="curve" smooth="yes"/>
      <point x="584.5695546422554" y="1165.0021566743108" type="line"/>
      <point x="451.6816929882016" y="317.0575865461283" type="line"/>
      <point x="589.7684783040711" y="317.04643947980196" type="line"/>
      <point x="702.8505143697664" y="1038.0684247519437" type="line"/>
      <point x="844.1917398241228" y="1037.5139805962583" type="line" smooth="yes"/>
      <point x="933.0171833002478" y="1035.3686384202538"/>
      <point x="1005.3322123669718" y="1013.8442248760879"/>
      <point x="988.5895129619993" y="909.9412731100834" type="curve" smooth="yes"/>
      <point x="974.4577932661399" y="822.2417119811608"/>
      <point x="884.8236593132598" y="785.1689571304034"/>
      <point x="804.9757269724978" y="782.3091003055673" type="curve" smooth="yes"/>
      <point x="617.3391624032207" y="782.8902245281739" type="line"/>
      <point x="598.6884138207612" y="654.9523800027604" type="line"/>
    </contour>
    <contour>
      <point x="802.404420891993" y="653.5953314682328" type="line"/>
      <point x="895.2662697157683" y="646.3764825778179"/>
      <point x="929.0033607049857" y="609.3525167035027"/>
      <point x="920.374390577439" y="514.5549240653208" type="curve" smooth="yes"/>
      <point x="914.102820865299" y="461.5090712837755" type="line" smooth="yes"/>
      <point x="908.5476781500963" y="413.13537700273025"/>
      <point x="903.4939361482986" y="364.90926226831357"/>
      <point x="910.2052155547906" y="316.48695185002185" type="curve"/>
      <point x="1048.6655524369344" y="316.168348087095" type="line"/>
      <point x="1050.203028271425" y="333.4012844123439" type="line"/>
      <point x="1047.5961116853139" y="376.5842063506132"/>
      <point x="1044.1587164851976" y="415.80776889425954"/>
      <point x="1048.4503769696184" y="459.7211542034688" type="curve" smooth="yes"/>
      <point x="1053.8170078212297" y="515.2897234120022" type="line" smooth="yes"/>
      <point x="1064.4594201520201" y="669.1704713548936"/>
      <point x="972.5917522578266" y="739.7536175706365"/>
      <point x="825.4804466306143" y="743.8671604183248" type="curve"/>
    </contour>
    <contour>
      <point x="221.13496829884406" y="721.6710428458547" type="curve" smooth="yes"/>
      <point x="265.01233803325584" y="1056.540314097735"/>
      <point x="550.7149182890724" y="1364.5396431749239"/>
      <point x="902.8273988372165" y="1357.377349848131" type="curve" smooth="yes"/>
      <point x="1235.9468945604413" y="1350.6013913886952"/>
      <point x="1411.5307070032675" y="1042.808406018282"/>
      <point x="1371.322457826453" y="736.056497237223" type="curve" smooth="yes"/>
      <point x="1327.5985911971559" y="402.4836652334003"/>
      <point x="1043.2596968157652" y="90.15292568520493"/>
      <point x="691.2272602579658" y="97.32989521897728" type="curve" smooth="yes"/>
      <point x="356.9200696671434" y="104.14549592115128"/>
      <point x="180.83013945178487" y="414.06717448176556"/>
    </contour>
    <contour>
      <point x="108.23534073572603" y="722.358600300572" type="curve" smooth="yes"/>
      <point x="66.69742933982486" y="350.8265443215528"/>
      <point x="293.66090481586576" y="-15.076676032232127"/>
      <point x="692.4305043352947" y="-21.55722662393302" type="curve" smooth="yes"/>
      <point x="1108.0027412845009" y="-28.310843021224173"/>
      <point x="1440.9341085027697" y="339.4387956836959"/>
      <point x="1485.2089678816765" y="735.3694302860744" type="curve" smooth="yes"/>
      <point x="1526.7283624991364" y="1106.659152936876"/>
      <point x="1299.4587577081043" y="1469.842606238823"/>
      <point x="901.6101335380773" y="1476.2717203823684" type="curve" smooth="yes"/>
      <point x="486.2555341456198" y="1482.9837258219031"/>
      <point x="152.58785716378196" y="1119.065634010141"/>
    </contour>
  </outline>
</glyph>
<glyph name="degree" format="2">
  <advance width="742"/>
  <unicode hex="00B0"/>
  <outline>
    <contour>
      <point x="234.72441108881918" y="1208.3443461868262" type="curve" smooth="yes"/>
      <point x="230.188657675175" y="1078.0770630459112"/>
      <point x="325.7965568698909" y="961.0500244989814"/>
      <point x="459.8850438014173" y="958.9898796021378" type="curve" smooth="yes"/>
      <point x="605.2065189210163" y="956.7571502886784"/>
      <point x="719.849611511733" y="1084.7901695069927"/>
      <point x="724.8214543066761" y="1225.565339884928" type="curve" smooth="yes"/>
      <point x="729.3581942987172" y="1354.0207982895206"/>
      <point x="637.9603176162044" y="1475.9097726116986"/>
      <point x="503.6350691834458" y="1478.032025514703" type="curve" smooth="yes"/>
      <point x="357.88807194878154" y="1480.3347347342606"/>
      <point x="239.64831993159137" y="1349.7594913426378"/>
    </contour>
    <contour>
      <point x="355.3388480609123" y="1210.1506744372316" type="curve" smooth="yes"/>
      <point x="363.43721233481034" y="1283.1110524004366"/>
      <point x="427.7983576904695" y="1349.654827582562"/>
      <point x="503.2453766063312" y="1349.5586403250288" type="curve" smooth="yes"/>
      <point x="572.2784295969108" y="1349.4706302201669"/>
      <point x="611.3088249552696" y="1288.3383072889694"/>
      <point x="604.1022901704033" y="1223.7469254856921" type="curve" smooth="yes"/>
      <point x="596.0574719595859" y="1151.642101169284"/>
      <point x="535.0801052005273" y="1087.311081337348"/>
      <point x="460.2884654918345" y="1087.3801830997656" type="curve" smooth="yes"/>
      <point x="392.50827826240175" y="1087.4428068156355"/>
      <point x="348.0499951255229" y="1144.4834054557318"/>
    </contour>
  </outline>
</glyph>
<glyph name="plusminus" format="2">
  <advance width="934"/>
  <unicode hex="00B1"/>
  <outline>
    <contour>
      <point x="889.7320841849893" y="854.9291742247738" type="line"/>
      <point x="142.4668005496023" y="854.9356254529814" type="line"/>
      <point x="118.14997367095754" y="703.0693581415105" type="line"/>
      <point x="865.415257306338" y="703.0629069133009" type="line"/>
    </contour>
    <contour>
      <point x="666.9229331484532" y="1266.9523876630917" type="line"/>
      <point x="511.3627555574674" y="1266.958613748211" type="line"/>
      <point x="358.10683351962155" y="289.0461465872241" type="line"/>
      <point x="513.6670111106121" y="289.03992050212423" type="line"/>
    </contour>
    <contour>
      <point x="743.1001847481888" y="151.9304871696029" type="line"/>
      <point x="61.79734671179855" y="151.93693699466326" type="line"/>
      <point x="37.63932288813476" y="1.069368704628967" type="line"/>
      <point x="718.9421609245273" y="1.0629188795627182" type="line"/>
    </contour>
  </outline>
</glyph>
<glyph name="threesuperior" format="2">
  <advance width="665"/>
  <unicode hex="00B3"/>
  <outline>
    <contour>
      <point x="319.7965179781245" y="1125.3082755333523" type="line"/>
      <point x="309.72104791765344" y="1047.15243811708" type="line"/>
      <point x="419.12270993362995" y="1046.8127171143146" type="line" smooth="yes"/>
      <point x="541.8173461402856" y="1049.2822397563796"/>
      <point x="663.4317119215536" y="1114.9512374746273"/>
      <point x="668.1202286257286" y="1250.2748571857855" type="curve" smooth="yes"/>
      <point x="672.8896558972251" y="1387.9337806899507"/>
      <point x="572.6483520856627" y="1467.242952358253"/>
      <point x="441.0590751562305" y="1468.8433411216508" type="curve" smooth="yes"/>
      <point x="303.091513927601" y="1470.5213025775993"/>
      <point x="203.0125399715347" y="1382.4040567657546"/>
      <point x="188.5409010195686" y="1246.573228203822" type="curve"/>
      <point x="335.4976691571886" y="1247.5166877951233" type="line"/>
      <point x="351.6817730887102" y="1298.9744393892515"/>
      <point x="385.4301856729264" y="1340.833565159341"/>
      <point x="444.47158771966224" y="1340.5650561414548" type="curve" smooth="yes"/>
      <point x="503.1016969505433" y="1340.2984176047262"/>
      <point x="526.1392377593602" y="1296.1770399042089"/>
      <point x="519.3646725438791" y="1242.3265009561399" type="curve" smooth="yes"/>
      <point x="510.48103059614937" y="1171.7110604827474"/>
      <point x="459.1572046730248" y="1128.9452420650803"/>
      <point x="389.7977896406768" y="1125.1944655180318" type="curve"/>
    </contour>
    <contour>
      <point x="309.1359132210674" y="1010.3233707845932" type="line"/>
      <point x="385.3735020935055" y="1009.8287038602673" type="line" smooth="yes"/>
      <point x="453.5231642350848" y="1006.6030395082612"/>
      <point x="486.60693075536494" y="972.235282367416"/>
      <point x="477.8892994914354" y="901.852937694018" type="curve" smooth="yes"/>
      <point x="469.6674848197483" y="835.4735994834413"/>
      <point x="419.3183218383408" y="784.3873984324849"/>
      <point x="350.6861794796263" y="784.9190165369816" type="curve" smooth="yes"/>
      <point x="285.09913802305095" y="785.4270475769638"/>
      <point x="260.99674536031415" y="832.2851292582907"/>
      <point x="262.4862006767246" y="890.9070295542325" type="curve"/>
      <point x="119.52544166856183" y="891.4742853962421" type="line"/>
      <point x="116.56748701667499" y="751.9711203698768"/>
      <point x="201.4864621648852" y="658.863388557134"/>
      <point x="343.26035434364155" y="655.8685844040832" type="curve" smooth="yes"/>
      <point x="487.31067576726264" y="652.8256934019527"/>
      <point x="611.8117747292333" y="743.8989536239037"/>
      <point x="616.9390556933231" y="894.1049520489744" type="curve" smooth="yes"/>
      <point x="621.570142651589" y="1029.7747242404307"/>
      <point x="528.3446972132288" y="1084.8065562140007"/>
      <point x="403.42197418994556" y="1088.0555612256362" type="curve" smooth="yes"/>
      <point x="315.4238641388671" y="1088.553032506064" type="line"/>
    </contour>
  </outline>
</glyph>
<glyph name="periodcentered" format="2">
  <advance width="484"/>
  <unicode hex="00B7"/>
  <guideline x="0.0" y="901.0" angle="0.0" identifier="fj7dfE2Z1I"/>
  <guideline x="0.0" y="555.0" angle="0.0" identifier="J9zHsWSVAM"/>
  <outline>
    <contour>
      <point x="157.23347931302135" y="726.2120735716478" type="curve" smooth="yes"/>
      <point x="156.52632403510952" y="665.2053232347465"/>
      <point x="195.9108389575173" y="617.177961913945"/>
      <point x="259.2153776553526" y="618.8667792893483" type="curve" smooth="yes"/>
      <point x="322.9832980596314" y="620.5679586074083"/>
      <point x="362.61798563803796" y="670.145114066122"/>
      <point x="363.5309056215349" y="731.7155056645921" type="curve" smooth="yes"/>
      <point x="364.453021263029" y="793.9060833408408"/>
      <point x="324.80859345542444" y="844.0031218022001"/>
      <point x="259.8541613786547" y="842.1423214739283" type="curve" smooth="yes"/>
      <point x="195.26688187502396" y="840.2920392520701"/>
      <point x="157.94388431663398" y="787.499179879417"/>
    </contour>
  </outline>
</glyph>
<glyph name="onesuperior" format="2">
  <advance width="665"/>
  <unicode hex="00B9"/>
  <outline>
    <contour>
      <point x="576.1426050682096" y="1455.8662185832363" type="line"/>
      <point x="555.5141253700508" y="1455.6220434707366" type="line"/>
      <point x="246.80966775342827" y="1344.2298845402797" type="line"/>
      <point x="222.38582569050374" y="1207.6135700183677" type="line"/>
      <point x="403.63427976242394" y="1263.6805837015065" type="line"/>
      <point x="299.6303388732665" y="667.0" type="line"/>
      <point x="444.5238790826128" y="667.0" type="line"/>
    </contour>
  </outline>
</glyph>
<glyph name="Eth" format="2">
  <advance width="1164"/>
  <unicode hex="00D0"/>
  <anchor x="692.8354482785601" y="1612" name="parent_top"/>
  <anchor x="419.9185825253454" y="10" name="bottom"/>
  <anchor x="1317.3120635163637" y="1600" name="top_dd"/>
  <anchor x="970.5384620390216" y="-407" name="bottom_dd"/>
  <anchor x="1319.38544827856" y="1612" name="top0315"/>
  <anchor x="692.8354482785601" y="1612" name="top"/>
  <outline>
    <contour>
      <point x="410.3260568777719" y="0.0" type="line" smooth="yes"/>
      <point x="783.3737178751527" y="-2.5611589592127535"/>
      <point x="992.1473045138275" y="253.30453748825863"/>
      <point x="1044.6289530770018" y="604.1443454480967" type="curve" smooth="yes"/>
      <point x="1082.157278809306" y="851.3409401272133" type="line" smooth="yes"/>
      <point x="1121.9961321932542" y="1163.101708598083"/>
      <point x="1001.6473720491683" y="1446.6887185790642"/>
      <point x="655.6762637969731" y="1455.0413069766953" type="curve" smooth="yes"/>
      <point x="405.24160448918724" y="1456.077162660279" type="line"/>
      <point x="377.1764284986497" y="1298.3120208671237" type="line"/>
      <point x="651.3057272556937" y="1297.0539495451699" type="line" smooth="yes"/>
      <point x="907.0592674818502" y="1289.3150145859845"/>
      <point x="932.2867355986681" y="1065.652541121608"/>
      <point x="904.4974126400631" y="853.9265730108588" type="curve" smooth="yes"/>
      <point x="866.7264973606259" y="603.6973657993427" type="line" smooth="yes"/>
      <point x="827.4763547117718" y="345.50172951695924"/>
      <point x="694.8545734609406" y="154.4344381040093"/>
      <point x="415.28537832991964" y="155.54478330511347" type="curve" smooth="yes"/>
      <point x="186.59938222951473" y="157.09915746377987" type="line"/>
      <point x="157.10397759363997" y="0.0" type="line"/>
    </contour>
    <contour>
      <point x="510.2921535860647" y="1455.9346760883207" type="line"/>
      <point x="330.4797409430513" y="1455.9429040150083" type="line"/>
      <point x="77.68408316959314" y="0.0" type="line"/>
      <point x="257.4964958126033" y="0.0" type="line"/>
    </contour>
    <contour>
      <point x="612.0591779175962" y="816.91162756104" type="line"/>
      <point x="84.98589640488825" y="816.9203356211585" type="line"/>
      <point x="58.0082298903277" y="665.0883464332651" type="line"/>
      <point x="585.0815114030388" y="665.079638373147" type="line"/>
    </contour>
  </outline>
</glyph>
<glyph name="Oslash" format="2">
  <advance width="1194"/>
  <unicode hex="00D8"/>
  <anchor x="787.9379362165747" y="1674" name="top"/>
  <anchor x="1347.452063516364" y="1600" name="top_dd"/>
  <anchor x="1360.2379362165748" y="1674" name="top0315"/>
  <anchor x="787.9379362165747" y="1674" name="parent_top"/>
  <outline>
    <contour>
      <point x="1262.4065155498622" y="1515.6554621919552" type="line"/>
      <point x="1124.411488934389" y="1515.6836560468842" type="line"/>
      <point x="25.1764709452968" y="-92.6521123593439" type="line"/>
      <point x="165.1005399624006" y="-92.68634872375586" type="line"/>
    </contour>
    <contour>
      <point x="1108.634987748831" y="774.2875711404107" type="line" smooth="yes"/>
      <point x="1145.6436931285625" y="1057.1273434320708"/>
      <point x="1097.0631058568447" y="1466.71276848307"/>
      <point x="732.8929229850924" y="1476.2035384976327" type="curve" smooth="yes"/>
      <point x="360.55502576450004" y="1485.907170251227"/>
      <point x="186.8678471967026" y="1083.5859229999367"/>
      <point x="142.0864077799427" y="773.498044238639" type="curve" smooth="yes"/>
      <point x="129.27581224328486" y="681.7268755367809" type="line" smooth="yes"/>
      <point x="92.95645312913399" y="400.91784461921725"/>
      <point x="144.43514560634753" y="-10.545753346466565"/>
      <point x="506.1285694452432" y="-19.990925089524374" type="curve" smooth="yes"/>
      <point x="882.941860275514" y="-29.8309332632532"/>
      <point x="1050.0025074229732" y="369.83968034267195"/>
      <point x="1095.777991773861" y="683.4655845131147" type="curve" smooth="yes"/>
    </contour>
    <contour>
      <point x="917.1530142046695" y="681.8329664595261" type="line" smooth="yes"/>
      <point x="886.766667421448" y="466.79819311480696"/>
      <point x="793.1187856018637" y="130.50943722922938"/>
      <point x="516.2859269824942" y="142.2445533813123" type="curve" smooth="yes"/>
      <point x="264.0987192215589" y="152.93492514535612"/>
      <point x="285.27824185547354" y="509.84086060294294"/>
      <point x="307.22055464355964" y="681.2282954773813" type="curve" smooth="yes"/>
      <point x="320.1786645653343" y="776.1847140081261" type="line" smooth="yes"/>
      <point x="350.37377249046204" y="986.6195850068951"/>
      <point x="451.93900735659884" y="1324.5056360863498"/>
      <point x="722.5977265620211" y="1313.6287832842513" type="curve" smooth="yes"/>
      <point x="978.3850150732962" y="1303.3495626703627"/>
      <point x="952.318159824602" y="952.662676210958"/>
      <point x="930.1348135021237" y="778.0359197893782" type="curve" smooth="yes"/>
    </contour>
  </outline>
</glyph>
<glyph name="ae" format="2">
  <advance width="1447"/>
  <unicode hex="00E6"/>
  <anchor x="839.1324058898074" y="1291" name="top"/>
  <anchor x="1600.6220635163636" y="1600" name="top_dd"/>
  <anchor x="1547.2324058898073" y="1291" name="top0315"/>
  <anchor x="839.1324058898074" y="1291" name="parent_top"/>
  <outline>
    <contour>
      <point x="546.4895852928362" y="180.7544007988012" type="line"/>
      <point x="719.922980948637" y="215.63451580562514" type="line"/>
      <point x="802.7601115195606" y="718.2141628245369" type="line"/>
      <point x="823.1263467046713" y="913.9238852033739"/>
      <point x="743.8598277748918" y="1097.3305159049169"/>
      <point x="525.9615686285005" y="1102.8664264457261" type="curve" smooth="yes"/>
      <point x="325.7524235254089" y="1107.9529283805489"/>
      <point x="158.58523029803592" y="980.1440202302875"/>
      <point x="137.61728796199225" y="778.0517434394693" type="curve"/>
      <point x="306.35515155134345" y="761.1870239503289" type="line"/>
      <point x="325.76250162794133" y="864.954530941905"/>
      <point x="401.2393504449609" y="954.3650988143081"/>
      <point x="514.7799052658427" y="951.1520461891814" type="curve" smooth="yes"/>
      <point x="635.1666536851844" y="947.7452550329338"/>
      <point x="645.3066429411122" y="814.151783608974"/>
      <point x="635.5620694262615" y="721.7819882664822" type="curve"/>
    </contour>
    <contour>
      <point x="663.2378774857076" y="636.0094311256868" type="line"/>
      <point x="443.91319866052584" y="637.2430858349359" type="line" smooth="yes"/>
      <point x="225.04618830333408" y="637.1930408181858"/>
      <point x="45.17267048310279" y="529.2666017619558"/>
      <point x="30.32299077503454" y="296.1520759529568" type="curve" smooth="yes"/>
      <point x="19.532291134839042" y="126.75658196093588"/>
      <point x="99.01791917056713" y="-17.311635617826344"/>
      <point x="281.9050659457692" y="-21.151208887344325" type="curve" smooth="yes"/>
      <point x="441.1862077517372" y="-24.495192459728546"/>
      <point x="601.8978495920413" y="50.60855968909192"/>
      <point x="678.84303110948" y="193.9536014018125" type="curve"/>
      <point x="611.0748810064732" y="339.2557973029794" type="line"/>
      <point x="584.2701108901725" y="229.5734675608648"/>
      <point x="437.24721187720843" y="125.4122768168309"/>
      <point x="325.4756372230046" y="127.56747500674282" type="curve" smooth="yes"/>
      <point x="230.42680296646478" y="129.40022252038116"/>
      <point x="193.90199335055829" y="205.35053977098136"/>
      <point x="203.85989176426864" y="291.8729600954377" type="curve" smooth="yes"/>
      <point x="218.12684524801696" y="415.8359987593751"/>
      <point x="320.0452205333772" y="495.5666714247855"/>
      <point x="441.3919007712965" y="497.8585862338009" type="curve" smooth="yes"/>
      <point x="638.2769000770345" y="495.95483156287725" type="line"/>
    </contour>
    <contour>
      <point x="956.4283312479233" y="-20.57094367380923" type="curve" smooth="yes"/>
      <point x="1068.275606375309" y="-21.89247925782084"/>
      <point x="1201.7104798936723" y="14.518861541389697"/>
      <point x="1278.917260208342" y="101.22362486081057" type="curve"/>
      <point x="1232.0888309927725" y="237.27241674416342" type="line"/>
      <point x="1150.8461686864541" y="177.83679533849048"/>
      <point x="1067.3959645113275" y="129.64535332726092"/>
      <point x="963.0169317956108" y="132.3393782841411" type="curve" smooth="yes"/>
      <point x="766.2633659409873" y="137.41759181971943"/>
      <point x="761.6614710232365" y="372.67882776100754"/>
      <point x="777.1214347902761" y="518.1749860744243" type="curve" smooth="yes"/>
      <point x="782.240128963679" y="561.7743364506327" type="line" smooth="yes"/>
      <point x="800.9023127095228" y="708.705254450167"/>
      <point x="872.9242766844362" y="958.665566140957"/>
      <point x="1063.2819874349996" y="951.7108189048596" type="curve" smooth="yes"/>
      <point x="1212.6118053161658" y="946.2550318286175"/>
      <point x="1225.635701671785" y="789.3373233297465"/>
      <point x="1208.348888690215" y="672.4563048444872" type="curve" smooth="yes"/>
      <point x="1202.7825916908205" y="639.5958887383057" type="line"/>
      <point x="725.6760446968823" y="639.9200204151895" type="line"/>
      <point x="700.3570753816894" y="498.09263693166565" type="line"/>
      <point x="1355.6377273810556" y="497.96721262401206" type="line"/>
      <point x="1373.0543342596059" y="616.2652664985704" type="line" smooth="yes"/>
      <point x="1400.1550344361065" y="838.9782200321988"/>
      <point x="1340.966904825063" y="1094.3055341134675"/>
      <point x="1074.9466107872706" y="1102.4425513948167" type="curve" smooth="yes"/>
      <point x="793.4159709090387" y="1111.0539984658174"/>
      <point x="649.8903192841236" y="799.0456477662486"/>
      <point x="622.4746493203255" y="562.2580240436716" type="curve" smooth="yes"/>
      <point x="617.6209038789771" y="517.0605265300807" type="line" smooth="yes"/>
      <point x="593.6144886192545" y="273.92294661193563"/>
      <point x="660.7943933950185" y="-17.077870031477556"/>
    </contour>
  </outline>
</glyph>
<glyph name="oslash" format="2">
  <advance width="990"/>
  <unicode hex="00F8"/>
  <anchor x="579.7968417627746" y="1289" name="top"/>
  <anchor x="1143.7520635163637" y="1600" name="top_dd"/>
  <anchor x="1090.0168417627747" y="1289" name="top0315"/>
  <anchor x="579.7968417627746" y="1289" name="parent_top"/>
  <outline>
    <contour>
      <point x="939.5790060465047" y="1208.6475614145575" type="line"/>
      <point x="820.0495607977613" y="1208.705373188614" type="line"/>
      <point x="45.89328863535253" y="-134.67920311854965" type="line"/>
      <point x="165.7099534164492" y="-134.6915774462152" type="line"/>
    </contour>
    <contour>
      <point x="83.42983108678372" y="521.5536874099612" type="line" smooth="yes"/>
      <point x="58.38474013133485" y="289.2365497040165"/>
      <point x="126.44782306816847" y="-12.730930346634459"/>
      <point x="410.6822824673503" y="-20.895226360070943" type="curve" smooth="yes"/>
      <point x="708.1739008609145" y="-29.44031846190613"/>
      <point x="859.8697215657227" y="275.88016178284715"/>
      <point x="892.0112306549124" y="530.6058225793868" type="curve" smooth="yes"/>
      <point x="894.814697205846" y="554.5874022741427" type="line" smooth="yes"/>
      <point x="919.8876744108009" y="787.9500605433343"/>
      <point x="853.5948795406346" y="1094.5535821862456"/>
      <point x="566.8651168183312" y="1102.747432091703" type="curve" smooth="yes"/>
      <point x="266.98177372254145" y="1111.3171706467253"/>
      <point x="118.13981701977514" y="799.8886791835158"/>
      <point x="86.14732133500327" y="544.7767953073948" type="curve" smooth="yes"/>
    </contour>
    <contour>
      <point x="259.0642804757681" y="545.9025251987088" type="line" smooth="yes"/>
      <point x="279.4236461110175" y="702.3084819885487"/>
      <point x="354.1757143254716" y="958.8599141476734"/>
      <point x="555.5190317884295" y="950.9565758863026" type="curve" smooth="yes"/>
      <point x="741.951290954664" y="943.638542064329"/>
      <point x="735.9448484164358" y="683.8555573193896"/>
      <point x="721.292565701293" y="553.8193195094201" type="curve" smooth="yes"/>
      <point x="718.6020196036964" y="531.3122871188576" type="line" smooth="yes"/>
      <point x="697.9819005030454" y="374.7986034936779"/>
      <point x="621.8739571938955" y="122.47102598953003"/>
      <point x="421.502361231083" y="130.24528421522527" type="curve" smooth="yes"/>
      <point x="235.09288460068277" y="137.47782333873653"/>
      <point x="241.67775466111297" y="391.9354468116554"/>
      <point x="256.30196060061854" y="522.5930354854527" type="curve" smooth="yes"/>
    </contour>
  </outline>
</glyph>
<glyph name="thorn" format="2">
  <advance width="1010"/>
  <unicode hex="00FE"/>
  <outline>
    <contour>
      <point x="472.81097918800833" y="1535.9360780221098" type="line"/>
      <point x="299.7912549741519" y="1535.944813057928" type="line"/>
      <point x="-38.93727552847844" y="-415.93721237087186" type="line"/>
      <point x="134.08244868541607" y="-415.94594740669925" type="line"/>
    </contour>
    <contour>
      <point x="887.3728702202277" y="555.5070233043238" type="line" smooth="yes"/>
      <point x="910.7358810249374" y="762.1942852714017"/>
      <point x="894.1067992539828" y="1093.863164474093"/>
      <point x="617.7904461728267" y="1102.834555074752" type="curve" smooth="yes"/>
      <point x="341.632136078169" y="1111.800814363609"/>
      <point x="216.4074530377597" y="815.7335674299939"/>
      <point x="178.2632454110751" y="585.4909312337963" type="curve" smooth="yes"/>
      <point x="164.14549724986654" y="473.8451268802752" type="line"/>
      <point x="148.59638533427352" y="262.20219288927785"/>
      <point x="206.87097698345292" y="-14.077879718638439"/>
      <point x="464.14525118923325" y="-21.315641987548503" type="curve" smooth="yes"/>
      <point x="747.7259489249852" y="-29.293469077331043"/>
      <point x="855.8996712505848" y="307.9102713608919"/>
      <point x="884.8007177146246" y="534.2270994385531" type="curve" smooth="yes"/>
    </contour>
    <contour>
      <point x="711.77837806605" y="536.2909651453414" type="line" smooth="yes"/>
      <point x="691.6410801856466" y="379.7827714845606"/>
      <point x="622.6663607066818" y="123.53450330043833"/>
      <point x="420.23027748061133" y="131.10587879087242" type="curve" smooth="yes"/>
      <point x="288.33349817421816" y="136.03899163416128"/>
      <point x="230.3496157115518" y="282.0967588038789"/>
      <point x="233.08256227362318" y="398.6289988399626" type="curve"/>
      <point x="274.1298187404809" y="659.7282003225359" type="line"/>
      <point x="304.6751008020427" y="788.4668292304686"/>
      <point x="403.5665215243131" y="952.9879473805786"/>
      <point x="553.6909330563162" y="948.1327235020585" type="curve" smooth="yes"/>
      <point x="739.3077705896287" y="942.1296271858075"/>
      <point x="728.5913181934502" y="685.4911441328273"/>
      <point x="714.268191534692" y="557.5270394187036" type="curve" smooth="yes"/>
    </contour>
  </outline>
</glyph>
<glyph name="Aogonek" format="2">
  <advance width="1146"/>
  <unicode hex="0104"/>
  <anchor x="749.1348455798801" y="1601" name="parent_top"/>
  <anchor x="482.21076189018174" y="0" name="bottom"/>
  <anchor x="1298.952063516364" y="1600" name="top_dd"/>
  <anchor x="952.1784620390217" y="-407" name="bottom_dd"/>
  <anchor x="1299.1248455798802" y="1601" name="top0315"/>
  <anchor x="749.1348455798801" y="1601" name="top"/>
  <outline>
    <contour>
      <point x="735.4097708832802" y="1316.9095717327752" type="line"/>
      <point x="760.8195121590301" y="1455.899956697137" type="line"/>
      <point x="641.5300720475636" y="1455.748566668729" type="line"/>
      <point x="-66.47115865826095" y="0.0" type="line"/>
      <point x="124.12617368813214" y="0.0" type="line"/>
    </contour>
    <contour>
      <point x="821.3374332733541" y="0.0" type="line"/>
      <point x="998.2066571235841" y="0.0" type="line"/>
      <point x="795.771117923031" y="1456.0110680856926" type="line"/>
      <point x="682.9097611817152" y="1455.9347636254254" type="line"/>
      <point x="663.7054615918937" y="1338.3891075683473" type="line"/>
    </contour>
    <contour>
      <point x="913.184198758883" y="538.9099471360499" type="line"/>
      <point x="230.91169465914925" y="538.9187061451383" type="line"/>
      <point x="202.86978981620638" y="381.09140890557484" type="line"/>
      <point x="885.1422939159324" y="381.08264989645755" type="line"/>
    </contour>
    <contour>
      <point x="900.2188682646042" y="57.822733503416" type="line"/>
      <point x="776.9799323401518" y="-4.0183141541224145"/>
      <point x="651.3699900696565" y="-99.55639636010068"/>
      <point x="646.673237506297" y="-250.02421233258616" type="curve" smooth="yes"/>
      <point x="643.7633684965174" y="-343.246418263397"/>
      <point x="689.4965252050648" y="-434.07721285721067"/>
      <point x="793.4002428770505" y="-433.9713221171549" type="curve" smooth="yes"/>
      <point x="841.4623544833408" y="-433.92234088067306"/>
      <point x="885.5826646834098" y="-419.2822563293645"/>
      <point x="924.593534378284" y="-391.9018049210645" type="curve"/>
      <point x="924.3988719797595" y="-269.0405582751919" type="line"/>
      <point x="899.5304712482782" y="-281.1562870862957"/>
      <point x="870.514067171428" y="-295.9321779231106"/>
      <point x="841.8993426122063" y="-294.3489336707772" type="curve" smooth="yes"/>
      <point x="803.0675954498182" y="-292.20038457761115"/>
      <point x="794.9530276622024" y="-263.7544626951085"/>
      <point x="798.0447821568202" y="-229.20051989924232" type="curve" smooth="yes"/>
      <point x="806.5662658117277" y="-133.96305545626518"/>
      <point x="898.5641241020033" y="-60.08006756015297"/>
      <point x="965.5586778576226" y="-2.89644977053244" type="curve"/>
    </contour>
  </outline>
</glyph>
<glyph name="aogonek" format="2">
  <advance width="952"/>
  <unicode hex="0105"/>
  <anchor x="612.9496238262909" y="1290" name="parent_top"/>
  <anchor x="323.13076189018176" y="0" name="bottom"/>
  <anchor x="1104.9520635163638" y="1600" name="top_dd"/>
  <anchor x="758.1784620390216" y="-407" name="bottom_dd"/>
  <anchor x="1051.389623826291" y="1290" name="top0315"/>
  <anchor x="612.9496238262909" y="1290" name="top"/>
  <outline>
    <contour>
      <point x="572.975229191045" y="184.88923894765165" type="line" smooth="yes"/>
      <point x="564.727432779217" y="123.66766371935239"/>
      <point x="561.1467846189275" y="59.967368276738924"/>
      <point x="574.7929984870585" y="-0.6495287327879502" type="curve"/>
      <point x="748.1426364127663" y="0.0" type="line"/>
      <point x="749.7728784496394" y="16.652882624127756" type="line"/>
      <point x="745.7114386244219" y="91.92737011486133"/>
      <point x="739.918988571385" y="159.73771487237332"/>
      <point x="752.346804628921" y="235.67157852175302" type="curve" smooth="yes"/>
      <point x="840.3374533545575" y="770.1432920922831" type="line"/>
      <point x="859.8001046408856" y="970.262951827064"/>
      <point x="754.7204513662506" y="1099.957016644625"/>
      <point x="551.3933201804753" y="1103.2483048083782" type="curve" smooth="yes"/>
      <point x="362.2973117879967" y="1106.3092315553677"/>
      <point x="183.02535467826254" y="976.0356177278733"/>
      <point x="163.8020730067675" y="781.7848117328846" type="curve"/>
      <point x="335.2951880472562" y="783.0692238232508" type="line"/>
      <point x="355.2733701503266" y="882.1568055101939"/>
      <point x="427.55571993005594" y="952.2502969174977"/>
      <point x="532.4714798228657" y="951.4569603241678" type="curve" smooth="yes"/>
      <point x="645.8960750765127" y="950.5992828685568"/>
      <point x="677.995775681443" y="877.4851140545661"/>
      <point x="667.6118379510586" y="774.0531262670322" type="curve"/>
    </contour>
    <contour>
      <point x="681.0178362854068" y="656.1273926434272" type="line"/>
      <point x="523.0766899121144" y="657.15825810571" type="line" smooth="yes"/>
      <point x="291.186259851347" y="657.0119399242346"/>
      <point x="74.1894756134352" y="538.6415633878167"/>
      <point x="58.663264039600236" y="286.7562067001154" type="curve" smooth="yes"/>
      <point x="47.87063601376437" y="111.66488149451166"/>
      <point x="145.76389898142605" y="-21.33658003396658"/>
      <point x="328.4550801484229" y="-22.0437827077317" type="curve" smooth="yes"/>
      <point x="478.0565095437521" y="-22.622894026579385"/>
      <point x="605.0074248640094" y="105.01788935858627"/>
      <point x="637.465384879287" y="245.36608469681732" type="curve"/>
      <point x="609.6501972917463" y="329.06996000154135" type="line"/>
      <point x="586.3822944461762" y="219.51260994681348"/>
      <point x="473.74751958529737" y="137.86814543343178"/>
      <point x="363.26688014047215" y="138.12209853539824" type="curve" smooth="yes"/>
      <point x="255.67082859280418" y="138.36942106346453"/>
      <point x="225.4412673661777" y="210.49722180424817"/>
      <point x="236.893636668491" y="308.91505071102137" type="curve" smooth="yes"/>
      <point x="255.42134933019491" y="468.13601247350164"/>
      <point x="407.9479123920512" y="526.4883801976513"/>
      <point x="550.1757478840511" y="527.4162230597098" type="curve" smooth="yes"/>
      <point x="659.8940368700381" y="526.4288214196871" type="line"/>
    </contour>
    <contour>
      <point x="647.0488682646042" y="57.822733503416" type="line"/>
      <point x="523.8099323401517" y="-4.0183141541224145"/>
      <point x="398.19999006965645" y="-99.55639636010068"/>
      <point x="393.5032375062969" y="-250.02421233258616" type="curve" smooth="yes"/>
      <point x="390.59336849651726" y="-343.246418263397"/>
      <point x="436.3265252050647" y="-434.07721285721067"/>
      <point x="540.2302428770504" y="-433.9713221171549" type="curve" smooth="yes"/>
      <point x="588.2923544833407" y="-433.92234088067306"/>
      <point x="632.4126646834097" y="-419.2822563293645"/>
      <point x="671.4235343782839" y="-391.9018049210645" type="curve"/>
      <point x="671.2288719797593" y="-269.0405582751919" type="line"/>
      <point x="646.360471248278" y="-281.1562870862957"/>
      <point x="617.3440671714278" y="-295.9321779231106"/>
      <point x="588.7293426122061" y="-294.3489336707772" type="curve" smooth="yes"/>
      <point x="549.897595449818" y="-292.20038457761115"/>
      <point x="541.7830276622022" y="-263.7544626951085"/>
      <point x="544.8747821568201" y="-229.20051989924232" type="curve" smooth="yes"/>
      <point x="553.3962658117275" y="-133.96305545626518"/>
      <point x="645.3941241020032" y="-60.08006756015297"/>
      <point x="712.3886778576224" y="-2.89644977053244" type="curve"/>
    </contour>
  </outline>
</glyph>
<glyph name="dcroat" format="2">
  <advance width="1051"/>
  <unicode hex="0111"/>
  <anchor x="421.10076189018173" y="0" name="bottom"/>
  <anchor x="643.1926662150438" y="1611" name="top"/>
  <anchor x="1138.9020635163638" y="1600" name="top_dd"/>
  <anchor x="792.1284620390217" y="-407" name="bottom_dd"/>
  <anchor x="421.10076189018173" y="0" name="markbottom"/>
  <anchor x="1206.7626662150437" y="1611" name="top0315"/>
  <anchor x="867.6352650966184" y="1310" name="parenthesses.w2"/>
  <anchor x="867.6352650966184" y="1310" name="markparenthesses.w2"/>
  <anchor x="643.1926662150438" y="1611" name="parent_top"/>
  <outline>
    <contour>
      <point x="613.071646471912" y="221.0567964576551" type="line"/>
      <point x="589.7583018490857" y="0.0" type="line"/>
      <point x="746.4262711214085" y="0.0" type="line"/>
      <point x="1013.1043324867501" y="1535.9366738805938" type="line"/>
      <point x="841.0664802425201" y="1535.9472700749018" type="line"/>
    </contour>
    <contour>
      <point x="80.09316069724683" y="521.1674219205319" type="line" smooth="yes"/>
      <point x="58.50489433673909" y="324.188908465834"/>
      <point x="91.51632890153331" y="-12.006263350034782"/>
      <point x="354.33782455135287" y="-21.24720593310739" type="curve" smooth="yes"/>
      <point x="629.5693181391277" y="-30.924490597398094"/>
      <point x="749.8532726048162" y="266.0889146474141"/>
      <point x="786.97661772493" y="494.2992140433182" type="curve" smooth="yes"/>
      <point x="798.2460697635211" y="586.1469968816136" type="line" smooth="yes"/>
      <point x="814.6234880502878" y="794.0342525601851"/>
      <point x="776.1087757486205" y="1095.644414855498"/>
      <point x="512.2758427308272" y="1102.8590214283586" type="curve" smooth="yes"/>
      <point x="227.00442072418986" y="1110.6598712036955"/>
      <point x="111.35743200536479" y="771.392475322989"/>
      <point x="82.61061451745705" y="542.4559645739022" type="curve" smooth="yes"/>
    </contour>
    <contour>
      <point x="257.1407704704016" y="544.4359526803615" type="line" smooth="yes"/>
      <point x="277.1534221940353" y="700.0100982130933"/>
      <point x="343.9250846289209" y="954.7483231460044"/>
      <point x="546.0565501733597" y="946.1354829215123" type="curve" smooth="yes"/>
      <point x="682.8499443289427" y="940.3067038917131"/>
      <point x="734.6881155823058" y="776.3585973717782"/>
      <point x="729.4095030378282" y="660.013376870493" type="curve"/>
      <point x="691.5368014226021" y="417.17089524946135" type="line"/>
      <point x="657.6724136117116" y="288.1511144256853"/>
      <point x="559.834531723074" y="129.05560856668825"/>
      <point x="409.6121910914951" y="134.41301109719666" type="curve" smooth="yes"/>
      <point x="225.42286283353891" y="140.98178355243283"/>
      <point x="240.42880527938996" y="397.0989726168149"/>
      <point x="254.65728476382986" y="523.2730989593068" type="curve" smooth="yes"/>
    </contour>
    <contour>
      <point x="1145.095294328895" y="1384.9102087756148" type="line"/>
      <point x="617.0630115098667" y="1384.9190966300075" type="line"/>
      <point x="590.0889479779889" y="1233.0894459495162" type="line"/>
      <point x="1118.121230797023" y="1233.08055809514" type="line"/>
    </contour>
  </outline>
</glyph>
<glyph name="Eogonek" format="2">
  <advance width="987"/>
  <unicode hex="0118"/>
  <anchor x="698.65544827856" y="1612" name="parent_top"/>
  <anchor x="421.85858252534535" y="10" name="bottom"/>
  <anchor x="1140.8420635163639" y="1600" name="top_dd"/>
  <anchor x="794.0684620390216" y="-407" name="bottom_dd"/>
  <anchor x="1142.91544827856" y="1612" name="top0315"/>
  <anchor x="698.65544827856" y="1612" name="top"/>
  <outline>
    <contour>
      <point x="836.3373526072047" y="156.91296970089476" type="line"/>
      <point x="221.94624596021794" y="156.92164536466439" type="line"/>
      <point x="194.08307072036558" y="0.0" type="line"/>
      <point x="808.4741773673503" y="0.0" type="line"/>
    </contour>
    <contour>
      <point x="480.29655168105285" y="1455.9444263879625" type="line"/>
      <point x="300.47850682754756" y="1455.9536287430305" type="line"/>
      <point x="47.6787663488286" y="0.0" type="line"/>
      <point x="227.49681120233606" y="0.0" type="line"/>
    </contour>
    <contour>
      <point x="870.4814344655285" y="829.9102325066949" type="line"/>
      <point x="338.54939398756886" y="829.9188613242615" type="line"/>
      <point x="310.6858525894091" y="673.0884933703146" type="line"/>
      <point x="842.6178930673741" y="673.0798645527461" type="line"/>
    </contour>
    <contour>
      <point x="1051.6915112421339" y="1455.9066573017194" type="line"/>
      <point x="447.00347825598703" y="1455.9153278614026" type="line"/>
      <point x="418.963523625967" y="1298.091008077747" type="line"/>
      <point x="1023.6515566121177" y="1298.0823375180667" type="line"/>
    </contour>
    <contour>
      <point x="681.9688682646041" y="57.822733503416" type="line"/>
      <point x="558.7299323401517" y="-4.0183141541224145"/>
      <point x="433.1199900696564" y="-99.55639636010068"/>
      <point x="428.42323750629686" y="-250.02421233258616" type="curve" smooth="yes"/>
      <point x="425.5133684965172" y="-343.246418263397"/>
      <point x="471.24652520506464" y="-434.07721285721067"/>
      <point x="575.1502428770503" y="-433.9713221171549" type="curve" smooth="yes"/>
      <point x="623.2123544833407" y="-433.92234088067306"/>
      <point x="667.3326646834097" y="-419.2822563293645"/>
      <point x="706.3435343782837" y="-391.9018049210645" type="curve"/>
      <point x="706.1488719797594" y="-269.0405582751919" type="line"/>
      <point x="681.280471248278" y="-281.1562870862957"/>
      <point x="652.2640671714278" y="-295.9321779231106"/>
      <point x="623.649342612206" y="-294.3489336707772" type="curve" smooth="yes"/>
      <point x="584.817595449818" y="-292.20038457761115"/>
      <point x="576.7030276622022" y="-263.7544626951085"/>
      <point x="579.79478215682" y="-229.20051989924232" type="curve" smooth="yes"/>
      <point x="588.3162658117275" y="-133.96305545626518"/>
      <point x="680.3141241020032" y="-60.08006756015297"/>
      <point x="747.3086778576223" y="-2.89644977053244" type="curve"/>
    </contour>
  </outline>
</glyph>
<glyph name="Hbar" format="2">
  <advance width="1215"/>
  <unicode hex="0126"/>
  <anchor x="789.8354482785601" y="1612" name="top"/>
  <anchor x="513.0385825253454" y="10" name="bottom"/>
  <anchor x="1370.86544827856" y="1612" name="top0315"/>
  <anchor x="789.8354482785601" y="1612" name="parent_top"/>
  <outline>
    <contour>
      <point x="1282.9552667981072" y="1166.9058466353888" type="line"/>
      <point x="143.78605535748437" y="1166.9138986616733" type="line"/>
      <point x="118.29011912266598" y="1024.0919245435725" type="line"/>
      <point x="1257.459330563297" y="1024.0838725172923" type="line"/>
    </contour>
    <contour>
      <point x="959.7188116676955" y="829.9097037424016" type="line"/>
      <point x="347.2810898047235" y="829.918375583854" type="line"/>
      <point x="319.41930002549634" y="673.0887673128236" type="line"/>
      <point x="931.857021888475" y="673.080095471376" type="line"/>
    </contour>
    <contour>
      <point x="481.26523197669576" y="1455.941359552582" type="line"/>
      <point x="301.44837352897605" y="1455.950545722502" type="line"/>
      <point x="48.65061713785592" y="0.0" type="line"/>
      <point x="228.46747558557684" y="0.0" type="line"/>
    </contour>
    <contour>
      <point x="1227.1946535930704" y="1455.9413595526655" type="line"/>
      <point x="1047.3777951453906" y="1455.950545722608" type="line"/>
      <point x="794.5800387541811" y="0.0" type="line"/>
      <point x="974.3968972019877" y="0.0" type="line"/>
    </contour>
  </outline>
</glyph>
<glyph name="dotlessi" format="2">
  <advance width="468"/>
  <unicode hex="0131"/>
  <anchor x="350.70405969925827" y="1288" name="top"/>
  <anchor x="126.00858252534535" y="10" name="bottom"/>
  <anchor x="264.4402314298836" y="654" name="rhotichook"/>
  <anchor x="567.0140596992583" y="1288" name="top0315"/>
  <anchor x="350.70405969925827" y="1288" name="parent_top"/>
  <outline>
    <contour>
      <point x="399.0055714678542" y="1081.9401921651238" type="line"/>
      <point x="225.98341941578144" y="1081.9488705780439" type="line"/>
      <point x="37.98500697845991" y="0.0" type="line"/>
      <point x="211.00715903051054" y="0.0" type="line"/>
    </contour>
  </outline>
</glyph>
<glyph name="kgreenlandic" format="2">
  <advance width="976"/>
  <unicode hex="0138"/>
  <anchor x="624.589623826291" y="1290" name="top"/>
  <anchor x="403.4285825253454" y="10" name="bottom"/>
  <anchor x="1075.639623826291" y="1290" name="top0315"/>
  <anchor x="624.589623826291" y="1290" name="parent_top"/>
  <outline>
    <contour>
      <point x="399.00591621620885" y="1081.936219680167" type="line"/>
      <point x="225.98588088168384" y="1081.9443485437494" type="line"/>
      <point x="37.984988468050105" y="0.0" type="line"/>
      <point x="211.00502380255278" y="0.0" type="line"/>
    </contour>
    <contour>
      <point x="981.8582345282375" y="1081.6187997155318" type="line"/>
      <point x="760.0844310264586" y="1081.521348710433" type="line"/>
      <point x="373.4072318905983" y="624.3944320629047" type="line"/>
      <point x="235.4681251481125" y="623.9110085054339" type="line"/>
      <point x="234.76628604789056" y="461.8950015952349" type="line"/>
      <point x="437.38084094292356" y="462.39863830584386" type="line"/>
    </contour>
    <contour>
      <point x="601.8391202711923" y="0.0" type="line"/>
      <point x="805.9014785562973" y="0.0" type="line"/>
      <point x="477.0530617485456" y="624.9513609898233" type="line"/>
      <point x="351.7100606712576" y="499.47392814613795" type="line"/>
    </contour>
  </outline>
</glyph>
<glyph name="lslash" format="2">
  <advance width="498"/>
  <unicode hex="0142"/>
  <anchor x="439.801923677451" y="1697" name="top"/>
  <anchor x="148.31858252534533" y="10" name="bottom"/>
  <anchor x="667.751923677451" y="1697" name="top0315"/>
  <anchor x="439.801923677451" y="1697" name="parent_top"/>
  <outline>
    <contour>
      <point x="510.6703945194346" y="934.7772109131798" type="line"/>
      <point x="75.91308742137348" y="747.8555554073699" type="line"/>
      <point x="52.19497649021055" y="616.2210729327154" type="line"/>
      <point x="486.9522835882715" y="803.1427284385229" type="line"/>
    </contour>
    <contour>
      <point x="492.2127974673987" y="1535.9406525078075" type="line"/>
      <point x="319.1906209115192" y="1535.9494799556815" type="line"/>
      <point x="52.533795559527576" y="0.0" type="line"/>
      <point x="225.55597211541038" y="0.0" type="line"/>
    </contour>
  </outline>
</glyph>
<glyph name="Eng" format="2">
  <advance width="1190"/>
  <unicode hex="014A"/>
  <anchor x="784.0548455798802" y="1601" name="top"/>
  <anchor x="503.3385825253454" y="10" name="bottom"/>
  <anchor x="1343.7448455798801" y="1601" name="top0315"/>
  <anchor x="784.0548455798802" y="1601" name="parent_top"/>
  <outline>
    <contour>
      <point x="293.69061687859545" y="1455.943154524226" type="line"/>
      <point x="40.89396855518011" y="0.0" type="line"/>
      <point x="220.70572034177366" y="0.0" type="line"/>
      <point x="473.5023686651907" y="1455.934979538008" type="line"/>
    </contour>
    <contour>
      <point x="330.1471755204987" y="1350.792105614644" type="line"/>
      <point x="774.6585199120822" y="0.0" type="line"/>
      <point x="912.710854893761" y="105.17222229716081" type="line"/>
      <point x="467.19591780195594" y="1458.4544814198255" type="line"/>
    </contour>
    <contour>
      <point x="1021.2047778208171" y="1455.9442529452538" type="line"/>
      <point x="757.8578981137211" y="-84.18969581122097" type="line" smooth="yes"/>
      <point x="746.8022175385354" y="-158.29106160298875"/>
      <point x="720.0917668554258" y="-282.76556139174596"/>
      <point x="623.5068212646648" y="-283.4585854377562" type="curve" smooth="yes"/>
      <point x="595.7163524186815" y="-283.6579898381249"/>
      <point x="567.1076513418442" y="-275.5811703055106"/>
      <point x="540.981232962132" y="-267.11332774372613" type="curve"/>
      <point x="512.6980783320136" y="-420.3987799638606" type="line"/>
      <point x="546.811181666429" y="-431.397575613191"/>
      <point x="578.8788366706058" y="-438.8281619342904"/>
      <point x="614.9331988715365" y="-439.37624573605723" type="curve" smooth="yes"/>
      <point x="823.8896876869607" y="-442.5527175914061"/>
      <point x="914.7999862563263" y="-267.5459926088981"/>
      <point x="938.9771964753552" y="-83.5329013391737" type="curve" smooth="yes"/>
      <point x="1201.99422323291" y="1455.9367484861984" type="line"/>
    </contour>
  </outline>
</glyph>
<glyph name="oe" format="2">
  <advance width="1544"/>
  <unicode hex="0153"/>
  <anchor x="903.949623826291" y="1290" name="top"/>
  <anchor x="680.8879798266654" y="-1" name="bottom"/>
  <anchor x="1697.6220635163636" y="1600" name="top_dd"/>
  <anchor x="1350.8484620390216" y="-407" name="bottom_dd"/>
  <anchor x="1644.059623826291" y="1290" name="top0315"/>
  <anchor x="903.949623826291" y="1290" name="parent_top"/>
  <outline>
    <contour>
      <point x="1042.12403538277" y="-20.632067534326257" type="curve" smooth="yes"/>
      <point x="1162.564661144047" y="-22.871696417831934"/>
      <point x="1285.8463413887337" y="17.9060947188255"/>
      <point x="1365.9561119431214" y="110.75527427130999" type="curve"/>
      <point x="1309.5974915680115" y="238.0337754589335" type="line"/>
      <point x="1236.1148659666708" y="172.8771765872681"/>
      <point x="1148.990893588168" y="128.6166595343225"/>
      <point x="1048.3378583755396" y="132.26376830205436" type="curve" smooth="yes"/>
      <point x="864.7549648269693" y="138.91579602533326"/>
      <point x="873.8417994169696" y="389.7225133653854"/>
      <point x="887.6065986520978" y="518.1480793255577" type="curve" smooth="yes"/>
      <point x="892.7361312225146" y="561.702283042512" type="line" smooth="yes"/>
      <point x="910.064092585029" y="696.3893343999947"/>
      <point x="983.1236349742213" y="957.9926587281182"/>
      <point x="1162.2025582267916" y="951.4571146621247" type="curve" smooth="yes"/>
      <point x="1305.5402899212204" y="946.2259571099472"/>
      <point x="1322.1019808576793" y="788.294301428046"/>
      <point x="1305.2361466841571" y="676.4663645423905" type="curve" smooth="yes"/>
      <point x="1300.334751216934" y="648.4360595018422" type="line"/>
      <point x="837.7721720493344" y="648.9302686868099" type="line"/>
      <point x="810.9826740848598" y="498.08716341315164" type="line"/>
      <point x="1452.713194017413" y="497.97193022110207" type="line"/>
      <point x="1471.0221194769842" y="620.2686732762696" type="line" smooth="yes"/>
      <point x="1498.9645974758987" y="843.3466849173014"/>
      <point x="1440.337800293551" y="1094.8497116401563"/>
      <point x="1174.3800708256263" y="1102.945479431063" type="curve" smooth="yes"/>
      <point x="900.7009151021142" y="1111.2762878583328"/>
      <point x="749.3239057714792" y="791.095333902863"/>
      <point x="722.2734395964724" y="562.1622325636307" type="curve" smooth="yes"/>
      <point x="717.3673452725038" y="516.9137054177932" type="line" smooth="yes"/>
      <point x="694.3000799244423" y="284.69826471823274"/>
      <point x="755.0778205855415" y="-15.294358688184243"/>
    </contour>
    <contour>
      <point x="88.0375830143336" y="521.9106085078258" type="line" smooth="yes"/>
      <point x="62.871278492046386" y="292.5731862890053"/>
      <point x="121.9553141335108" y="-13.90574564678385"/>
      <point x="406.5035452240427" y="-21.845825368721638" type="curve" smooth="yes"/>
      <point x="703.5528256392859" y="-30.13473638673065"/>
      <point x="847.2568082515758" y="278.55111023747236"/>
      <point x="879.286735413823" y="530.579988960719" type="curve" smooth="yes"/>
      <point x="882.1201004550793" y="554.5256465822787" type="line" smooth="yes"/>
      <point x="907.2832256775746" y="785.1523055276273"/>
      <point x="849.3002770350877" y="1094.512078333999"/>
      <point x="562.6233941519288" y="1102.4781938605604" type="curve" smooth="yes"/>
      <point x="263.22800606068256" y="1110.7977284727274"/>
      <point x="122.70722624051515" y="797.7298452182437"/>
      <point x="90.79093038672004" y="545.1224155082728" type="curve" smooth="yes"/>
    </contour>
    <contour>
      <point x="263.6717287278346" y="545.7835400571541" type="line" smooth="yes"/>
      <point x="283.4598814612002" y="699.227485542848"/>
      <point x="350.9213299219019" y="958.7807939724947"/>
      <point x="551.1453313034729" y="951.0146923425854" type="curve" smooth="yes"/>
      <point x="736.5366197917859" y="943.8239081320736"/>
      <point x="722.9851617629392" y="680.7288217627183"/>
      <point x="708.5669000035152" y="553.765002729881" type="curve" smooth="yes"/>
      <point x="705.8722712255443" y="531.2326127032295" type="line" smooth="yes"/>
      <point x="685.7703047576117" y="377.3725300089823"/>
      <point x="617.2692798311402" y="121.64683755873357"/>
      <point x="417.5308048443983" y="129.3766537222242" type="curve" smooth="yes"/>
      <point x="232.6180392106711" y="136.53271959649413"/>
      <point x="246.60871256461937" y="395.49971411206894"/>
      <point x="260.9184747713979" y="522.523620811322" type="curve" smooth="yes"/>
    </contour>
  </outline>
</glyph>
<glyph name="tbar" format="2">
  <advance width="588"/>
  <unicode hex="0167"/>
  <anchor x="291.1207618901817" y="0" name="bottom"/>
  <anchor x="432.5509979579165" y="1481" name="parent_top"/>
  <anchor x="741.2020635163638" y="1600" name="top_dd"/>
  <anchor x="394.42846203902167" y="-407" name="bottom_dd"/>
  <anchor x="720.6409979579164" y="1481" name="top0315"/>
  <anchor x="432.5509979579165" y="1481" name="top"/>
  <outline>
    <contour>
      <point x="596.9743601199787" y="1081.905837341027" type="line"/>
      <point x="105.79472671379345" y="1081.9138136839483" type="line"/>
      <point x="80.47312435705972" y="940.0925439089508" type="line"/>
      <point x="571.6527577632297" y="940.0845675659796" type="line"/>
    </contour>
    <contour>
      <point x="311.33774876673823" y="1344.9469980870736" type="line"/>
      <point x="130.67846815546102" y="268.95087479875946" type="line"/>
      <point x="119.59982801910816" y="143.42119449047988"/>
      <point x="146.04243912147834" y="-17.17154374025212"/>
      <point x="302.02465094677626" y="-19.353151332177237" type="curve" smooth="yes"/>
      <point x="340.21961581662134" y="-19.887355997941906"/>
      <point x="378.9616122149288" y="-14.601008376208869"/>
      <point x="414.6731066471435" y="-0.8662178707977293" type="curve"/>
      <point x="429.8843556923707" y="151.37780479845077" type="line"/>
      <point x="406.82080188727195" y="146.61879169642845"/>
      <point x="383.2246697899152" y="141.05135254181073"/>
      <point x="359.4969824619527" y="141.26211123707324" type="curve" smooth="yes"/>
      <point x="291.4130807885999" y="141.86685935629453"/>
      <point x="295.49097517152074" y="214.71505044779877"/>
      <point x="300.66831800789646" y="265.5578480388589" type="curve"/>
      <point x="484.2913774499873" y="1344.933139277265" type="line"/>
    </contour>
    <contour>
      <point x="555.6539079160652" y="753.91162756104" type="line"/>
      <point x="28.580626403357314" y="753.9203356211585" type="line"/>
      <point x="1.6029598887967609" y="602.0883464332651" type="line"/>
      <point x="528.6762414015079" y="602.079638373147" type="line"/>
    </contour>
  </outline>
</glyph>
<glyph name="Bhook" format="2">
  <advance width="1256"/>
  <unicode hex="0181"/>
  <outline>
    <contour>
      <point x="596.9385261769663" y="1298.1871466088212" type="line"/>
      <point x="624.8844506741882" y="1456.0990108245662" type="line"/>
      <point x="464.74955629145256" y="1457.2963664941851" type="line" smooth="yes"/>
      <point x="279.85528300672047" y="1456.783420893776"/>
      <point x="153.89536387864624" y="1357.7518703397272"/>
      <point x="139.42637008709352" y="1168.639353799817" type="curve" smooth="yes"/>
      <point x="136.55779474897815" y="1131.146525418618"/>
      <point x="138.86458396741844" y="1093.4242380914918"/>
      <point x="142.88746542847088" y="1056.1362186528713" type="curve"/>
      <point x="279.7285213431795" y="1056.559936496684" type="line"/>
      <point x="278.89101616317913" y="1079.3743058787973"/>
      <point x="277.9332217613795" y="1101.875233348209"/>
      <point x="280.53741155113534" y="1124.6350108829931" type="curve" smooth="yes"/>
      <point x="292.6013377024463" y="1230.0698284527414"/>
      <point x="346.897047317594" y="1298.9884194173076"/>
      <point x="457.30305371561906" y="1300.4786706278853" type="curve" smooth="yes"/>
    </contour>
    <contour>
      <point x="777.0180960163851" y="680.8935400349822" type="line"/>
      <point x="838.6520753554624" y="726.7055462965643" type="line"/>
      <point x="1024.9246738813715" y="756.1379454054205"/>
      <point x="1182.152950839651" y="877.5202967252185"/>
      <point x="1197.8985645079383" y="1075.6320704266857" type="curve" smooth="yes"/>
      <point x="1216.3091813443407" y="1307.2749922737903"/>
      <point x="1096.746551930607" y="1449.2880835742017"/>
      <point x="864.1123931550495" y="1454.9959871970261" type="curve" smooth="yes"/>
      <point x="473.05112581717606" y="1455.9831272935744" type="line"/>
      <point x="220.34306381489978" y="0.0" type="line"/>
      <point x="399.18041993629504" y="0.0" type="line"/>
      <point x="624.506566493198" y="1298.076861571322" type="line"/>
      <point x="859.8281541534958" y="1297.15838368811" type="line" smooth="yes"/>
      <point x="993.9603462088148" y="1292.5202617806378"/>
      <point x="1031.3653420977475" y="1204.578395739383"/>
      <point x="1016.1087013213323" y="1079.464693733811" type="curve" smooth="yes"/>
      <point x="999.227123661294" y="941.0255243455524"/>
      <point x="903.5145253588539" y="836.6833404430025"/>
      <point x="760.3257365988989" y="834.5099841689917" type="curve" smooth="yes"/>
      <point x="504.48995130557864" y="835.9520108317154" type="line"/>
      <point x="478.2099277061344" y="681.060079951766" type="line"/>
    </contour>
    <contour>
      <point x="653.0090864979854" y="0.0" type="line" smooth="yes"/>
      <point x="913.4525865399801" y="-3.4147502077635665"/>
      <point x="1088.9262355662881" y="170.554860064161"/>
      <point x="1109.1118911368333" y="427.81219868569656" type="curve" smooth="yes"/>
      <point x="1121.4553675750064" y="585.124399259241"/>
      <point x="1066.2870023422918" y="747.702958142886"/>
      <point x="895.4224041948535" y="778.6124797958646" type="curve"/>
      <point x="864.6579528985415" y="835.2019430642624" type="line"/>
      <point x="564.3070443423305" y="836.0237390821299" type="line"/>
      <point x="535.0882066899009" y="681.3142118166726" type="line"/>
      <point x="776.9923050555797" y="679.7484202947904" type="line" smooth="yes"/>
      <point x="920.8882973175232" y="673.2796367415136"/>
      <point x="946.5097091546952" y="551.2365678315198"/>
      <point x="931.8094027426009" y="427.2087558966445" type="curve" smooth="yes"/>
      <point x="913.8198904079245" y="275.4296167346405"/>
      <point x="818.3013462049714" y="156.9275984957429"/>
      <point x="658.3861403548133" y="155.32401258932714" type="curve" smooth="yes"/>
      <point x="411.40622172367864" y="156.55097275922677" type="line"/>
      <point x="279.93524106187095" y="0.0" type="line"/>
    </contour>
  </outline>
</glyph>
<glyph name="tonesix" format="2">
  <advance width="1090"/>
  <unicode hex="0185"/>
  <outline>
    <contour>
      <point x="394.44753987849805" y="1535.4072491601628" type="line"/>
      <point x="335.1457756120076" y="1470.594858020981"/>
      <point x="278.2381538084547" y="1399.861053434791"/>
      <point x="226.53231727781053" y="1328.845176662253" type="curve"/>
      <point x="217.44788127252076" y="1252.9757295111585" type="line"/>
      <point x="256.19662411075956" y="1186.4548790480253"/>
      <point x="291.29509322233383" y="1116.2152450132141"/>
      <point x="323.39009018006504" y="1046.2505198839817" type="curve"/>
      <point x="360.98096993691894" y="1046.8419953064301" type="line"/>
      <point x="437.5621571246089" y="1536.0830578269563" type="line"/>
    </contour>
    <contour>
      <point x="400.6687007469055" y="1535.9450243066083" type="line"/>
      <point x="133.9703721200147" y="0.0" type="line"/>
      <point x="292.2572775238202" y="0.0" type="line"/>
      <point x="340.97019379011306" y="198.85702666009414" type="line"/>
      <point x="572.7399957640667" y="1535.9387487831318" type="line"/>
    </contour>
    <contour>
      <point x="989.0384920919103" y="555.5228400760992" type="line" smooth="yes"/>
      <point x="1012.4307440428315" y="762.2802937530267"/>
      <point x="996.0002101318568" y="1093.902382564894"/>
      <point x="719.5310124801541" y="1102.828613226084" type="curve" smooth="yes"/>
      <point x="444.4894800881996" y="1111.708749532012"/>
      <point x="325.04979898604586" y="813.6366484883353"/>
      <point x="287.9613458824242" y="585.6874403118488" type="curve" smooth="yes"/>
      <point x="276.6852622118317" y="493.85403644963606" type="line" smooth="yes"/>
      <point x="260.8817492800595" y="284.6469592674879"/>
      <point x="302.09575801095673" y="-13.949906088782571"/>
      <point x="565.7373468135693" y="-21.432912757520924" type="curve" smooth="yes"/>
      <point x="849.4730488303159" y="-29.48625578277519"/>
      <point x="957.5418442866602" y="307.9327258707824"/>
      <point x="986.4648141809766" y="534.248354744224" type="curve" smooth="yes"/>
    </contour>
    <contour>
      <point x="815.156552098757" y="535.7906689727131" type="line" smooth="yes"/>
      <point x="795.6365144533175" y="382.350589680839"/>
      <point x="732.3563739453534" y="128.12016537337618"/>
      <point x="532.0686617385048" y="136.38070172772998" type="curve" smooth="yes"/>
      <point x="395.2557837585821" y="142.023323233785"/>
      <point x="341.12119238786096" y="298.8701026804491"/>
      <point x="346.8638072715844" y="416.97100539101467" type="curve"/>
      <point x="384.68116389283045" y="659.7276754799097" type="line"/>
      <point x="415.2978364545413" y="789.0040072357181"/>
      <point x="513.6457851280302" y="952.8305048655789"/>
      <point x="664.1953679176421" y="948.2529590448191" type="curve" smooth="yes"/>
      <point x="852.5124180717494" y="942.5270718657401"/>
      <point x="832.0730818998578" y="685.1600432623909"/>
      <point x="817.632406535177" y="557.0563762925208" type="curve" smooth="yes"/>
    </contour>
  </outline>
</glyph>
<glyph name="Chook" format="2">
  <advance width="1169"/>
  <unicode hex="0187"/>
  <outline>
    <contour>
      <point x="1105.6879253117156" y="988.9894680561154" type="line"/>
      <point x="1132.5883150833026" y="1161.2033610760695" type="line" smooth="yes"/>
      <point x="1148.5083263074205" y="1261.239413590833"/>
      <point x="1198.3360230735623" y="1360.2238284145103"/>
      <point x="1314.309025874182" y="1355.1161948460992" type="curve" smooth="yes"/>
      <point x="1331.8775879641946" y="1354.342447721228"/>
      <point x="1348.1391454200334" y="1349.1815470371482"/>
      <point x="1364.7885265900527" y="1344.10354815413" type="curve"/>
      <point x="1380.2786417816617" y="1493.0286372358655" type="line"/>
      <point x="1346.117768122814" y="1502.8741784167667"/>
      <point x="1312.0051109628448" y="1511.1754151412867"/>
      <point x="1276.2146665716944" y="1511.9470759998353" type="curve" smooth="yes"/>
      <point x="1076.5777141943222" y="1516.2513539905162"/>
      <point x="1012.31912260976" y="1326.5648780268052"/>
      <point x="991.2478670446437" y="1160.615992089269" type="curve" smooth="yes"/>
      <point x="966.0499138830464" y="989.1808481763719" type="line"/>
    </contour>
    <contour>
      <point x="832.4743221710689" y="461.96062836357726" type="line"/>
      <point x="791.7938734164914" y="275.29235205575054"/>
      <point x="716.8201137637809" y="127.23043404253275"/>
      <point x="502.3381362206153" y="136.3718131831757" type="curve" smooth="yes"/>
      <point x="271.52309334129444" y="146.20931954381615"/>
      <point x="279.04607880030073" y="424.7927053572423"/>
      <point x="302.10925126883825" y="593.1869831909977" type="curve" smooth="yes"/>
      <point x="344.3091302332496" y="865.3139654387154" type="line" smooth="yes"/>
      <point x="375.98353791170484" y="1073.1511927963359"/>
      <point x="473.1342338735759" y="1326.8680595710389"/>
      <point x="724.2845676289987" y="1318.9087246532272" type="curve" smooth="yes"/>
      <point x="915.5512218765637" y="1312.847194345853"/>
      <point x="933.5070501273992" y="1147.2880729230312"/>
      <point x="927.713610418735" y="988.7524225893782" type="curve"/>
      <point x="1107.6594131175336" y="988.5044380554629" type="line"/>
      <point x="1118.4965838824444" y="1246.405070364484"/>
      <point x="1021.2107125680063" y="1469.5888408004944"/>
      <point x="734.8405010943876" y="1476.0765868101405" type="curve" smooth="yes"/>
      <point x="385.28096027371197" y="1483.995893446201"/>
      <point x="210.92246803721355" y="1168.4555313841256"/>
      <point x="164.43018175198216" y="862.6636714602167" type="curve" smooth="yes"/>
      <point x="122.42045415540382" y="593.6935315237063" type="line" smooth="yes"/>
      <point x="86.48127451628318" y="322.7352301280089"/>
      <point x="163.5318888938492" y="-12.148083836738028"/>
      <point x="492.0190086124162" y="-20.498107299144227" type="curve" smooth="yes"/>
      <point x="793.4579592293584" y="-28.160576111592768"/>
      <point x="966.9954043585791" y="182.0226595164675"/>
      <point x="1007.4927102293937" y="463.67705095993614" type="curve"/>
    </contour>
  </outline>
</glyph>
<glyph name="Dtopbar" format="2">
  <advance width="1097"/>
  <unicode hex="018B"/>
  <outline>
    <contour>
      <point x="847.3822241633661" y="0.0" type="line"/>
      <point x="1100.0281499581881" y="1455.9246358261937" type="line"/>
      <point x="364.5675826197334" y="1455.9233279482914" type="line"/>
      <point x="336.5194924553824" y="1298.0891979936664" type="line"/>
      <point x="892.8725359448528" y="1297.9405477538148" type="line"/>
      <point x="817.0846597821596" y="863.0327338606312" type="line"/>
      <point x="522.9624805126889" y="864.2310287047292" type="line" smooth="yes"/>
      <point x="258.5063699215656" y="863.9880106387628"/>
      <point x="76.83351051088187" y="688.9099289713693"/>
      <point x="54.21068985567986" y="426.74486745371144" type="curve" smooth="yes"/>
      <point x="33.80896096616429" y="190.31897737989638"/>
      <point x="153.2097079723262" y="11.887911692437186"/>
      <point x="398.0199722119077" y="1.1054419596350789" type="curve" smooth="yes"/>
    </contour>
    <contour>
      <point x="694.8122794318433" y="156.90718388258574" type="line"/>
      <point x="401.53439660739343" y="158.49746163990602" type="line" smooth="yes"/>
      <point x="253.69545428679902" y="166.0656649873747"/>
      <point x="218.00824422459056" y="302.71329314282445"/>
      <point x="233.5417845296896" y="429.99953442151093" type="curve" smooth="yes"/>
      <point x="252.5511818437861" y="585.7679352856869"/>
      <point x="351.12387852642973" y="706.1677005507373"/>
      <point x="515.2491930626474" y="707.3712223664393" type="curve" smooth="yes"/>
      <point x="790.0351957581657" y="704.5883169425" type="line"/>
    </contour>
  </outline>
</glyph>
<glyph name="dtopbar" format="2">
  <advance width="986"/>
  <unicode hex="018C"/>
  <outline>
    <contour>
      <point x="893.8417573287433" y="1535.911637396411" type="line"/>
      <point x="447.2864457838127" y="1535.9198696855537" type="line"/>
      <point x="420.30489838900905" y="1384.087124134525" type="line"/>
      <point x="866.8602099339405" y="1384.0788918453886" type="line"/>
    </contour>
    <contour>
      <point x="613.0552945586809" y="220.93967002101917" type="line"/>
      <point x="589.7595953626561" y="0.0" type="line"/>
      <point x="746.4259101047015" y="0.0" type="line"/>
      <point x="1013.1029404378473" y="1535.9371794186063" type="line"/>
      <point x="841.0631246242386" y="1535.9467076203473" type="line"/>
    </contour>
    <contour>
      <point x="80.15225359852788" y="520.9525065012974" type="line" smooth="yes"/>
      <point x="58.55036073135561" y="323.89521224423015"/>
      <point x="91.52945328699002" y="-11.923663951698284"/>
      <point x="354.31575196168745" y="-21.28841769417482" type="curve" smooth="yes"/>
      <point x="629.6906302291172" y="-31.101782907066863"/>
      <point x="749.8710387267199" y="265.9833367769804"/>
      <point x="786.9836193329859" y="494.29125426326846" type="curve" smooth="yes"/>
      <point x="798.2473641361888" y="586.1444546934914" type="line" smooth="yes"/>
      <point x="814.6228620446296" y="794.0896172118098"/>
      <point x="776.0428086699418" y="1095.6708262862069"/>
      <point x="512.2051242715664" y="1103.056240549888" type="curve" smooth="yes"/>
      <point x="227.04052505263854" y="1111.0386434555637"/>
      <point x="111.38940947162375" y="770.886921339871"/>
      <point x="82.67158260142143" y="542.2466586972758" type="curve" smooth="yes"/>
    </contour>
    <contour>
      <point x="257.1043098017722" y="544.9074762367029" type="line" smooth="yes"/>
      <point x="277.10261920708996" y="700.4359768789077"/>
      <point x="344.08219148128893" y="954.8058992242053"/>
      <point x="546.0512621545045" y="946.1482012735285" type="curve" smooth="yes"/>
      <point x="682.8380972910959" y="940.2846346477368"/>
      <point x="734.6854529878897" y="776.3718928587641"/>
      <point x="729.4078669771803" y="660.0139401877336" type="curve"/>
      <point x="691.5480267396869" y="417.16320734512385" type="line"/>
      <point x="657.703595303711" y="288.1344614552394"/>
      <point x="559.9172636747571" y="128.8961007638988"/>
      <point x="409.66098925327526" y="134.22818844749796" type="curve" smooth="yes"/>
      <point x="225.37629057997793" y="140.76782997564692"/>
      <point x="240.38551801968697" y="397.3671112955572"/>
      <point x="254.59882569529168" y="523.5489655670636" type="curve" smooth="yes"/>
    </contour>
  </outline>
</glyph>
<glyph name="Schwa" format="2">
  <advance width="1186"/>
  <unicode hex="018F"/>
  <anchor x="718.4404097069129" y="1603" name="top"/>
  <anchor x="475.4207618901818" y="0" name="bottom"/>
  <anchor x="1340.2104097069127" y="1603" name="top0315"/>
  <anchor x="718.4404097069129" y="1603" name="parent_top"/>
  <outline>
    <contour>
      <point x="487.70687341729" y="-20.37487501103788" type="curve" smooth="yes"/>
      <point x="849.0826715915599" y="-28.175131019596655"/>
      <point x="1044.1744808886547" y="376.7121675498599"/>
      <point x="1088.9029444548678" y="680.5026134682113" type="curve" smooth="yes"/>
      <point x="1102.1155903054898" y="774.2466778443088" type="line" smooth="yes"/>
      <point x="1143.6753742617543" y="1092.108308125879"/>
      <point x="1049.6560574343987" y="1470.866330738349"/>
      <point x="665.7995671200555" y="1475.2196235319996" type="curve" smooth="yes"/>
      <point x="559.1602343795169" y="1476.4290136307807"/>
      <point x="412.45755964842317" y="1456.533593707208"/>
      <point x="332.5248617634599" y="1376.1070571605496" type="curve"/>
      <point x="363.0980781272773" y="1232.1541028762867" type="line"/>
      <point x="455.74772926916273" y="1282.712512549024"/>
      <point x="552.7836674421245" y="1316.6430291068161"/>
      <point x="659.7886936308264" y="1314.4956726394023" type="curve" smooth="yes"/>
      <point x="943.307649992084" y="1308.8060682697615"/>
      <point x="951.4724025695258" y="986.589486862313"/>
      <point x="922.3155550819727" y="774.9060335882804" type="curve" smooth="yes"/>
      <point x="908.4350993086321" y="679.9359834527455" type="line" smooth="yes"/>
      <point x="876.1886785051587" y="469.3827113202617"/>
      <point x="764.8519406221371" y="129.7670010875277"/>
      <point x="497.42053830820794" y="137.84676853118626" type="curve" smooth="yes"/>
      <point x="253.87678940153103" y="145.2048305855923"/>
      <point x="235.7094376409141" y="391.5972785692188"/>
      <point x="266.919194480322" y="582.7272812963021" type="curve" smooth="yes"/>
      <point x="273.2671150165462" y="618.4586350502791" type="line"/>
      <point x="967.8659419897797" y="618.0830561488582" type="line"/>
      <point x="994.4371570650351" y="766.9023275805162" type="line"/>
      <point x="115.00133708057551" y="766.979879273861" type="line"/>
      <point x="95.50658644959647" y="642.7225628126562" type="line" smooth="yes"/>
      <point x="53.853703920223815" y="341.99228068856013"/>
      <point x="121.42454025273474" y="-12.468711995887807"/>
    </contour>
  </outline>
</glyph>
<glyph name="Epsilon1" format="2">
  <advance width="1022"/>
  <unicode hex="0190"/>
  <anchor x="689.3404097069129" y="1603" name="top"/>
  <anchor x="412.3707618901817" y="0" name="bottom"/>
  <anchor x="1176.280409706913" y="1603" name="top0315"/>
  <anchor x="689.3404097069129" y="1603" name="parent_top"/>
  <outline>
    <contour>
      <point x="662.789542188357" y="699.1054390212024" type="line"/>
      <point x="684.9127101052366" y="821.8379817164256" type="line"/>
      <point x="540.9463239720491" y="823.1085938758631" type="line" smooth="yes"/>
      <point x="398.0693333068158" y="828.8637960458467"/>
      <point x="347.122509359249" y="924.7443563871457"/>
      <point x="362.605723617445" y="1059.2432621069001" type="curve" smooth="yes"/>
      <point x="380.4438759991599" y="1214.1989409080818"/>
      <point x="492.28923464916494" y="1324.3206353077076"/>
      <point x="652.1442044686925" y="1319.0157684906148" type="curve" smooth="yes"/>
      <point x="789.9287478363769" y="1314.4433197713495"/>
      <point x="842.6273419389694" y="1198.021729421972"/>
      <point x="834.4633118776143" y="1074.817709743871" type="curve"/>
      <point x="1013.6416338348301" y="1074.423383559805" type="line"/>
      <point x="1025.735238974876" y="1295.261880365606"/>
      <point x="891.8913933077043" y="1470.4620631550326"/>
      <point x="663.0431364506508" y="1476.8296588761075" type="curve" smooth="yes"/>
      <point x="402.02167020892614" y="1484.0924591017945"/>
      <point x="205.1496123955104" y="1317.7657926110417"/>
      <point x="186.36613274887185" y="1054.5091237321728" type="curve" smooth="yes"/>
      <point x="170.58800651458228" y="833.373475187272"/>
      <point x="329.93466621252304" y="705.7008385408466"/>
      <point x="539.881025604021" y="700.0849193768723" type="curve" smooth="yes"/>
    </contour>
    <contour>
      <point x="530.7782014852637" y="785.0145701057552" type="line" smooth="yes"/>
      <point x="284.68080123773984" y="785.0805125575994"/>
      <point x="70.22562491835923" y="661.6335466195121"/>
      <point x="50.367044343549466" y="398.0156918078573" type="curve" smooth="yes"/>
      <point x="30.943986238278313" y="140.17929245871835"/>
      <point x="181.68083051038056" y="-15.885244621746939"/>
      <point x="436.60150728783947" y="-21.712167091159174" type="curve" smooth="yes"/>
      <point x="695.9979098482488" y="-27.64139474609533"/>
      <point x="881.8323788686853" y="151.38342645522926"/>
      <point x="909.5639160389345" y="403.9698604475078" type="curve"/>
      <point x="730.8559234042942" y="403.2288918025809" type="line"/>
      <point x="706.8215148126598" y="256.819661840504"/>
      <point x="606.8345180472663" y="130.8012247857316"/>
      <point x="447.4390054378456" y="133.55174074811018" type="curve" smooth="yes"/>
      <point x="290.6916864537071" y="136.25655969732594"/>
      <point x="216.25738947776105" y="243.11709449735423"/>
      <point x="232.21302597576005" y="393.68104407823864" type="curve" smooth="yes"/>
      <point x="250.70302896343907" y="568.1603184046772"/>
      <point x="360.32791689239406" y="664.3312015689057"/>
      <point x="534.4240922007637" y="664.6094559093809" type="curve" smooth="yes"/>
      <point x="656.5320061151483" y="663.2417797413943" type="line"/>
      <point x="678.2073298483763" y="784.1298888310716" type="line"/>
    </contour>
  </outline>
</glyph>
<glyph name="Fhook" format="2">
  <advance width="1015"/>
  <unicode hex="0191"/>
  <outline>
    <contour>
      <point x="271.2297529106265" y="939.9457453816689" type="line"/>
      <point x="96.85052961791187" y="-89.19714287351513" type="line" smooth="yes"/>
      <point x="86.28062785029525" y="-162.61900491973546"/>
      <point x="62.16178027037617" y="-279.1278293165546"/>
      <point x="-33.11325802182364" y="-278.84476265466543" type="curve" smooth="yes"/>
      <point x="-61.562249539946926" y="-278.76023935026694"/>
      <point x="-89.96621685133806" y="-270.0335571014161"/>
      <point x="-116.6526906163905" y="-261.165577793096" type="curve"/>
      <point x="-144.83939199071008" y="-420.18248450444344" type="line"/>
      <point x="-111.6030401704727" y="-431.31564844224596"/>
      <point x="-80.45185067325389" y="-438.60621746028113"/>
      <point x="-45.17761111728888" y="-439.08301357433044" type="curve" smooth="yes"/>
      <point x="161.26227086948992" y="-441.87342762024997"/>
      <point x="252.98726968329018" y="-271.83471774093977"/>
      <point x="276.7954851214397" y="-88.97035924836625" type="curve" smooth="yes"/>
      <point x="451.06174918693773" y="939.9392059140998" type="line"/>
    </contour>
    <contour>
      <point x="540.4315352786348" y="1455.936338637342" type="line"/>
      <point x="360.61920828672123" y="1455.9445757728736" type="line"/>
      <point x="107.82447486433982" y="0.0" type="line"/>
      <point x="287.63680185625384" y="0.0" type="line"/>
    </contour>
    <contour>
      <point x="902.3143881179085" y="800.9063510350455" type="line"/>
      <point x="390.7644729926017" y="800.9151739211989" type="line"/>
      <point x="362.72254981972725" y="643.0937525347674" type="line"/>
      <point x="874.2724649450331" y="643.0849296486101" type="line"/>
    </contour>
    <contour>
      <point x="1096.3024874738956" y="1455.9063044442873" type="line"/>
      <point x="504.24149295115126" y="1455.9148267271325" type="line"/>
      <point x="476.20422583242964" y="1298.0938930843495" type="line"/>
      <point x="1068.265220355187" y="1298.0853708015102" type="line"/>
    </contour>
  </outline>
</glyph>
<glyph name="Gamma1" format="2">
  <advance width="1096"/>
  <unicode hex="0194"/>
  <outline>
    <contour>
      <point x="179.9101395872678" y="1457.7557089578468" type="curve"/>
      <point x="434.4336295378006" y="106.86891326230186" type="line" smooth="yes"/>
      <point x="455.1808937473577" y="14.78219901031649"/>
      <point x="502.3318301095341" y="-97.42216459614666"/>
      <point x="486.2679781101891" y="-194.03526741818618" type="curve" smooth="yes"/>
      <point x="480.0541661461538" y="-231.40710414966492"/>
      <point x="459.1913219009556" y="-277.7149267736974"/>
      <point x="414.25846669700866" y="-277.30187052541004" type="curve" smooth="yes"/>
      <point x="373.3838481619404" y="-276.92612060910403"/>
      <point x="372.3205633245553" y="-234.93534306586764"/>
      <point x="375.3175704592565" y="-204.5147685725305" type="curve" smooth="yes"/>
      <point x="385.7773688193504" y="-98.34449239457922"/>
      <point x="457.9769024150245" y="12.34965842482886"/>
      <point x="503.53115709628105" y="105.61050812631237" type="curve" smooth="yes"/>
      <point x="1207.2396360894786" y="1454.9881266963844" type="line"/>
      <point x="1139.9980827010727" y="1456.1351800452653"/>
      <point x="1072.3917862382857" y="1457.320824706387"/>
      <point x="1005.1679662971474" y="1455.2284926775667" type="curve"/>
      <point x="410.843645215488" y="267.89271752348066" type="line" smooth="yes"/>
      <point x="338.78373665138236" y="129.37919675913471"/>
      <point x="198.87889250801814" y="-39.334776627121045"/>
      <point x="187.34680875882867" y="-201.3299012018682" type="curve" smooth="yes"/>
      <point x="177.7774839815091" y="-335.7534792050244"/>
      <point x="256.93873787596397" y="-427.3339515008424"/>
      <point x="393.31792654754844" y="-428.49512595521986" type="curve" smooth="yes"/>
      <point x="539.1269311708527" y="-429.73658876956836"/>
      <point x="631.2757316518082" y="-329.38380327544644"/>
      <point x="643.0130100350106" y="-187.8338444407759" type="curve" smooth="yes"/>
      <point x="655.4467470992818" y="-37.88468994789889"/>
      <point x="584.0813790404842" y="122.25718023675975"/>
      <point x="558.4431387991394" y="267.7838671161061" type="curve" smooth="yes"/>
      <point x="374.69826035544406" y="1456.7607437821832" type="line"/>
      <point x="310.8260375836411" y="1455.8181165261713"/>
      <point x="243.3964567279346" y="1450.7451417488683"/>
    </contour>
  </outline>
</glyph>
<glyph name="lambdabar" format="2">
  <advance width="965"/>
  <unicode hex="019B"/>
  <anchor x="990.4526662150438" y="1611" name="top0315"/>
  <outline>
    <contour>
      <point x="725.6277418435463" y="1419.8430224947306" type="line"/>
      <point x="290.88600106064973" y="1232.800799141864" type="line"/>
      <point x="260.2223041599254" y="1060.9951293153924" type="line"/>
      <point x="695.040341632092" y="1248.2917561512231" type="line"/>
    </contour>
    <contour>
      <point x="494.9085551920084" y="796.5396158109888" type="line"/>
      <point x="591.130818502587" y="1088.5500694281966" type="line"/>
      <point x="468.25224573089486" y="1100.945524169978" type="line"/>
      <point x="-61.47182501328712" y="0.0" type="line"/>
      <point x="136.46153109425558" y="0.0" type="line"/>
    </contour>
    <contour>
      <point x="380.3731361808669" y="1515.9101169225441" type="curve" smooth="yes"/>
      <point x="353.88583392280384" y="1516.095961522674"/>
      <point x="327.483646170551" y="1511.5769011067857"/>
      <point x="301.8441747580707" y="1505.4195117961103" type="curve"/>
      <point x="287.77870337293876" y="1362.6447848935904" type="line"/>
      <point x="300.88954215858075" y="1363.1388932627158"/>
      <point x="314.5976500354585" y="1364.586679744731"/>
      <point x="327.71030482674274" y="1363.3095491307122" type="curve" smooth="yes"/>
      <point x="377.6305744693464" y="1358.4474746205965"/>
      <point x="384.4281223607267" y="1306.374225108295"/>
      <point x="392.65246989281445" y="1265.5188254778564" type="curve" smooth="yes"/>
      <point x="441.42637977454626" y="989.9721917929105" type="line"/>
      <point x="566.1228103668608" y="187.3642231589032" type="line"/>
      <point x="588.3001204374636" y="87.09249967082278"/>
      <point x="623.4214660462669" y="-18.39282093340619"/>
      <point x="743.6398161926185" y="-15.045187774284978" type="curve" smooth="yes"/>
      <point x="764.6310224644913" y="-14.460660885668322"/>
      <point x="784.3739062478879" y="-10.294710575097406"/>
      <point x="804.3903889035757" y="-4.582882571092108" type="curve"/>
      <point x="814.6261896281588" y="148.5057522354776" type="line"/>
      <point x="804.7198448574284" y="147.74889623774405"/>
      <point x="794.3446556880132" y="146.2060889243394"/>
      <point x="784.4059388816778" y="147.5990359310886" type="curve" smooth="yes"/>
      <point x="743.5333293543733" y="153.32747957310832"/>
      <point x="739.0964690743294" y="199.5267016939988"/>
      <point x="732.6420183360469" y="233.1591999631392" type="curve" smooth="yes"/>
      <point x="562.5534821512742" y="1342.9307230737377" type="line" smooth="yes"/>
      <point x="542.2445028336072" y="1442.6919719322582"/>
      <point x="489.8729881681851" y="1515.1418259124368"/>
    </contour>
  </outline>
</glyph>
<glyph name="Nhook" format="2">
  <advance width="1290"/>
  <unicode hex="019D"/>
  <outline>
    <contour>
      <point x="271.23039134704925" y="939.944475833854" type="line"/>
      <point x="96.86159062275483" y="-89.19690571748612" type="line" smooth="yes"/>
      <point x="86.30257504740756" y="-162.60545482224973"/>
      <point x="62.175439774613636" y="-279.1114015553408"/>
      <point x="-33.078585179109794" y="-278.83099101416616" type="curve" smooth="yes"/>
      <point x="-61.53482469302273" y="-278.74722101572496"/>
      <point x="-89.95068794685609" y="-270.0370832856818"/>
      <point x="-116.64745608986152" y="-261.1726415736987" type="curve"/>
      <point x="-144.85396260899904" y="-420.18986420474914" type="line"/>
      <point x="-111.61529405673953" y="-431.3326802568594"/>
      <point x="-80.46274572377176" y="-438.609119813329"/>
      <point x="-45.1829539233587" y="-439.08573527326394" type="curve" smooth="yes"/>
      <point x="161.26054713521114" y="-441.87470196457105"/>
      <point x="252.94306856534402" y="-271.86332556725915"/>
      <point x="276.7692493846313" y="-89.00369006262669" type="curve" smooth="yes"/>
      <point x="451.06443594098255" y="939.9381747266291" type="line"/>
    </contour>
    <contour>
      <point x="1284.4255974168505" y="1455.9358151365604" type="line"/>
      <point x="1106.5379978710075" y="1455.9428765339526" type="line"/>
      <point x="909.3561950610797" y="322.0068033066974" type="line"/>
      <point x="534.7731173423542" y="1456.0122833684172" type="line"/>
      <point x="360.55359933505963" y="1455.950322693754" type="line"/>
      <point x="107.81899153433905" y="0.0" type="line"/>
      <point x="287.6412514315562" y="0.0" type="line"/>
      <point x="484.3104622155197" y="1131.1017072480277" type="line"/>
      <point x="856.4469675916116" y="0.0" type="line"/>
      <point x="1031.6974095099702" y="0.0" type="line"/>
    </contour>
  </outline>
</glyph>
<glyph name="oi" format="2">
  <advance width="1182"/>
  <unicode hex="01A3"/>
  <guideline x="924.0" y="0.0" angle="90.0" identifier="eC2JkQaHIL"/>
  <outline>
    <contour>
      <point x="408.1407052373529" y="131.96905967261233" type="curve" smooth="yes"/>
      <point x="226.60334953412217" y="135.3227115492875"/>
      <point x="240.69027534297564" y="397.04932780630395"/>
      <point x="254.02833065066568" y="518.2755568696853" type="curve" smooth="yes"/>
      <point x="259.05114973575735" y="559.9564308186749" type="line" smooth="yes"/>
      <point x="279.6348898455788" y="721.9988082028071"/>
      <point x="351.3710257534298" y="960.347574282458"/>
      <point x="555.8327630124921" y="952.2211726963983" type="curve" smooth="yes"/>
      <point x="597.3894310299884" y="950.569488731389"/>
      <point x="630.0304423798257" y="933.4435768755094"/>
      <point x="657.6741015667269" y="903.3285535826412" type="curve"/>
      <point x="589.4937524959345" y="508.15594637156056" type="line"/>
      <point x="761.7137689948224" y="508.0295887064347" type="line"/>
      <point x="833.946559239938" y="950.8256534482888" type="line"/>
      <point x="771.6595880774793" y="1046.1240278910327"/>
      <point x="676.420997468665" y="1099.1100040104143"/>
      <point x="561.9872217624433" y="1102.1300089086142" type="curve" smooth="yes"/>
      <point x="265.17903378655427" y="1109.9630300248111"/>
      <point x="118.42218045141612" y="816.5886104105908"/>
      <point x="86.9658196748919" y="560.2763732540647" type="curve" smooth="yes"/>
      <point x="81.96743762162798" y="516.9877789273827" type="line" smooth="yes"/>
      <point x="57.03105023830483" y="284.75359826415786"/>
      <point x="114.3250606056157" y="-14.184064588801714"/>
      <point x="401.814977697918" y="-20.250858075612786" type="curve" smooth="yes"/>
      <point x="522.7344661425285" y="-22.802577357958125"/>
      <point x="628.4418708302682" y="40.91208029904769"/>
      <point x="703.5132002432927" y="131.8752774833658" type="curve"/>
      <point x="768.248743325818" y="543.9317978398359" type="line"/>
      <point x="595.5710697073154" y="543.9298776959324" type="line"/>
      <point x="529.3397303857255" y="177.117707930756" type="line"/>
      <point x="492.48080208872" y="151.88154798762326"/>
      <point x="454.1800450845417" y="131.1185464662185"/>
    </contour>
    <contour>
      <point x="1132.3332064280762" y="1082.0138940442812" type="line"/>
      <point x="984.5051640426877" y="1081.564196831465" type="line"/>
      <point x="756.7056495860583" y="955.0131752733969" type="line"/>
      <point x="712.6813153617708" y="706.4184415749893" type="line"/>
      <point x="915.828693432829" y="829.1640216673256" type="line"/>
      <point x="699.2370191003289" y="-415.9381855533802" type="line"/>
      <point x="872.2494546466435" y="-415.94637416620407" type="line"/>
    </contour>
  </outline>
</glyph>
<glyph name="Phook" format="2">
  <advance width="1273"/>
  <unicode hex="01A4"/>
  <outline>
    <contour>
      <point x="596.9419148328458" y="1298.1858379955747" type="line"/>
      <point x="624.8847880429498" y="1456.0922153448253" type="line"/>
      <point x="464.7372341925949" y="1457.2526343632617" type="line" smooth="yes"/>
      <point x="279.85607467415866" y="1456.658932978375"/>
      <point x="154.04917308809846" y="1357.848475364297"/>
      <point x="139.55167067181424" y="1168.6878246338888" type="curve" smooth="yes"/>
      <point x="136.67771701178577" y="1131.1890245723428"/>
      <point x="138.96146447501366" y="1093.4607260127939"/>
      <point x="142.96194680761744" y="1056.1631926419807" type="curve"/>
      <point x="279.7886849393917" y="1056.5935926065652" type="line"/>
      <point x="278.93306638238175" y="1079.4050517581036"/>
      <point x="277.95983110772823" y="1101.9013499140674"/>
      <point x="280.54940615122024" y="1124.6606989766885" type="curve" smooth="yes"/>
      <point x="292.55213780919354" y="1230.1507330250606"/>
      <point x="346.7053272174443" y="1298.900420589444"/>
      <point x="457.12436302958406" y="1300.4347167912747" type="curve" smooth="yes"/>
    </contour>
    <contour>
      <point x="782.0045144011387" y="569.7141881428607" type="line" smooth="yes"/>
      <point x="1060.103025439081" y="569.1380955131822"/>
      <point x="1243.856131048909" y="742.5313009128715"/>
      <point x="1267.8258123002627" y="1019.046454641264" type="curve" smooth="yes"/>
      <point x="1288.6296216090805" y="1259.0399893420658"/>
      <point x="1163.0331693986716" y="1448.2920519529837"/>
      <point x="911.5429089628107" y="1455.0680784353747" type="curve" smooth="yes"/>
      <point x="473.0517231817046" y="1455.966177181104" type="line"/>
      <point x="220.34373830499248" y="0.0" type="line"/>
      <point x="399.1826885110655" y="0.0" type="line"/>
      <point x="624.5079757658522" y="1298.05099913649" type="line"/>
      <point x="907.2612916880248" y="1296.9471582881108" type="line" smooth="yes"/>
      <point x="1062.1179845999534" y="1290.2985568860759"/>
      <point x="1104.8191047225857" y="1154.983681316805"/>
      <point x="1088.7470533639057" y="1019.2163376540834" type="curve" smooth="yes"/>
      <point x="1068.6184007509414" y="849.1811855889455"/>
      <point x="965.1462745447336" y="727.5490363210939"/>
      <point x="787.3950809364558" y="726.3492207121876" type="curve" smooth="yes"/>
      <point x="487.75802965948344" y="728.0772594459045" type="line"/>
      <point x="459.8608388485867" y="571.1331204306337" type="line"/>
    </contour>
  </outline>
</glyph>
<glyph name="eshlooprev" format="2">
  <advance width="817"/>
  <unicode hex="01AA"/>
  <guideline x="0.0" y="1315.0" angle="0.0" identifier="h9XENCKiUG"/>
  <guideline x="456.0" y="0.0" angle="90.0" identifier="wAz94TJbqT"/>
  <outline>
    <contour>
      <point x="512.8461449760164" y="1143.0606446704112" type="line"/>
      <point x="308.767372990396" y="-61.214869261132655" type="line"/>
      <point x="294.08928362548136" y="-200.01273548919158"/>
      <point x="308.1502732052371" y="-406.85485463484576"/>
      <point x="492.2000958526362" y="-407.20156725279105" type="curve" smooth="yes"/>
      <point x="522.1587985179922" y="-407.2580033855835"/>
      <point x="551.0990954302615" y="-400.8143382047079"/>
      <point x="579.5188236590215" y="-392.0672176553181" type="curve"/>
      <point x="595.1164969617023" y="-243.15470035872784" type="line"/>
      <point x="577.860482501353" y="-246.30871551214344"/>
      <point x="560.5746862860959" y="-250.42312874524237"/>
      <point x="542.8846531355633" y="-249.45214055782637" type="curve" smooth="yes"/>
      <point x="455.1212360054789" y="-244.63489456425353"/>
      <point x="473.9822629720019" y="-120.86043651264043"/>
      <point x="480.8633401390956" y="-62.75361983206109" type="curve"/>
      <point x="700.746228101315" y="1226.0327148769334" type="line"/>
    </contour>
    <contour>
      <point x="143.03356041882313" y="1211.975418293928" type="curve" smooth="yes"/>
      <point x="133.92992755654365" y="1062.1029388247234"/>
      <point x="213.899897190553" y="884.7015796248602"/>
      <point x="384.3329833319821" y="880.6121814466361" type="curve" smooth="yes"/>
      <point x="567.8831074510742" y="876.208051003545"/>
      <point x="688.4537793099843" y="1064.756657410364"/>
      <point x="698.5294395337567" y="1230.0039628657892" type="curve" smooth="yes"/>
      <point x="707.6750751262383" y="1379.9982664419563"/>
      <point x="627.0075639485941" y="1559.1090468068676"/>
      <point x="456.3392544736005" y="1563.320767183062" type="curve" smooth="yes"/>
      <point x="271.08446376622203" y="1567.8924499940654"/>
      <point x="153.11754617274335" y="1377.987379753206"/>
    </contour>
    <contour>
      <point x="397.79515919399023" y="1051.0192945793651" type="curve" smooth="yes"/>
      <point x="313.2095966831633" y="1051.7924940823395"/>
      <point x="297.48444292704784" y="1148.3580984585246"/>
      <point x="303.4187231864667" y="1214.7249787957273" type="curve" smooth="yes"/>
      <point x="310.3695579787548" y="1292.4606435667445"/>
      <point x="351.8680198386096" y="1396.996437829516"/>
      <point x="445.3084781416228" y="1395.985915601367" type="curve" smooth="yes"/>
      <point x="529.7865534089644" y="1395.0723180612943"/>
      <point x="543.4240175307075" y="1295.2758034107476"/>
      <point x="537.5605472534884" y="1230.1181032849806" type="curve" smooth="yes"/>
      <point x="530.6434581145526" y="1153.252083922853"/>
      <point x="490.2174202485872" y="1050.1744595485402"/>
    </contour>
  </outline>
</glyph>
